Geomini-ExtraBold.ufo
<glyph name="uni0022" format="2">
  <advance width="511"/>
  <unicode hex="0022"/>
  <outline>
    <contour>
      <point x="60" y="737" type="line"/>
      <point x="226" y="737" type="line"/>
      <point x="218" y="412" type="line"/>
      <point x="68" y="412" type="line"/>
    </contour>
    <contour>
      <point x="286" y="737" type="line"/>
      <point x="451" y="737" type="line"/>
      <point x="443" y="412" type="line"/>
      <point x="293" y="412" type="line"/>
    </contour>
  </outline>
</glyph>
<glyph name="uni0023" format="2">
  <advance width="770"/>
  <unicode hex="0023"/>
  <outline>
    <contour>
      <point x="275" y="737" type="line"/>
      <point x="425" y="737" type="line"/>
      <point x="231" y="2" type="line"/>
      <point x="81" y="2" type="line"/>
    </contour>
    <contour>
      <point x="535" y="737" type="line"/>
      <point x="685" y="737" type="line"/>
      <point x="492" y="2" type="line"/>
      <point x="342" y="2" type="line"/>
    </contour>
    <contour>
      <point x="75" y="589" type="line"/>
      <point x="751" y="589" type="line"/>
      <point x="751" y="444" type="line"/>
      <point x="75" y="444" type="line"/>
    </contour>
    <contour>
      <point x="20" y="327" type="line"/>
      <point x="696" y="327" type="line"/>
      <point x="696" y="182" type="line"/>
      <point x="20" y="182" type="line"/>
    </contour>
  </outline>
</glyph>
<glyph name="uni0024" format="2">
  <advance width="589"/>
  <unicode hex="0024"/>
  <outline>
    <contour>
      <point x="538" y="657" type="curve"/>
      <point x="447" y="525" type="line"/>
      <point x="405.569785413063" y="559.2454935702531"/>
      <point x="360.86210915057126" y="586.5032776651525"/>
      <point x="308" y="587" type="curve" smooth="yes"/>
      <point x="240.13664353006243" y="587.0"/>
      <point x="212.0158707767093" y="565.6954721844463"/>
      <point x="212" y="534" type="curve" smooth="yes"/>
      <point x="212.0" y="501.92510570914465"/>
      <point x="234.45998827545793" y="486.57794382213393"/>
      <point x="321" y="457" type="curve" smooth="yes"/>
      <point x="481.538959960533" y="401.8908445542576"/>
      <point x="547.10261366847" y="339.57665738395036"/>
      <point x="547" y="224" type="curve" smooth="yes"/>
      <point x="547.0" y="95.21815644664909"/>
      <point x="462.7217473490762" y="0.66398044599066"/>
      <point x="309" y="1" type="curve" smooth="yes"/>
      <point x="177.2305241874299" y="1.0"/>
      <point x="92.02422545037547" y="33.99881397440369"/>
      <point x="24" y="98" type="curve"/>
      <point x="118" y="230" type="line"/>
      <point x="170.37019196263265" y="185.949517865039"/>
      <point x="230.262580901628" y="155.82679188187018"/>
      <point x="289" y="155" type="curve" smooth="yes"/>
      <point x="335.5840780321452" y="155.0"/>
      <point x="371.947036135283" y="174.76470718095493"/>
      <point x="372" y="218" type="curve" smooth="yes"/>
      <point x="372.0" y="252.2618596713068"/>
      <point x="347.0704194529227" y="267.7720989110544"/>
      <point x="263" y="297" type="curve" smooth="yes"/>
      <point x="102.49859217872455" y="352.94615026256906"/>
      <point x="44.88465988924355" y="407.39116391891696"/>
      <point x="45" y="522" type="curve" smooth="yes"/>
      <point x="45.0" y="657.307076919273"/>
      <point x="146.39194781491406" y="741.1077422244744"/>
      <point x="306" y="741" type="curve" smooth="yes"/>
      <point x="392.2259842656543" y="741.0"/>
      <point x="478.0357800477035" y="716.0742249338954"/>
    </contour>
    <contour>
      <point x="220" y="124" type="line"/>
      <point x="375" y="124" type="line"/>
      <point x="375" y="-119" type="line"/>
      <point x="220" y="-119" type="line"/>
    </contour>
    <contour>
      <point x="234" y="853" type="line"/>
      <point x="389" y="853" type="line"/>
      <point x="389" y="644" type="line"/>
      <point x="234" y="644" type="line"/>
    </contour>
  </outline>
</glyph>
<glyph name="uni0025" format="2">
  <advance width="980"/>
  <unicode hex="0025"/>
  <outline>
    <contour>
      <point x="606" y="737" type="line"/>
      <point x="768" y="737" type="line"/>
      <point x="375" y="2" type="line"/>
      <point x="213" y="2" type="line"/>
    </contour>
    <contour>
      <point x="750" y="420" type="curve" smooth="yes"/>
      <point x="865.5629412988609" y="420.0"/>
      <point x="942.6049021647685" y="334.63887957622984"/>
      <point x="943" y="206" type="curve" smooth="yes"/>
      <point x="943.0" y="77.9583193643457"/>
      <point x="865.9580391340924" y="-7.402801059424462"/>
      <point x="750" y="-7" type="curve" smooth="yes"/>
      <point x="634.4370587011389" y="-7.0"/>
      <point x="557.3950978352314" y="78.36112042377015"/>
      <point x="558" y="206" type="curve" smooth="yes"/>
      <point x="558.0" y="334.041680635655"/>
      <point x="635.0419608659076" y="419.40280105942514"/>
    </contour>
    <contour>
      <point x="696" y="206" type="curve" smooth="yes"/>
      <point x="696.0" y="151.29550203329177"/>
      <point x="720.0859154703602" y="117.06770452214268"/>
      <point x="750" y="117" type="curve" smooth="yes"/>
      <point x="780.3637275928253" y="117.0"/>
      <point x="804.4496430631855" y="151.2277975111491"/>
      <point x="805" y="206" type="curve" smooth="yes"/>
      <point x="805.0" y="260.7044979667089"/>
      <point x="780.9140845296398" y="294.9322954778578"/>
      <point x="750" y="295" type="curve" smooth="yes"/>
      <point x="719.6362724071748" y="295.0"/>
      <point x="695.5503569368146" y="260.77220248885106"/>
    </contour>
    <contour>
      <point x="235" y="751" type="curve" smooth="yes"/>
      <point x="350.5629412988609" y="751.0"/>
      <point x="427.60490216476853" y="665.6388795762299"/>
      <point x="428" y="538" type="curve" smooth="yes"/>
      <point x="428.0" y="409.9583193643456"/>
      <point x="350.95803913409236" y="324.5971989405756"/>
      <point x="235" y="324" type="curve"/>
      <point x="119.43705870113892" y="324.0"/>
      <point x="42.39509783523155" y="409.36112042377"/>
      <point x="43" y="538" type="curve" smooth="yes"/>
      <point x="43.0" y="666.041680635655"/>
      <point x="120.04196086590736" y="751.4028010594252"/>
    </contour>
    <contour>
      <point x="181" y="538" type="curve" smooth="yes"/>
      <point x="181.0" y="483.2955020332917"/>
      <point x="205.08591547036016" y="449.0677045221425"/>
      <point x="235" y="449" type="curve" smooth="yes"/>
      <point x="265.3637275928254" y="449.0"/>
      <point x="289.4496430631855" y="483.2277975111492"/>
      <point x="290" y="538" type="curve" smooth="yes"/>
      <point x="290.0" y="592.7044979667089"/>
      <point x="265.91408452963987" y="626.932295477858"/>
      <point x="235" y="627" type="curve" smooth="yes"/>
      <point x="204.63627240717483" y="627.0"/>
      <point x="180.55035693681467" y="592.772202488851"/>
    </contour>
  </outline>
</glyph>
<glyph name="uni0026" format="2">
  <advance width="859"/>
  <unicode hex="0026"/>
  <outline>
    <contour>
      <point x="284" y="329" type="line" smooth="yes"/>
      <point x="191.87191994741596" y="417.8385974931717"/>
      <point x="153.28593721929943" y="486.07625297326626"/>
      <point x="154" y="555" type="curve"/>
      <point x="310" y="556" type="line"/>
      <point x="310.0" y="523.834960503594"/>
      <point x="340.35983988267776" y="488.4242180779243"/>
      <point x="403" y="429" type="curve" smooth="yes"/>
      <point x="857" y="0" type="line"/>
      <point x="626" y="0" type="line"/>
    </contour>
    <contour>
      <point x="284" y="458" type="curve" smooth="yes"/>
      <point x="415.3271079380143" y="506.87710106696295"/>
      <point x="426.9834831785908" y="527.9962680319717"/>
      <point x="427" y="559" type="curve"/>
      <point x="481" y="604" type="line"/>
      <point x="582" y="563" type="line"/>
      <point x="582.0" y="474.6424563097606"/>
      <point x="536.1032733215512" y="407.62807511650465"/>
      <point x="352" y="333" type="curve" smooth="yes"/>
      <point x="213.97520210789045" y="277.135269287365"/>
      <point x="195.18977807503092" y="252.65783541865858"/>
      <point x="195" y="210" type="curve"/>
      <point x="33" y="195" type="line"/>
      <point x="33.00000000000002" y="301.212364620913"/>
      <point x="87.16001786771314" y="384.78986171630163"/>
    </contour>
    <contour>
      <point x="403" y="196" type="curve" smooth="yes"/>
      <point x="723" y="535" type="line"/>
      <point x="836" y="428" type="line"/>
      <point x="513" y="93" type="line" smooth="yes"/>
      <point x="417.12237845536816" y="-6.134397709353976"/>
      <point x="324.6472880809861" y="-13.690248711685953"/>
      <point x="268" y="-13" type="curve"/>
      <point x="283" y="133" type="line"/>
      <point x="322.04965711062255" y="133.0"/>
      <point x="358.28518258931496" y="149.18755156436382"/>
    </contour>
    <contour>
      <point x="427" y="559" type="line"/>
      <point x="427.0" y="580.388176138478"/>
      <point x="410.2685866030083" y="611.8012906257372"/>
      <point x="369" y="612" type="curve" smooth="yes"/>
      <point x="328.0204707928739" y="612.0"/>
      <point x="309.28362059807665" y="587.1229996052806"/>
      <point x="310" y="556" type="curve"/>
      <point x="230" y="524" type="line"/>
      <point x="154" y="555" type="line"/>
      <point x="154.0" y="677.4543870722445"/>
      <point x="263.5299380186848" y="743.7544756368484"/>
      <point x="372" y="744" type="curve" smooth="yes"/>
      <point x="492.6709776504799" y="744.0"/>
      <point x="581.6442296407018" y="665.4846751736525"/>
      <point x="582" y="563" type="curve"/>
    </contour>
    <contour>
      <point x="283" y="133" type="curve"/>
      <point x="309" y="61" type="line"/>
      <point x="268" y="-13" type="line"/>
      <point x="123.07316472874936" y="-13.0"/>
      <point x="33.21999313240693" y="86.87649613227568"/>
      <point x="33" y="195" type="curve"/>
      <point x="108" y="250" type="line"/>
      <point x="195" y="210" type="line"/>
      <point x="195.0" y="169.80828783748984"/>
      <point x="236.464370990984" y="132.66595196760028"/>
    </contour>
  </outline>
</glyph>
<glyph name="uni0027" format="2">
  <advance width="285"/>
  <unicode hex="0027"/>
  <outline>
    <contour>
      <point x="60" y="737" type="line"/>
      <point x="226" y="737" type="line"/>
      <point x="218" y="412" type="line"/>
      <point x="68" y="412" type="line"/>
    </contour>
  </outline>
</glyph>
<glyph name="uni0028" format="2">
  <advance width="436"/>
  <unicode hex="0028"/>
  <outline>
    <contour>
      <point x="13" y="311" type="curve" smooth="yes"/>
      <point x="13.00000000000025" y="661.3675117204693"/>
      <point x="218.7368962366934" y="830.4977473313054"/>
      <point x="415" y="831" type="curve"/>
      <point x="415" y="681" type="line"/>
      <point x="282.8343501869896" y="655.973215191559"/>
      <point x="174.2702562249396" y="565.7118854993076"/>
      <point x="174" y="320" type="curve" smooth="yes"/>
      <point x="174.0" y="61.14335939762782"/>
      <point x="283.0823906753944" y="-11.553773148912626"/>
      <point x="415" y="-43" type="curve"/>
      <point x="415" y="-198" type="line"/>
      <point x="211.26874507350405" y="-198.0"/>
      <point x="12.842602685863199" y="-29.59545252302763"/>
    </contour>
  </outline>
</glyph>
<glyph name="uni0029" format="2">
  <advance width="436"/>
  <unicode hex="0029"/>
  <outline>
    <contour>
      <point x="423" y="311" type="curve" smooth="yes"/>
      <point x="422.9999999999998" y="661.3675117204693"/>
      <point x="217.2631037633066" y="830.4977473313054"/>
      <point x="21" y="831" type="curve"/>
      <point x="21" y="681" type="line"/>
      <point x="153.1656498130104" y="655.973215191559"/>
      <point x="261.7297437750604" y="565.7118854993076"/>
      <point x="262" y="320" type="curve" smooth="yes"/>
      <point x="262.0" y="61.14335939762782"/>
      <point x="152.91760932460562" y="-11.553773148912626"/>
      <point x="21" y="-43" type="curve"/>
      <point x="21" y="-198" type="line"/>
      <point x="224.73125492649595" y="-198.0"/>
      <point x="423.15739731413674" y="-29.59545252302763"/>
    </contour>
  </outline>
</glyph>
<glyph name="uni002A" format="2">
  <advance width="576"/>
  <unicode hex="002A"/>
  <outline>
    <contour>
      <point x="354" y="502" type="line"/>
      <point x="301" y="542" type="line"/>
      <point x="524" y="614" type="line"/>
      <point x="569" y="485" type="line"/>
      <point x="337" y="419" type="line"/>
      <point x="362" y="468" type="line"/>
      <point x="507" y="283" type="line"/>
      <point x="404" y="191" type="line"/>
      <point x="255" y="397" type="line"/>
      <point x="320" y="397" type="line"/>
      <point x="171" y="191" type="line"/>
      <point x="68" y="283" type="line"/>
      <point x="214" y="469" type="line"/>
      <point x="238" y="420" type="line"/>
      <point x="8" y="485" type="line"/>
      <point x="52" y="613" type="line"/>
      <point x="276" y="543" type="line"/>
      <point x="221" y="502" type="line"/>
      <point x="218" y="737" type="line"/>
      <point x="359" y="737" type="line"/>
    </contour>
  </outline>
</glyph>
<glyph name="uni002B" format="2">
  <advance width="605"/>
  <unicode hex="002B"/>
  <outline>
    <contour>
      <point x="23" y="441" type="line"/>
      <point x="582" y="441" type="line"/>
      <point x="582" y="294" type="line"/>
      <point x="23" y="294" type="line"/>
    </contour>
    <contour>
      <point x="376" y="652" type="line"/>
      <point x="376" y="66" type="line"/>
      <point x="229" y="66" type="line"/>
      <point x="229" y="652" type="line"/>
    </contour>
  </outline>
</glyph>
<glyph name="uni002C" format="2">
  <advance width="331"/>
  <unicode hex="002C"/>
  <outline>
    <contour>
      <point x="124" y="210" type="line"/>
      <point x="306" y="210" type="line"/>
      <point x="156" y="-117" type="line"/>
      <point x="-21" y="-117" type="line"/>
    </contour>
  </outline>
</glyph>
<glyph name="uni002D" format="2">
  <advance width="430"/>
  <unicode hex="002D"/>
  <outline>
    <contour>
      <point x="60" y="415" type="line"/>
      <point x="370" y="415" type="line"/>
      <point x="370" y="246" type="line"/>
      <point x="60" y="246" type="line"/>
    </contour>
  </outline>
</glyph>
<glyph name="uni002E" format="2">
  <advance width="312"/>
  <unicode hex="002E"/>
  <outline>
    <contour>
      <point x="156" y="187" type="curve" smooth="yes"/>
      <point x="211.3312551128753" y="187.0"/>
      <point x="254.1682645123626" y="147.21605602627116"/>
      <point x="254" y="89" type="curve" smooth="yes"/>
      <point x="254.0" y="31.148939784084327"/>
      <point x="211.16299060051273" y="-8.635004189644519"/>
      <point x="156" y="-8" type="curve" smooth="yes"/>
      <point x="100.66874488712469" y="-8.0"/>
      <point x="57.8317354876374" y="31.783943973728846"/>
      <point x="58" y="89" type="curve" smooth="yes"/>
      <point x="58.0" y="146.851060215916"/>
      <point x="100.83700939948727" y="186.63500418964486"/>
    </contour>
  </outline>
</glyph>
<glyph name="uni002F" format="2">
  <advance width="605"/>
  <unicode hex="002F"/>
  <outline>
    <contour>
      <point x="439" y="817" type="line"/>
      <point x="605" y="817" type="line"/>
      <point x="166" y="-188" type="line"/>
      <point x="0" y="-188" type="line"/>
    </contour>
  </outline>
</glyph>
<glyph name="uni0030" format="2">
  <advance width="694"/>
  <unicode hex="0030"/>
  <outline>
    <contour>
      <point x="41" y="368" type="curve" smooth="yes"/>
      <point x="40.999999999999915" y="598.1780203893111"/>
      <point x="186.88270687724614" y="746.2751864134766"/>
      <point x="347" y="746" type="curve" smooth="yes"/>
      <point x="526.8598936976729" y="746.0"/>
      <point x="653.4869877210683" y="597.9028339758346"/>
      <point x="654" y="368" type="curve" smooth="yes"/>
      <point x="654.0" y="135.42700150775602"/>
      <point x="508.10340186669566" y="-9.949908263952523"/>
      <point x="347" y="-10" type="curve"/>
      <point x="167.15566304729583" y="-10.0"/>
      <point x="40.513012278931456" y="135.3786424114732"/>
    </contour>
    <contour>
      <point x="207" y="368" type="curve" smooth="yes"/>
      <point x="207.0" y="234.64912793023404"/>
      <point x="270.48900223696785" y="163.4429896451717"/>
      <point x="347" y="163" type="curve" smooth="yes"/>
      <point x="423.2355298446463" y="163.0"/>
      <point x="486.7245320114805" y="234.20614146164215"/>
      <point x="487" y="368" type="curve" smooth="yes"/>
      <point x="487.0" y="498.9960218447268"/>
      <point x="423.5259372128203" y="572.8822885043529"/>
      <point x="347" y="573" type="curve" smooth="yes"/>
      <point x="270.74953070572246" y="573.0"/>
      <point x="207.2754679886893" y="499.11373016317145"/>
    </contour>
  </outline>
</glyph>
<glyph name="uni0031" format="2">
  <advance width="678"/>
  <unicode hex="0031"/>
  <outline>
    <contour>
      <point x="286" y="737" type="line"/>
      <point x="452" y="737" type="line"/>
      <point x="452" y="0" type="line"/>
      <point x="286" y="0" type="line"/>
    </contour>
    <contour>
      <point x="286" y="570" type="line"/>
      <point x="126" y="494" type="line"/>
      <point x="70" y="639" type="line"/>
      <point x="286" y="737" type="line"/>
    </contour>
    <contour>
      <point x="85" y="165" type="line"/>
      <point x="626" y="165" type="line"/>
      <point x="626" y="0" type="line"/>
      <point x="85" y="0" type="line"/>
    </contour>
  </outline>
</glyph>
<glyph name="uni0032" format="2">
  <advance width="678"/>
  <unicode hex="0032"/>
  <outline>
    <contour>
      <point x="81" y="158" type="line"/>
      <point x="220.84816620249083" y="301.7489394584108"/>
      <point x="415.9044817670194" y="412.05797796777665"/>
      <point x="416" y="507" type="curve" smooth="yes"/>
      <point x="416.0000002864944" y="563.3588346800125"/>
      <point x="363.44424571274084" y="587.5303493483902"/>
      <point x="302" y="588" type="curve" smooth="yes"/>
      <point x="239.51522792031577" y="588.0"/>
      <point x="177.41677200049804" y="570.8706188850119"/>
      <point x="119" y="535" type="curve"/>
      <point x="59" y="684" type="line"/>
      <point x="152.9230757020728" y="733.1984442502117"/>
      <point x="234.98677307485363" y="750.0166161823054"/>
      <point x="314" y="750" type="curve" smooth="yes"/>
      <point x="480.3649697739259" y="750.0"/>
      <point x="595.9608112540338" y="676.9732923674649"/>
      <point x="596" y="526" type="curve" smooth="yes"/>
      <point x="596.0" y="335.15863894952224"/>
      <point x="406.60587575607315" y="249.6152581119731"/>
      <point x="245" y="86" type="curve"/>
    </contour>
    <contour>
      <point x="81" y="158" type="line"/>
      <point x="226" y="173" type="line"/>
      <point x="601" y="173" type="line"/>
      <point x="601" y="0" type="line"/>
      <point x="81" y="0" type="line"/>
    </contour>
  </outline>
</glyph>
<glyph name="uni0033" format="2">
  <advance width="612"/>
  <unicode hex="0033"/>
  <outline>
    <contour>
      <point x="255" y="450" type="line" smooth="yes"/>
      <point x="333.48416386292064" y="450.0"/>
      <point x="366.604237212811" y="480.5704835732458"/>
      <point x="367" y="521" type="curve" smooth="yes"/>
      <point x="367.0000002237988" y="560.7805091030756"/>
      <point x="322.5380656394089" y="581.9969401849776"/>
      <point x="268" y="582" type="curve" smooth="yes"/>
      <point x="203.21669991892577" y="582.0"/>
      <point x="157.7667884939375" y="566.6109729401318"/>
      <point x="108" y="540" type="curve"/>
      <point x="32" y="688" type="line"/>
      <point x="94.99737291176487" y="729.3121431653528"/>
      <point x="185.13803518832617" y="749.9420689568888"/>
      <point x="278" y="750" type="curve" smooth="yes"/>
      <point x="416.16822601956744" y="750.0"/>
      <point x="556.7398902410262" y="691.4498915083143"/>
      <point x="557" y="555" type="curve" smooth="yes"/>
      <point x="557.0" y="490.30413182608686"/>
      <point x="522.3896744592092" y="382.76887709158336"/>
      <point x="381" y="376" type="curve"/>
      <point x="381" y="397" type="line"/>
      <point x="503.6653327755256" y="384.30924393091044"/>
      <point x="571.1590496004554" y="309.0849090811127"/>
      <point x="571" y="223" type="curve" smooth="yes"/>
      <point x="571.0" y="86.00160183441946"/>
      <point x="462.62097049802827" y="-13.009582528179124"/>
      <point x="273" y="-13" type="curve" smooth="yes"/>
      <point x="172.0554951588394" y="-13.0"/>
      <point x="79.21611001649904" y="8.950400500351535"/>
      <point x="17" y="44" type="curve"/>
      <point x="88" y="198" type="line"/>
      <point x="131.2343973532843" y="170.8132920056443"/>
      <point x="198.3250136878551" y="152.94608654922436"/>
      <point x="263" y="153" type="curve" smooth="yes"/>
      <point x="323.9876212359515" y="153.0"/>
      <point x="373.7218160091352" y="173.08504039333596"/>
      <point x="374" y="223" type="curve" smooth="yes"/>
      <point x="373.99999974153087" y="264.40022049909857"/>
      <point x="336.2435593983295" y="288.0439665781836"/>
      <point x="270" y="288" type="curve"/>
      <point x="170" y="288" type="line"/>
      <point x="170" y="450" type="line"/>
    </contour>
  </outline>
</glyph>
<glyph name="uni0034" format="2">
  <advance width="678"/>
  <unicode hex="0034"/>
  <outline>
    <contour>
      <point x="33" y="322" type="line"/>
      <point x="649" y="322" type="line"/>
      <point x="649" y="157" type="line"/>
      <point x="33" y="157" type="line"/>
    </contour>
    <contour>
      <point x="308" y="737" type="line"/>
      <point x="571" y="737" type="line"/>
      <point x="571" y="-1" type="line"/>
      <point x="406" y="-1" type="line"/>
      <point x="406" y="610" type="line"/>
      <point x="422" y="604" type="line"/>
      <point x="217" y="305" type="line"/>
      <point x="33" y="322" type="line"/>
    </contour>
  </outline>
</glyph>
<glyph name="uni0035" format="2">
  <advance width="678"/>
  <unicode hex="0035"/>
  <outline>
    <contour>
      <point x="371" y="471" type="curve" smooth="yes"/>
      <point x="542.6518328458733" y="471.0"/>
      <point x="619.2146195254887" y="355.1029820896649"/>
      <point x="619" y="243" type="curve" smooth="yes"/>
      <point x="619.0" y="99.66635485526012"/>
      <point x="528.7121086450031" y="-15.204048733078992"/>
      <point x="331" y="-15" type="curve" smooth="yes"/>
      <point x="228.8362738759439" y="-15.0"/>
      <point x="116.60872706451286" y="3.072669265953216"/>
      <point x="32" y="67" type="curve"/>
      <point x="121" y="213" type="line"/>
      <point x="173.10709362822104" y="175.06257250710627"/>
      <point x="255.11740484181138" y="154.7140480351611"/>
      <point x="323" y="155" type="curve" smooth="yes"/>
      <point x="386.35600205943376" y="155.0"/>
      <point x="432.8262960083734" y="179.697462487095"/>
      <point x="433" y="236" type="curve" smooth="yes"/>
      <point x="433.0" y="276.0419451809863"/>
      <point x="403.8446944235943" y="314.0177787413027"/>
      <point x="331" y="314" type="curve"/>
      <point x="277.6181120904044" y="314.0"/>
      <point x="244.83897732829212" y="300.3395292744913"/>
      <point x="230" y="287" type="curve"/>
      <point x="83" y="313" type="line"/>
      <point x="122" y="737" type="line"/>
      <point x="571" y="737" type="line"/>
      <point x="571" y="559" type="line"/>
      <point x="255" y="559" type="line"/>
      <point x="276" y="582" type="line"/>
      <point x="265" y="413" type="line"/>
      <point x="235" y="434" type="line"/>
      <point x="256.10920614721755" y="450.1687641432203"/>
      <point x="302.2445110317851" y="470.2684336009732"/>
    </contour>
  </outline>
</glyph>
<glyph name="uni0036" format="2">
  <advance width="698"/>
  <unicode hex="0036"/>
  <outline>
    <contour>
      <point x="377" y="558" type="curve" smooth="yes"/>
      <point x="547.8892723864033" y="558.0"/>
      <point x="658.9458594646203" y="441.1424393603555"/>
      <point x="659" y="290" type="curve" smooth="yes"/>
      <point x="659.0" y="114.91519937377049"/>
      <point x="521.1241098788282" y="-10.808256694818908"/>
      <point x="358" y="-11" type="curve"/>
      <point x="168.61865067157714" y="-11.0"/>
      <point x="40.38971893891551" y="113.11460158008558"/>
      <point x="40" y="287" type="curve" smooth="yes"/>
      <point x="40.0" y="464.60150828842563"/>
      <point x="177.66304955045277" y="652.392113790356"/>
      <point x="336" y="737" type="curve"/>
      <point x="568" y="736" type="line"/>
      <point x="568" y="711" type="line"/>
      <point x="454.46775994075085" y="659.4974039749711"/>
      <point x="332.0780424843472" y="563.7368147027868"/>
      <point x="258" y="446" type="curve"/>
      <point x="171" y="495" type="line"/>
      <point x="229.35093257448142" y="536.7995314477815"/>
      <point x="320.4166401180051" y="557.5366246128265"/>
    </contour>
    <contour>
      <point x="236" y="282" type="curve" smooth="yes"/>
      <point x="236.0" y="211.85593190151886"/>
      <point x="286.74365148905184" y="162.67075775065751"/>
      <point x="353" y="163" type="curve" smooth="yes"/>
      <point x="420.05161358555426" y="163.0"/>
      <point x="472.36841265778105" y="211.54040040930624"/>
      <point x="473" y="282" type="curve" smooth="yes"/>
      <point x="473.0" y="352.1440680984813"/>
      <point x="422.2563485109485" y="401.3292422493425"/>
      <point x="356" y="402" type="curve" smooth="yes"/>
      <point x="288.94838641444574" y="402.0"/>
      <point x="236.63158734221884" y="353.4595995906936"/>
    </contour>
  </outline>
</glyph>
<glyph name="uni0037" format="2">
  <advance width="586"/>
  <unicode hex="0037"/>
  <outline>
    <contour>
      <point x="276" y="0" type="line"/>
      <point x="66" y="0" type="line"/>
      <point x="384" y="613" type="line"/>
      <point x="426" y="567" type="line"/>
      <point x="24" y="567" type="line"/>
      <point x="24" y="737" type="line"/>
      <point x="556" y="737" type="line"/>
      <point x="556" y="567" type="line"/>
    </contour>
  </outline>
</glyph>
<glyph name="uni0038" format="2">
  <advance width="678"/>
  <unicode hex="0038"/>
  <outline>
    <contour>
      <point x="36" y="213" type="curve" smooth="yes"/>
      <point x="36.0" y="323.94324027388416"/>
      <point x="108.45912199292889" y="396.2447250015166"/>
      <point x="221" y="402" type="curve"/>
      <point x="221" y="386" type="line"/>
      <point x="99.38966686804409" y="392.66908618722454"/>
      <point x="61.03549513279415" y="470.1422511046995"/>
      <point x="61" y="548" type="curve" smooth="yes"/>
      <point x="61.0" y="673.1578584296773"/>
      <point x="190.04990750723636" y="747.9558925737916"/>
      <point x="340" y="748" type="curve" smooth="yes"/>
      <point x="489.302010707804" y="748.0"/>
      <point x="618.3519182150401" y="673.2019658558856"/>
      <point x="618" y="548" type="curve" smooth="yes"/>
      <point x="618.0" y="506.6580210223814"/>
      <point x="585.1563658403853" y="392.39515801004217"/>
      <point x="449" y="386" type="curve"/>
      <point x="448" y="405" type="line"/>
      <point x="589.383260487904" y="383.66204119389164"/>
      <point x="643.1378666639056" y="306.11537979505414"/>
      <point x="643" y="213" type="curve" smooth="yes"/>
      <point x="643.0" y="68.44126157338383"/>
      <point x="508.5037048897776" y="-11.472169122092453"/>
      <point x="340" y="-12" type="curve"/>
      <point x="170.94737302460615" y="-12.0"/>
      <point x="36.45099651177577" y="67.91343069547626"/>
    </contour>
    <contour>
      <point x="227" y="223" type="curve" smooth="yes"/>
      <point x="226.99999972541622" y="172.0865357436706"/>
      <point x="287.94905285769084" y="148.75898395612364"/>
      <point x="340" y="149" type="curve" smooth="yes"/>
      <point x="391.1061260558763" y="149.0"/>
      <point x="452.5256660471218" y="172.32755178754695"/>
      <point x="452" y="223" type="curve" smooth="yes"/>
      <point x="451.9999997211543" y="274.703806417649"/>
      <point x="393.54269769366795" y="299.62789029533064"/>
      <point x="340" y="300" type="curve" smooth="yes"/>
      <point x="285.9316365337943" y="300.0"/>
      <point x="227.47433450630774" y="275.0759161223183"/>
    </contour>
    <contour>
      <point x="246" y="514" type="curve" smooth="yes"/>
      <point x="246.00000028128193" y="472.89990290888164"/>
      <point x="285.6340124658989" y="447.3869711295967"/>
      <point x="340" y="448" type="curve" smooth="yes"/>
      <point x="395.5142250560044" y="448.0"/>
      <point x="433.93683824279276" y="473.51293177928505"/>
      <point x="434" y="514" type="curve" smooth="yes"/>
      <point x="434.00000027957907" y="551.9109883214297"/>
      <point x="394.37013540526425" y="579.5068367343342"/>
      <point x="340" y="580" type="curve" smooth="yes"/>
      <point x="285.69302607066027" y="580.0"/>
      <point x="246.06316119634516" y="552.4041515870955"/>
    </contour>
  </outline>
</glyph>
<glyph name="uni0039" format="2">
  <advance width="682"/>
  <unicode hex="0039"/>
  <outline>
    <contour>
      <point x="321" y="203" type="curve"/>
      <point x="156.15132853590504" y="203.0"/>
      <point x="38.02770882779015" y="303.9407847280104"/>
      <point x="38" y="456" type="curve" smooth="yes"/>
      <point x="38.00000000000017" y="623.2018544924948"/>
      <point x="168.84821723517138" y="744.1730361117768"/>
      <point x="344" y="744" type="curve" smooth="yes"/>
      <point x="522.180992405831" y="744.0"/>
      <point x="641.8130121132389" y="621.1600540997429"/>
      <point x="642" y="454" type="curve" smooth="yes"/>
      <point x="642.0" y="267.40680885821433"/>
      <point x="517.016421955905" y="90.58857467638882"/>
      <point x="362" y="0" type="curve"/>
      <point x="140" y="1" type="line"/>
      <point x="140" y="26" type="line"/>
      <point x="229.2329610621203" y="72.65218501660507"/>
      <point x="336.56906419989116" y="162.68820538685657"/>
      <point x="405" y="270" type="curve"/>
      <point x="466" y="240" type="line"/>
      <point x="434.0579203563552" y="225.08739954168016"/>
      <point x="378.5488921608037" y="203.41800404435014"/>
    </contour>
    <contour>
      <point x="457" y="464" type="curve" smooth="yes"/>
      <point x="457.0" y="527.467161485293"/>
      <point x="405.0422877359729" y="571.9704740980179"/>
      <point x="342" y="572" type="curve" smooth="yes"/>
      <point x="279.2264284606823" y="572.0"/>
      <point x="227.10302918963953" y="527.4966857103894"/>
      <point x="227" y="464" type="curve" smooth="yes"/>
      <point x="227.0" y="400.53283851470724"/>
      <point x="279.1233993287912" y="356.02952590198214"/>
      <point x="342" y="356" type="curve" smooth="yes"/>
      <point x="404.7735715393177" y="356.0"/>
      <point x="456.7312837455964" y="400.5033142896108"/>
    </contour>
  </outline>
</glyph>
<glyph name="uni003A" format="2">
  <advance width="306"/>
  <unicode hex="003A"/>
  <outline>
    <contour>
      <point x="153" y="188" type="curve" smooth="yes"/>
      <point x="208.3312551128753" y="188.0"/>
      <point x="251.1682645123626" y="148.21605602627116"/>
      <point x="251" y="91" type="curve" smooth="yes"/>
      <point x="251.0" y="33.14893978408433"/>
      <point x="208.16299060051273" y="-6.635004189644519"/>
      <point x="153" y="-7" type="curve"/>
      <point x="97.66874488712469" y="-7.0"/>
      <point x="54.8317354876374" y="32.783943973728846"/>
      <point x="55" y="91" type="curve" smooth="yes"/>
      <point x="55.0" y="148.851060215916"/>
      <point x="97.83700939948727" y="188.63500418964486"/>
    </contour>
    <contour>
      <point x="153" y="547" type="curve" smooth="yes"/>
      <point x="208.3312551128753" y="547.0"/>
      <point x="251.1682645123626" y="507.21605602627113"/>
      <point x="251" y="449" type="curve" smooth="yes"/>
      <point x="251.0" y="391.14893978408423"/>
      <point x="208.16299060051273" y="351.36499581035537"/>
      <point x="153" y="352" type="curve" smooth="yes"/>
      <point x="97.66874488712469" y="352.0"/>
      <point x="54.8317354876374" y="391.78394397372887"/>
      <point x="55" y="449" type="curve" smooth="yes"/>
      <point x="55.0" y="506.851060215916"/>
      <point x="97.83700939948727" y="546.6350041896449"/>
    </contour>
  </outline>
</glyph>
<glyph name="uni003B" format="2">
  <advance width="328"/>
  <unicode hex="003B"/>
  <outline>
    <contour>
      <point x="112" y="210" type="line"/>
      <point x="295" y="210" type="line"/>
      <point x="144" y="-117" type="line"/>
      <point x="-32" y="-117" type="line"/>
    </contour>
    <contour>
      <point x="192" y="547" type="curve" smooth="yes"/>
      <point x="247.3312551128753" y="547.0"/>
      <point x="290.1682645123626" y="507.21605602627113"/>
      <point x="290" y="449" type="curve" smooth="yes"/>
      <point x="290.0" y="391.14893978408423"/>
      <point x="247.16299060051273" y="351.36499581035537"/>
      <point x="192" y="352" type="curve" smooth="yes"/>
      <point x="136.6687448871247" y="352.0"/>
      <point x="93.8317354876374" y="391.78394397372887"/>
      <point x="94" y="449" type="curve" smooth="yes"/>
      <point x="94.0" y="506.851060215916"/>
      <point x="136.83700939948727" y="546.6350041896449"/>
    </contour>
  </outline>
</glyph>
<glyph name="uni003C" format="2">
  <advance width="547"/>
  <unicode hex="003C"/>
  <outline>
    <contour>
      <point x="498" y="8" type="line"/>
      <point x="27" y="273" type="line"/>
      <point x="27" y="401" type="line"/>
      <point x="499" y="666" type="line"/>
      <point x="499" y="494" type="line"/>
      <point x="167" y="319" type="line"/>
      <point x="167" y="376" type="line"/>
      <point x="499" y="192" type="line"/>
    </contour>
  </outline>
</glyph>
<glyph name="uni003D" format="2">
  <advance width="673"/>
  <unicode hex="003D"/>
  <outline>
    <contour>
      <point x="60" y="316" type="line"/>
      <point x="613" y="316" type="line"/>
      <point x="613" y="169" type="line"/>
      <point x="60" y="169" type="line"/>
    </contour>
    <contour>
      <point x="60" y="548" type="line"/>
      <point x="613" y="548" type="line"/>
      <point x="613" y="401" type="line"/>
      <point x="60" y="401" type="line"/>
    </contour>
  </outline>
</glyph>
<glyph name="uni003E" format="2">
  <advance width="547"/>
  <unicode hex="003E"/>
  <outline>
    <contour>
      <point x="49" y="666" type="line"/>
      <point x="519" y="401" type="line"/>
      <point x="519" y="273" type="line"/>
      <point x="48" y="8" type="line"/>
      <point x="48" y="179" type="line"/>
      <point x="379" y="354" type="line"/>
      <point x="379" y="298" type="line"/>
      <point x="48" y="481" type="line"/>
    </contour>
  </outline>
</glyph>
<glyph name="uni003F" format="2">
  <advance width="499"/>
  <unicode hex="003F"/>
  <outline>
    <contour>
      <point x="145" y="253" type="line"/>
      <point x="135.38014579746113" y="309.16315910105266"/>
      <point x="147.77137472364197" y="353.58274968005287"/>
      <point x="206" y="410" type="curve" smooth="yes"/>
      <point x="280.48627265095627" y="481.3062331403956"/>
      <point x="296.1959276330975" y="501.70791740461874"/>
      <point x="297" y="533" type="curve" smooth="yes"/>
      <point x="297.0000001774993" y="570.8196478320463"/>
      <point x="264.3991167335508" y="586.6766738839501"/>
      <point x="219" y="587" type="curve" smooth="yes"/>
      <point x="168.30089214933437" y="587.0"/>
      <point x="122.51390866269969" y="570.1436526139067"/>
      <point x="85" y="543" type="curve"/>
      <point x="7" y="674" type="line"/>
      <point x="60.071273636875524" y="719.8645561924279"/>
      <point x="150.49960520030015" y="743.8078819078394"/>
      <point x="225" y="744" type="curve" smooth="yes"/>
      <point x="373.60470380527306" y="744.0"/>
      <point x="466.8711126759682" y="679.7795415161636"/>
      <point x="467" y="554" type="curve" smooth="yes"/>
      <point x="467.0" y="468.73353104559743"/>
      <point x="420.90264796160324" y="418.1698280189072"/>
      <point x="354" y="362" type="curve" smooth="yes"/>
      <point x="316.2891336462686" y="330.3173625873306"/>
      <point x="288.1433175041119" y="299.335233442085"/>
      <point x="288" y="253" type="curve"/>
    </contour>
    <contour>
      <point x="217" y="187" type="curve" smooth="yes"/>
      <point x="272.33125511287534" y="187.0"/>
      <point x="315.1682645123626" y="147.21605602627116"/>
      <point x="315" y="89" type="curve" smooth="yes"/>
      <point x="315.0" y="31.148939784084327"/>
      <point x="272.1629906005127" y="-8.635004189644519"/>
      <point x="217" y="-8" type="curve" smooth="yes"/>
      <point x="161.6687448871247" y="-8.0"/>
      <point x="118.8317354876374" y="31.783943973728846"/>
      <point x="119" y="89" type="curve" smooth="yes"/>
      <point x="119.0" y="146.851060215916"/>
      <point x="161.83700939948727" y="186.63500418964486"/>
    </contour>
  </outline>
</glyph>
<glyph name="uni0040" format="2">
  <advance width="979"/>
  <unicode hex="0040"/>
  <outline>
    <contour>
      <point x="648" y="399" type="curve"/>
      <point x="576" y="207" type="line" smooth="yes"/>
      <point x="553.7614127460716" y="142.08932142710387"/>
      <point x="497.2316932833537" y="85.58076768902475"/>
      <point x="414" y="86" type="curve" smooth="yes"/>
      <point x="303.6031871544333" y="86.0"/>
      <point x="234.03154185865665" y="172.38081613044793"/>
      <point x="234" y="299" type="curve" smooth="yes"/>
      <point x="233.99999999999997" y="438.1278001493762"/>
      <point x="356.17830152284705" y="564.9550063823931"/>
      <point x="479" y="565" type="curve" smooth="yes"/>
      <point x="589.3766649942502" y="565.0"/>
      <point x="641.0739233979465" y="490.9586912131447"/>
    </contour>
    <contour>
      <point x="480" y="446" type="curve" smooth="yes"/>
      <point x="427.27991806410444" y="446.0"/>
      <point x="376.5602350989904" y="388.7724693135399"/>
      <point x="377" y="297" type="curve" smooth="yes"/>
      <point x="377.0" y="245.52867624581785"/>
      <point x="397.6310709726934" y="209.5124376167043"/>
      <point x="439" y="209" type="curve" smooth="yes"/>
      <point x="489.06656340405806" y="209.0"/>
      <point x="537.0688476468774" y="266.598148410971"/>
      <point x="537" y="363" type="curve" smooth="yes"/>
      <point x="537.0" y="409.8514308319955"/>
      <point x="519.1029507680375" y="445.666647695134"/>
    </contour>
    <contour>
      <point x="30" y="314" type="curve" smooth="yes"/>
      <point x="29.999999999999957" y="570.6046544452847"/>
      <point x="238.97503072448723" y="770.5253443112059"/>
      <point x="487" y="770" type="curve" smooth="yes"/>
      <point x="730.5722053059856" y="770.0000000000001"/>
      <point x="926.7827649902242" y="586.9662913030262"/>
      <point x="927" y="350" type="curve" smooth="yes"/>
      <point x="927.0" y="183.0161630852907"/>
      <point x="839.634885303036" y="77.59606279135573"/>
      <point x="713" y="78" type="curve" smooth="yes"/>
      <point x="591.2145786458394" y="78.0"/>
      <point x="515.6966586618923" y="178.83453917107082"/>
      <point x="530" y="265" type="curve" smooth="yes"/>
      <point x="561" y="452" type="line"/>
      <point x="579" y="452" type="line"/>
      <point x="595" y="552" type="line"/>
      <point x="705" y="552" type="line"/>
      <point x="661" y="285" type="line" smooth="yes"/>
      <point x="648.2810593266074" y="208.0246467961189"/>
      <point x="675.0569948941159" y="177.92166180012794"/>
      <point x="724" y="178" type="curve" smooth="yes"/>
      <point x="792.4274004624051" y="178.0"/>
      <point x="810.6762603149631" y="248.04212351373968"/>
      <point x="811" y="348" type="curve" smooth="yes"/>
      <point x="811.0" y="531.9442927504667"/>
      <point x="658.2287734545766" y="657.0889365277571"/>
      <point x="487" y="657" type="curve"/>
      <point x="305.98566334736614" y="657.0"/>
      <point x="152.04837159565005" y="515.4432755307345"/>
      <point x="152" y="314" type="curve" smooth="yes"/>
      <point x="151.99999778646196" y="111.24530343103103"/>
      <point x="307.41874117432496" y="-15.800333445381739"/>
      <point x="500" y="-16" type="curve" smooth="yes"/>
      <point x="559.6853072263009" y="-16.0"/>
      <point x="644.9671283334972" y="1.851639980537417"/>
      <point x="702" y="39" type="curve"/>
      <point x="750" y="-57" type="line"/>
      <point x="673.701573279117" y="-112.5831687555646"/>
      <point x="573.9361501501546" y="-127.85019554214111"/>
      <point x="496" y="-128" type="curve"/>
      <point x="212.21588280601037" y="-128.0"/>
      <point x="29.642028343482707" y="59.09267607862199"/>
    </contour>
  </outline>
</glyph>
<glyph name="uni0041" format="2">
  <advance width="786"/>
  <unicode hex="0041"/>
  <anchor x="400" y="724" name="top"/>
  <anchor x="683" y="0" name="bottom"/>
  <outline>
    <contour>
      <point x="272" y="737" type="line"/>
      <point x="448" y="737" type="line"/>
      <point x="201" y="0" type="line"/>
      <point x="10" y="0" type="line"/>
    </contour>
    <contour>
      <point x="272" y="307" type="line"/>
      <point x="520" y="307" type="line"/>
      <point x="587" y="145" type="line"/>
      <point x="201" y="145" type="line"/>
    </contour>
    <contour>
      <point x="337" y="737" type="line"/>
      <point x="524" y="737" type="line"/>
      <point x="775" y="-1" type="line"/>
      <point x="587" y="-1" type="line"/>
    </contour>
  </outline>
</glyph>
<glyph name="uni0042" format="2">
  <advance width="693"/>
  <unicode hex="0042"/>
  <anchor x="346" y="737" name="top"/>
  <anchor x="346" y="-167" name="bottom"/>
  <outline>
    <contour>
      <point x="60" y="737" type="line"/>
      <point x="226" y="737" type="line"/>
      <point x="226" y="0" type="line"/>
      <point x="60" y="0" type="line"/>
    </contour>
    <contour>
      <point x="156" y="0" type="line"/>
      <point x="156" y="155" type="line"/>
      <point x="390" y="155" type="line" smooth="yes"/>
      <point x="433.1991653842525" y="155.0"/>
      <point x="472.4621035949787" y="178.23113571496648"/>
      <point x="473" y="225" type="curve" smooth="yes"/>
      <point x="472.99999973934854" y="276.2751126024708"/>
      <point x="435.59616702814407" y="297.25726176840755"/>
      <point x="384" y="297" type="curve"/>
      <point x="187" y="297" type="line"/>
      <point x="187" y="447" type="line"/>
      <point x="359" y="447" type="line" smooth="yes"/>
      <point x="415.88740902631866" y="447.0"/>
      <point x="453.35610232846847" y="470.3225713616109"/>
      <point x="454" y="520" type="curve" smooth="yes"/>
      <point x="454.0000002403366" y="567.2786752987042"/>
      <point x="417.85335997095524" y="585.1604618476717"/>
      <point x="366" y="585" type="curve"/>
      <point x="156" y="585" type="line"/>
      <point x="156" y="737" type="line"/>
      <point x="398" y="737" type="line" smooth="yes"/>
      <point x="539.7124568841612" y="737.0"/>
      <point x="628.3796155841445" y="660.4612432823783"/>
      <point x="628" y="544" type="curve" smooth="yes"/>
      <point x="628.0" y="477.92886947889156"/>
      <point x="587.5592839496524" y="389.2167807524187"/>
      <point x="466" y="376" type="curve"/>
      <point x="483" y="409" type="line"/>
      <point x="601.1425601057863" y="380.69493870810254"/>
      <point x="652.4973007315738" y="299.70273438508406"/>
      <point x="653" y="216" type="curve" smooth="yes"/>
      <point x="653.0" y="94.62872684295648"/>
      <point x="559.5663918089354" y="-0.47641111645489786"/>
      <point x="426" y="0" type="curve" smooth="yes"/>
    </contour>
  </outline>
</glyph>
<glyph name="uni0044" format="2">
  <advance width="740"/>
  <unicode hex="0044"/>
  <anchor x="327" y="723" name="top"/>
  <outline>
    <contour>
      <point x="60" y="737" type="line"/>
      <point x="226" y="737" type="line"/>
      <point x="226" y="0" type="line"/>
      <point x="60" y="0" type="line"/>
    </contour>
    <contour>
      <point x="156" y="585" type="line"/>
      <point x="156" y="737" type="line"/>
      <point x="341" y="737" type="line" smooth="yes"/>
      <point x="554.457746660549" y="737.0"/>
      <point x="695.3012682734593" y="576.0313092906131"/>
      <point x="696" y="382" type="curve" smooth="yes"/>
      <point x="696.0" y="177.4581708661095"/>
      <point x="565.0380454978498" y="-0.6432777228442887"/>
      <point x="333" y="0" type="curve" smooth="yes"/>
      <point x="156" y="0" type="line"/>
      <point x="164" y="155" type="line"/>
      <point x="341" y="155" type="line" smooth="yes"/>
      <point x="462.6965270519764" y="155.0"/>
      <point x="528.5330710175248" y="256.6224608838677"/>
      <point x="529" y="378" type="curve" smooth="yes"/>
      <point x="529.0000006350785" y="502.9318330380912"/>
      <point x="437.8237087676058" y="584.8222747908682"/>
      <point x="326" y="585" type="curve" smooth="yes"/>
    </contour>
  </outline>
</glyph>
<glyph name="uni0045" format="2">
  <advance width="591"/>
  <unicode hex="0045"/>
  <anchor x="318" y="725" name="top"/>
  <anchor x="429" y="0" name="bottom"/>
  <outline>
    <contour>
      <point x="60" y="737" type="line"/>
      <point x="226" y="737" type="line"/>
      <point x="226" y="0" type="line"/>
      <point x="60" y="0" type="line"/>
    </contour>
    <contour>
      <point x="156" y="585" type="line"/>
      <point x="156" y="737" type="line"/>
      <point x="556" y="737" type="line"/>
      <point x="556" y="585" type="line"/>
    </contour>
    <contour>
      <point x="156" y="155" type="line"/>
      <point x="556" y="155" type="line"/>
      <point x="556" y="0" type="line"/>
      <point x="156" y="0" type="line"/>
    </contour>
    <contour>
      <point x="180" y="456" type="line"/>
      <point x="409" y="456" type="line"/>
      <point x="409" y="300" type="line"/>
      <point x="180" y="300" type="line"/>
    </contour>
  </outline>
</glyph>
<glyph name="uni0046" format="2">
  <advance width="548"/>
  <unicode hex="0046"/>
  <anchor x="274" y="737" name="top"/>
  <anchor x="274" y="-167" name="bottom"/>
  <outline>
    <contour>
      <point x="60" y="737" type="line"/>
      <point x="226" y="737" type="line"/>
      <point x="226" y="0" type="line"/>
      <point x="60" y="0" type="line"/>
    </contour>
    <contour>
      <point x="180" y="436" type="line"/>
      <point x="419" y="436" type="line"/>
      <point x="419" y="283" type="line"/>
      <point x="180" y="283" type="line"/>
    </contour>
    <contour>
      <point x="156" y="737" type="line"/>
      <point x="528" y="737" type="line"/>
      <point x="528" y="583" type="line"/>
      <point x="156" y="583" type="line"/>
    </contour>
  </outline>
</glyph>
<glyph name="uni0048" format="2">
  <advance width="739"/>
  <unicode hex="0048"/>
  <anchor x="369" y="737" name="top"/>
  <anchor x="369" y="-167" name="bottom"/>
  <outline>
    <contour>
      <point x="60" y="737" type="line"/>
      <point x="226" y="737" type="line"/>
      <point x="226" y="0" type="line"/>
      <point x="60" y="0" type="line"/>
    </contour>
    <contour>
      <point x="180" y="457" type="line"/>
      <point x="549" y="457" type="line"/>
      <point x="549" y="300" type="line"/>
      <point x="180" y="300" type="line"/>
    </contour>
    <contour>
      <point x="514" y="737" type="line"/>
      <point x="679" y="737" type="line"/>
      <point x="679" y="-1" type="line"/>
      <point x="514" y="-1" type="line"/>
    </contour>
  </outline>
</glyph>
<glyph name="uni0049" format="2">
  <advance width="286"/>
  <unicode hex="0049"/>
  <anchor x="143" y="725" name="top"/>
  <anchor x="143" y="-1" name="bottom"/>
  <outline>
    <contour>
      <point x="60" y="737" type="line"/>
      <point x="226" y="737" type="line"/>
      <point x="226" y="0" type="line"/>
      <point x="60" y="0" type="line"/>
    </contour>
  </outline>
</glyph>
<glyph name="uni004A" format="2">
  <advance width="595"/>
  <unicode hex="004A"/>
  <anchor x="453" y="737" name="top"/>
  <anchor x="451" y="0" name="bottom"/>
  <outline>
    <contour>
      <point x="114" y="221" type="line"/>
      <point x="148.61311237603695" y="183.36755269796168"/>
      <point x="198.66924793263195" y="151.52295226920145"/>
      <point x="257" y="152" type="curve" smooth="yes"/>
      <point x="317.58441418730274" y="152.0"/>
      <point x="368.59625432497126" y="180.21164812884453"/>
      <point x="369" y="311" type="curve" smooth="yes"/>
      <point x="369" y="737" type="line"/>
      <point x="535" y="737" type="line"/>
      <point x="535" y="248" type="line" smooth="yes"/>
      <point x="535.0" y="67.69460549549086"/>
      <point x="445.1460790751629" y="-21.41784702037205"/>
      <point x="279" y="-22" type="curve"/>
      <point x="171.55029844994175" y="-22.0"/>
      <point x="77.22435393640575" y="7.016951564208192"/>
      <point x="7" y="91" type="curve"/>
    </contour>
  </outline>
</glyph>
<glyph name="uni004B" format="2">
  <advance width="696"/>
  <unicode hex="004B"/>
  <anchor x="318" y="-1" name="bottom"/>
  <outline>
    <contour>
      <point x="692" y="0" type="line"/>
      <point x="472" y="0" type="line"/>
      <point x="196" y="366" type="line"/>
      <point x="196" y="402" type="line"/>
      <point x="479" y="737" type="line"/>
      <point x="692" y="737" type="line"/>
      <point x="393" y="379" type="line"/>
      <point x="394" y="407" type="line"/>
    </contour>
    <contour>
      <point x="60" y="738" type="line"/>
      <point x="226" y="738" type="line"/>
      <point x="226" y="0" type="line"/>
      <point x="60" y="0" type="line"/>
    </contour>
  </outline>
</glyph>
<glyph name="uni004C" format="2">
  <advance width="556"/>
  <unicode hex="004C"/>
  <anchor x="155" y="718" name="top"/>
  <anchor x="296" y="-1" name="bottom"/>
  <outline>
    <contour>
      <point x="60" y="737" type="line"/>
      <point x="226" y="737" type="line"/>
      <point x="226" y="0" type="line"/>
      <point x="60" y="0" type="line"/>
    </contour>
    <contour>
      <point x="156" y="159" type="line"/>
      <point x="534" y="159" type="line"/>
      <point x="534" y="0" type="line"/>
      <point x="156" y="0" type="line"/>
    </contour>
  </outline>
</glyph>
<glyph name="uni004D" format="2">
  <advance width="802"/>
  <unicode hex="004D"/>
  <anchor x="401" y="737" name="top"/>
  <anchor x="401" y="-167" name="bottom"/>
  <outline>
    <contour>
      <point x="60" y="737" type="line"/>
      <point x="259" y="737" type="line"/>
      <point x="419" y="422" type="line"/>
      <point x="393" y="421" type="line"/>
      <point x="537" y="737" type="line"/>
      <point x="742" y="737" type="line"/>
      <point x="742" y="-1" type="line"/>
      <point x="576" y="-1" type="line"/>
      <point x="576" y="522" type="line"/>
      <point x="628" y="466" type="line"/>
      <point x="576" y="466" type="line"/>
      <point x="441" y="195" type="line"/>
      <point x="354" y="195" type="line"/>
      <point x="223" y="462" type="line"/>
      <point x="171" y="462" type="line"/>
      <point x="223" y="517" type="line"/>
      <point x="223" y="0" type="line"/>
      <point x="60" y="0" type="line"/>
    </contour>
  </outline>
</glyph>
<glyph name="uni004E" format="2">
  <advance width="724"/>
  <unicode hex="004E"/>
  <anchor x="365" y="723" name="top"/>
  <anchor x="348" y="1" name="bottom"/>
  <outline>
    <contour>
      <point x="60" y="737" type="line"/>
      <point x="226" y="737" type="line"/>
      <point x="226" y="0" type="line"/>
      <point x="60" y="0" type="line"/>
    </contour>
    <contour>
      <point x="499" y="737" type="line"/>
      <point x="664" y="737" type="line"/>
      <point x="664" y="0" type="line"/>
      <point x="499" y="0" type="line"/>
    </contour>
    <contour>
      <point x="174" y="737" type="line"/>
      <point x="289" y="737" type="line"/>
      <point x="499" y="312" type="line"/>
      <point x="551" y="312" type="line"/>
      <point x="551" y="0" type="line"/>
      <point x="488" y="0" type="line"/>
      <point x="226" y="508" type="line"/>
      <point x="174" y="508" type="line"/>
    </contour>
  </outline>
</glyph>
<glyph name="uni0054" format="2">
  <advance width="634"/>
  <unicode hex="0054"/>
  <anchor x="321" y="718" name="top"/>
  <anchor x="298" y="0" name="bottom"/>
  <outline>
    <contour>
      <point x="234" y="705" type="line"/>
      <point x="400" y="705" type="line"/>
      <point x="400" y="0" type="line"/>
      <point x="234" y="0" type="line"/>
    </contour>
    <contour>
      <point x="21" y="737" type="line"/>
      <point x="613" y="737" type="line"/>
      <point x="613" y="576" type="line"/>
      <point x="21" y="576" type="line"/>
    </contour>
  </outline>
</glyph>
<glyph name="uni0055" format="2">
  <advance width="709"/>
  <unicode hex="0055"/>
  <anchor x="354" y="719" name="top"/>
  <anchor x="391" y="0" name="bottom"/>
  <outline>
    <contour>
      <point x="484" y="279" type="curve" smooth="yes"/>
      <point x="484" y="737" type="line"/>
      <point x="649" y="737" type="line"/>
      <point x="649" y="276" type="line" smooth="yes"/>
      <point x="649.0" y="80.70288666400458"/>
      <point x="533.4154581642449" y="-21.528147042246474"/>
      <point x="355" y="-22" type="curve"/>
      <point x="176.00698099217033" y="-22.0"/>
      <point x="60.422439156415464" y="80.23103370625105"/>
      <point x="60" y="276" type="curve" smooth="yes"/>
      <point x="60" y="737" type="line"/>
      <point x="226" y="737" type="line"/>
      <point x="226" y="298" type="line" smooth="yes"/>
      <point x="226.0" y="186.61369866912526"/>
      <point x="290.989482838514" y="140.6005468171669"/>
      <point x="361" y="141" type="curve" smooth="yes"/>
      <point x="427.1368682393993" y="141.0"/>
      <point x="483.2974135576704" y="188.21380204390863"/>
    </contour>
  </outline>
</glyph>
<glyph name="uni0056" format="2">
  <advance width="734"/>
  <unicode hex="0056"/>
  <anchor x="367" y="737" name="top"/>
  <anchor x="367" y="-167" name="bottom"/>
  <outline>
    <contour>
      <point x="466" y="-1" type="line"/>
      <point x="263" y="-1" type="line"/>
      <point x="11" y="737" type="line"/>
      <point x="211" y="737" type="line"/>
      <point x="391" y="156" type="line"/>
      <point x="352" y="156" type="line"/>
      <point x="530" y="736" type="line"/>
      <point x="729" y="736" type="line"/>
    </contour>
  </outline>
</glyph>
<glyph name="uni0057" format="2">
  <advance width="928"/>
  <unicode hex="0057"/>
  <anchor x="459" y="720" name="top"/>
  <outline>
    <contour>
      <point x="360" y="-1" type="line"/>
      <point x="179" y="-1" type="line"/>
      <point x="15" y="737" type="line"/>
      <point x="216" y="737" type="line"/>
      <point x="303" y="221" type="line"/>
      <point x="270" y="220" type="line"/>
      <point x="376" y="736" type="line"/>
      <point x="537" y="736" type="line"/>
      <point x="646" y="224" type="line"/>
      <point x="612" y="224" type="line"/>
      <point x="704" y="736" type="line"/>
      <point x="894" y="736" type="line"/>
      <point x="727" y="-2" type="line"/>
      <point x="546" y="-2" type="line"/>
      <point x="446" y="484" type="line"/>
      <point x="469" y="484" type="line"/>
    </contour>
  </outline>
</glyph>
<glyph name="uni0058" format="2">
  <advance width="700"/>
  <unicode hex="0058"/>
  <anchor x="350" y="737" name="top"/>
  <anchor x="350" y="-167" name="bottom"/>
  <outline>
    <contour>
      <point x="694" y="0" type="line"/>
      <point x="487" y="0" type="line"/>
      <point x="317" y="310" type="line"/>
      <point x="373" y="311" type="line"/>
      <point x="210" y="0" type="line"/>
      <point x="6" y="0" type="line"/>
      <point x="254" y="442" type="line"/>
      <point x="257" y="339" type="line"/>
      <point x="15" y="737" type="line"/>
      <point x="229" y="737" type="line"/>
      <point x="386" y="454" type="line"/>
      <point x="330" y="453" type="line"/>
      <point x="477" y="737" type="line"/>
      <point x="683" y="737" type="line"/>
      <point x="446" y="345" type="line"/>
      <point x="447" y="445" type="line"/>
    </contour>
  </outline>
</glyph>
<glyph name="uni0059" format="2">
  <advance width="661"/>
  <unicode hex="0059"/>
  <anchor x="334" y="725" name="top"/>
  <outline>
    <contour>
      <point x="416" y="0" type="line"/>
      <point x="250" y="0" type="line"/>
      <point x="250" y="302" type="line"/>
      <point x="269" y="223" type="line"/>
      <point x="4" y="737" type="line"/>
      <point x="210" y="737" type="line"/>
      <point x="358" y="445" type="line"/>
      <point x="320" y="444" type="line"/>
      <point x="454" y="737" type="line"/>
      <point x="656" y="737" type="line"/>
      <point x="397" y="232" type="line"/>
      <point x="416" y="312" type="line"/>
    </contour>
  </outline>
</glyph>
<glyph name="uni005A" format="2">
  <advance width="641"/>
  <unicode hex="005A"/>
  <anchor x="329" y="724" name="top"/>
  <outline>
    <contour>
      <point x="390" y="620" type="line"/>
      <point x="414" y="572" type="line"/>
      <point x="55" y="572" type="line"/>
      <point x="55" y="737" type="line"/>
      <point x="585" y="737" type="line"/>
      <point x="585" y="593" type="line"/>
      <point x="242" y="118" type="line"/>
      <point x="218" y="165" type="line"/>
      <point x="602" y="165" type="line"/>
      <point x="602" y="0" type="line"/>
      <point x="41" y="0" type="line"/>
      <point x="41" y="144" type="line"/>
    </contour>
  </outline>
</glyph>
<glyph name="uni005B" format="2">
  <advance width="412"/>
  <unicode hex="005B"/>
  <outline>
    <contour>
      <point x="60" y="824" type="line"/>
      <point x="400" y="824" type="line"/>
      <point x="400" y="678" type="line"/>
      <point x="217" y="678" type="line"/>
      <point x="217" y="-34" type="line"/>
      <point x="400" y="-34" type="line"/>
      <point x="400" y="-186" type="line"/>
      <point x="60" y="-186" type="line"/>
    </contour>
  </outline>
</glyph>
<glyph name="uni005C" format="2">
  <advance width="605"/>
  <unicode hex="005C"/>
  <outline>
    <contour>
      <point x="166" y="817" type="line"/>
      <point x="0" y="817" type="line"/>
      <point x="439" y="-188" type="line"/>
      <point x="605" y="-188" type="line"/>
    </contour>
  </outline>
</glyph>
<glyph name="uni005D" format="2">
  <advance width="412"/>
  <unicode hex="005D"/>
  <outline>
    <contour>
      <point x="352" y="824" type="line"/>
      <point x="12" y="824" type="line"/>
      <point x="12" y="678" type="line"/>
      <point x="195" y="678" type="line"/>
      <point x="195" y="-34" type="line"/>
      <point x="12" y="-34" type="line"/>
      <point x="12" y="-186" type="line"/>
      <point x="352" y="-186" type="line"/>
    </contour>
  </outline>
</glyph>
<glyph name="uni005E" format="2">
  <advance width="678"/>
  <unicode hex="005E"/>
  <outline>
    <contour>
      <point x="674" y="276" type="line"/>
      <point x="411" y="737" type="line"/>
      <point x="284" y="737" type="line"/>
      <point x="10" y="265" type="line"/>
      <point x="189" y="265" type="line"/>
      <point x="376" y="610" type="line"/>
      <point x="306" y="609" type="line"/>
      <point x="498" y="276" type="line"/>
    </contour>
  </outline>
</glyph>
<glyph name="uni005F" format="2">
  <advance width="764"/>
  <unicode hex="005F"/>
  <outline>
    <contour>
      <point x="60" y="0" type="line"/>
      <point x="704" y="0" type="line"/>
      <point x="704" y="-147" type="line"/>
      <point x="60" y="-147" type="line"/>
    </contour>
  </outline>
</glyph>
<glyph name="uni0060" format="2">
  <advance width="316"/>
  <unicode hex="0060"/>
  <anchor x="199" y="589" name="_top"/>
  <outline>
    <contour>
      <point x="-1" y="761" type="line"/>
      <point x="174" y="761" type="line"/>
      <point x="291" y="629" type="line"/>
      <point x="147" y="629" type="line"/>
    </contour>
  </outline>
</glyph>
<glyph name="uni0061" format="2">
  <advance width="607"/>
  <unicode hex="0061"/>
  <anchor x="302" y="590" name="top"/>
  <anchor x="473" y="0" name="bottom"/>
  <outline>
    <contour>
      <point x="385" y="0" type="line"/>
      <point x="385" y="336" type="line" smooth="yes"/>
      <point x="385.0" y="417.6654922607398"/>
      <point x="324.1811841466036" y="448.6555527688005"/>
      <point x="261" y="448" type="curve"/>
      <point x="197.1883392779007" y="448.0"/>
      <point x="143.36550449139338" y="417.11551388304815"/>
      <point x="111" y="395" type="curve"/>
      <point x="34" y="531" type="line"/>
      <point x="89.77862852715079" y="574.872370741892"/>
      <point x="168.2387216638665" y="608.9989436561693"/>
      <point x="273" y="609" type="curve" smooth="yes"/>
      <point x="422.3474896865182" y="609.0"/>
      <point x="547.458916097709" y="540.1285332845285"/>
      <point x="547" y="366" type="curve" smooth="yes"/>
      <point x="547" y="0" type="line"/>
    </contour>
    <contour>
      <point x="403" y="310" type="curve"/>
      <point x="403" y="59" type="line"/>
      <point x="371.345612984683" y="18.86432112119263"/>
      <point x="316.0508950918031" y="-11.417568384124735"/>
      <point x="245" y="-11" type="curve" smooth="yes"/>
      <point x="128.1067536783789" y="-11.0"/>
      <point x="54.00529735502511" y="64.2345587411337"/>
      <point x="54" y="171" type="curve" smooth="yes"/>
      <point x="54.0" y="286.569568909"/>
      <point x="153.530664449683" y="354.44594276632563"/>
      <point x="276" y="354" type="curve" smooth="yes"/>
      <point x="341.1649397894188" y="354.0"/>
      <point x="386.5835950147444" y="335.91921994554235"/>
    </contour>
    <contour>
      <point x="313" y="229" type="curve" smooth="yes"/>
      <point x="266.38808443273547" y="229.0"/>
      <point x="229.36407540164132" y="206.5124696379051"/>
      <point x="229" y="169" type="curve" smooth="yes"/>
      <point x="229.0" y="133.91501850703406"/>
      <point x="260.5159411798489" y="112.83520266332525"/>
      <point x="297" y="113" type="curve" smooth="yes"/>
      <point x="348.4728514843972" y="113.0"/>
      <point x="384.5793553316816" y="147.58278635643032"/>
      <point x="385" y="185" type="curve" smooth="yes"/>
      <point x="385.0" y="215.3989810364244"/>
      <point x="347.3784350012395" y="228.35032140784384"/>
    </contour>
  </outline>
</glyph>
<glyph name="uni0062" format="2">
  <advance width="699"/>
  <unicode hex="0062"/>
  <anchor x="349" y="589" name="top"/>
  <anchor x="349" y="-167" name="bottom"/>
  <outline>
    <contour>
      <point x="60" y="737" type="line"/>
      <point x="219" y="737" type="line"/>
      <point x="219" y="409" type="line"/>
      <point x="188" y="409" type="line"/>
      <point x="188" y="0" type="line"/>
      <point x="60" y="0" type="line"/>
    </contour>
    <contour>
      <point x="88" y="195" type="curve"/>
      <point x="178" y="500" type="line"/>
      <point x="200.16635738727143" y="547.0505001978523"/>
      <point x="258.46181779344346" y="608.1543052063304"/>
      <point x="366" y="608" type="curve" smooth="yes"/>
      <point x="533.9614857132335" y="608.0000000000001"/>
      <point x="658.4328741797096" y="466.1070667785365"/>
      <point x="659" y="293" type="curve" smooth="yes"/>
      <point x="659.0000000000001" y="121.90597730834395"/>
      <point x="515.1727966553749" y="-22.093027469251126"/>
      <point x="349" y="-22" type="curve" smooth="yes"/>
      <point x="197.05154902348295" y="-22.0"/>
      <point x="118.28406262918588" y="79.96779525784987"/>
    </contour>
    <contour>
      <point x="353" y="137" type="curve" smooth="yes"/>
      <point x="434.890095127247" y="137.0"/>
      <point x="493.590259265642" y="201.32227410945538"/>
      <point x="493" y="293" type="curve" smooth="yes"/>
      <point x="492.99999999999983" y="384.73141873074195"/>
      <point x="434.2998357862702" y="449.05369041653296"/>
      <point x="353" y="449" type="curve"/>
      <point x="287.0958927990968" y="449.0"/>
      <point x="216.07172230143976" y="391.67153572476064"/>
      <point x="216" y="293" type="curve" smooth="yes"/>
      <point x="216.00000000000009" y="202.3001604517642"/>
      <point x="271.0381817140338" y="136.94630958346633"/>
    </contour>
  </outline>
</glyph>
<glyph name="uni0064" format="2">
  <advance width="700"/>
  <unicode hex="0064"/>
  <anchor x="350" y="589" name="top"/>
  <anchor x="350" y="-167" name="bottom"/>
  <outline>
    <contour>
      <point x="498" y="0" type="line"/>
      <point x="498" y="464" type="line"/>
      <point x="480" y="527" type="line"/>
      <point x="480" y="737" type="line"/>
      <point x="639" y="737" type="line"/>
      <point x="639" y="0" type="line"/>
    </contour>
    <contour>
      <point x="612" y="393" type="curve"/>
      <point x="521" y="88" type="line"/>
      <point x="498.8336426127285" y="40.949499802147635"/>
      <point x="440.5381822065565" y="-20.15430520633049"/>
      <point x="333" y="-20" type="curve" smooth="yes"/>
      <point x="165.0385142867666" y="-20.0"/>
      <point x="40.567125820290244" y="121.89293322146386"/>
      <point x="41" y="295" type="curve" smooth="yes"/>
      <point x="41.0" y="466.09402269165605"/>
      <point x="184.8272033446251" y="610.093027469251"/>
      <point x="351" y="610" type="curve" smooth="yes"/>
      <point x="502.94845097651705" y="610.0"/>
      <point x="581.7159373708139" y="508.0322047421502"/>
    </contour>
    <contour>
      <point x="347" y="451" type="curve"/>
      <point x="265.109904872753" y="451.0"/>
      <point x="206.40974073435805" y="386.6777258905446"/>
      <point x="206" y="295" type="curve" smooth="yes"/>
      <point x="206.0" y="203.26858126925822"/>
      <point x="264.70016421372975" y="138.946309583467"/>
      <point x="347" y="139" type="curve" smooth="yes"/>
      <point x="412.90410720090324" y="139.0"/>
      <point x="483.9282776985604" y="196.32846427523958"/>
      <point x="484" y="295" type="curve" smooth="yes"/>
      <point x="484.0" y="385.6998395482356"/>
      <point x="428.96181828596633" y="451.05369041653364"/>
    </contour>
  </outline>
</glyph>
<glyph name="uni0065" format="2">
  <advance width="671"/>
  <unicode hex="0065"/>
  <anchor x="348" y="589" name="top"/>
  <anchor x="495" y="14" name="bottom"/>
  <outline>
    <contour>
      <point x="127" y="371" type="line"/>
      <point x="538" y="371" type="line"/>
      <point x="538" y="232" type="line"/>
      <point x="127" y="232" type="line"/>
    </contour>
    <contour>
      <point x="382" y="138" type="curve" smooth="yes"/>
      <point x="428.0926060478929" y="138.0"/>
      <point x="465.9810614207127" y="150.975067512649"/>
      <point x="505" y="172" type="curve"/>
      <point x="557" y="37" type="line"/>
      <point x="532.8626834969332" y="8.829324778940727"/>
      <point x="452.8084067048312" y="-23.137962377433432"/>
      <point x="369" y="-23" type="curve" smooth="yes"/>
      <point x="175.80572345729982" y="-23.0"/>
      <point x="40.533605888331465" y="116.40811420390881"/>
      <point x="41" y="295" type="curve" smooth="yes"/>
      <point x="41.0" y="469.957811096058"/>
      <point x="171.86072737256805" y="610.0690918105765"/>
      <point x="355" y="610" type="curve" smooth="yes"/>
      <point x="513.2573231343163" y="610.0"/>
      <point x="630.1941901333327" y="479.1061444257989"/>
      <point x="630" y="316" type="curve" smooth="yes"/>
      <point x="630.0" y="293.314281972635"/>
      <point x="625.5398893636568" y="256.01149570163193"/>
      <point x="616" y="232" type="curve"/>
      <point x="460" y="232" type="line"/>
      <point x="460" y="310" type="line" smooth="yes"/>
      <point x="460.0" y="397.5104224986005"/>
      <point x="420.8885277583343" y="462.5058636864736"/>
      <point x="343" y="462" type="curve"/>
      <point x="245.9174306560579" y="462.0"/>
      <point x="201.9546166162412" y="377.19984710488484"/>
      <point x="202" y="306" type="curve" smooth="yes"/>
      <point x="202.0" y="210.76526951839764"/>
      <point x="260.449867499344" y="138.20695177453513"/>
    </contour>
  </outline>
</glyph>
<glyph name="uni0066" format="2">
  <advance width="516"/>
  <unicode hex="0066"/>
  <anchor x="258" y="589" name="top"/>
  <anchor x="258" y="-167" name="bottom"/>
  <outline>
    <contour>
      <point x="320" y="-2" type="line"/>
      <point x="320" y="552" type="line" smooth="yes"/>
      <point x="320.0" y="579.4516457089263"/>
      <point x="330.053382680462" y="587.2041073886905"/>
      <point x="355" y="587" type="curve" smooth="yes"/>
      <point x="377.45908976877723" y="587.0"/>
      <point x="424.0715049020966" y="587.1372199240645"/>
      <point x="446" y="586" type="curve"/>
      <point x="446" y="737" type="line"/>
      <point x="430.2702171564227" y="738.031579478307"/>
      <point x="393.047244817623" y="738.6436357315877"/>
      <point x="320" y="739" type="curve" smooth="yes"/>
      <point x="201.2342771915366" y="739.0"/>
      <point x="161.23261550609496" y="692.9126387330347"/>
      <point x="161" y="601" type="curve" smooth="yes"/>
      <point x="161" y="-2" type="line"/>
    </contour>
    <contour>
      <point x="24" y="363" type="line"/>
      <point x="492" y="363" type="line"/>
      <point x="492" y="515" type="line"/>
      <point x="24" y="515" type="line"/>
    </contour>
  </outline>
</glyph>
<glyph name="uni0067" format="2">
  <advance width="603"/>
  <unicode hex="0067"/>
  <anchor x="313" y="590" name="top"/>
  <outline>
    <contour>
      <point x="388" y="109" type="curve" smooth="yes"/>
      <point x="388" y="220" type="line"/>
      <point x="420" y="320" type="line"/>
      <point x="420" y="589" type="line"/>
      <point x="543" y="589" type="line"/>
      <point x="543" y="110" type="line" smooth="yes"/>
      <point x="543.0" y="-52.56561537535532"/>
      <point x="444.0264259098039" y="-139.06520029643548"/>
      <point x="281" y="-139" type="curve" smooth="yes"/>
      <point x="172.550586742022" y="-139.0"/>
      <point x="65.43017386391665" y="-108.53938214716626"/>
      <point x="12" y="-52" type="curve"/>
      <point x="113" y="73" type="line"/>
      <point x="147.07385833061608" y="39.84099802301079"/>
      <point x="215.1260504206485" y="13.840800930744109"/>
      <point x="278" y="14" type="curve" smooth="yes"/>
      <point x="346.4136823006463" y="14.0"/>
      <point x="387.3709978860729" y="42.345875257636976"/>
    </contour>
    <contour>
      <point x="526" y="417" type="curve"/>
      <point x="461" y="202" type="line"/>
      <point x="443.11507044898156" y="164.0372952273169"/>
      <point x="369.4948540503901" y="115.02805386304553"/>
      <point x="287" y="115" type="curve"/>
      <point x="158.94502508552253" y="115.0"/>
      <point x="47.46516209155081" y="215.81998692961494"/>
      <point x="48" y="355" type="curve" smooth="yes"/>
      <point x="48.0" y="494.0497423981788"/>
      <point x="172.5092088683262" y="600.3375324883141"/>
      <point x="300" y="600" type="curve" smooth="yes"/>
      <point x="413.41831815316016" y="600.0"/>
      <point x="501.6250370444243" y="507.65106467007985"/>
    </contour>
    <contour>
      <point x="308" y="453" type="curve"/>
      <point x="259.25315705862965" y="453.0"/>
      <point x="215.900423067607" y="416.33971714658276"/>
      <point x="215" y="356" type="curve" smooth="yes"/>
      <point x="215.0" y="295.50624408709984"/>
      <point x="258.35273409573614" y="258.84596283200676"/>
      <point x="308" y="259" type="curve" smooth="yes"/>
      <point x="347.2919061509351" y="259.0"/>
      <point x="395.9561819008104" y="290.94675979556837"/>
      <point x="396" y="356" type="curve" smooth="yes"/>
      <point x="396.0" y="415.9065712783512"/>
      <point x="351.8509078365141" y="453.1540371679937"/>
    </contour>
  </outline>
</glyph>
<glyph name="uni0069" format="2">
  <advance width="279"/>
  <unicode hex="0069"/>
  <anchor x="139" y="0" name="bottom"/>
  <anchor x="140" y="589" name="top"/>
  <outline>
    <contour>
      <point x="60" y="0" type="line"/>
      <point x="60" y="589" type="line"/>
      <point x="219" y="589" type="line"/>
      <point x="219" y="0" type="line"/>
    </contour>
    <contour>
      <point x="45" y="710" type="curve" smooth="yes"/>
      <point x="45.0" y="755.6014040015871"/>
      <point x="82.1924563560693" y="782.1540939989607"/>
      <point x="140" y="782" type="curve" smooth="yes"/>
      <point x="196.97240401634804" y="782.0"/>
      <point x="234.16486037241737" y="755.4473100026265"/>
      <point x="234" y="710" type="curve" smooth="yes"/>
      <point x="234.0" y="664.3985959984127"/>
      <point x="196.81429130576333" y="637.8459060010393"/>
      <point x="140" y="637" type="curve"/>
      <point x="83.02759598365196" y="637.0"/>
      <point x="45.83513962758265" y="663.5526899973734"/>
    </contour>
  </outline>
</glyph>
<glyph name="uni006A" format="2">
  <advance width="334"/>
  <unicode hex="006A"/>
  <anchor x="196" y="588" name="top"/>
  <anchor x="195" y="0" name="bottom"/>
  <outline>
    <contour>
      <point x="110" y="-122" type="curve" smooth="yes"/>
      <point x="66.01830934610697" y="-122.0"/>
      <point x="25.09609987247923" y="-119.79389752911618"/>
      <point x="3" y="-116" type="curve"/>
      <point x="3" y="30" type="line"/>
      <point x="16.61283444138045" y="28.321818549725904"/>
      <point x="45.68821656666379" y="28.146667151070137"/>
      <point x="60" y="29" type="curve"/>
      <point x="98.47684588843464" y="29.0"/>
      <point x="115.23827379559415" y="40.87387378859341"/>
      <point x="115" y="85" type="curve" smooth="yes"/>
      <point x="115" y="589" type="line"/>
      <point x="274" y="589" type="line"/>
      <point x="274" y="38" type="line" smooth="yes"/>
      <point x="274.0" y="-83.70374636495843"/>
      <point x="239.07977258397733" y="-122.44495017310297"/>
    </contour>
    <contour>
      <point x="101" y="710" type="curve" smooth="yes"/>
      <point x="101.0" y="755.6014040015871"/>
      <point x="138.1924563560693" y="782.1540939989607"/>
      <point x="195" y="782" type="curve" smooth="yes"/>
      <point x="251.97240401634804" y="782.0"/>
      <point x="289.16486037241737" y="755.4473100026265"/>
      <point x="289" y="710" type="curve" smooth="yes"/>
      <point x="289.0" y="664.3985959984127"/>
      <point x="251.81429130576333" y="637.8459060010393"/>
      <point x="195" y="637" type="curve"/>
      <point x="138.02759598365196" y="637.0"/>
      <point x="100.83513962758265" y="663.5526899973734"/>
    </contour>
  </outline>
</glyph>
<glyph name="uni006B" format="2">
  <advance width="635"/>
  <unicode hex="006B"/>
  <anchor x="285" y="0" name="bottom"/>
  <outline>
    <contour>
      <point x="60" y="0" type="line"/>
      <point x="60" y="735" type="line"/>
      <point x="219" y="735" type="line"/>
      <point x="219" y="0" type="line"/>
    </contour>
    <contour>
      <point x="621" y="0" type="line"/>
      <point x="409" y="0" type="line"/>
      <point x="193" y="301" type="line"/>
      <point x="193" y="334" type="line"/>
      <point x="417" y="589" type="line"/>
      <point x="632" y="589" type="line"/>
      <point x="370" y="296" type="line"/>
      <point x="373" y="348" type="line"/>
    </contour>
  </outline>
</glyph>
<glyph name="uni006C" format="2">
  <advance width="279"/>
  <unicode hex="006C"/>
  <anchor x="141" y="719" name="top"/>
  <anchor x="111" y="1" name="bottom"/>
  <outline>
    <contour>
      <point x="219" y="737" type="line"/>
      <point x="219" y="0" type="line"/>
      <point x="60" y="0" type="line"/>
      <point x="60" y="737" type="line"/>
    </contour>
  </outline>
</glyph>
<glyph name="uni006D" format="2">
  <advance width="931"/>
  <unicode hex="006D"/>
  <anchor x="465" y="589" name="top"/>
  <anchor x="465" y="-167" name="bottom"/>
  <outline>
    <contour>
      <point x="60" y="0" type="line"/>
      <point x="60" y="590" type="line"/>
      <point x="219" y="590" type="line"/>
      <point x="219" y="0" type="line"/>
    </contour>
    <contour>
      <point x="386" y="0" type="line"/>
      <point x="386" y="376" type="line" smooth="yes"/>
      <point x="386.0" y="433.36523918684736"/>
      <point x="353.87547831528633" y="463.30689820447816"/>
      <point x="311" y="463" type="curve"/>
      <point x="273.0559318786897" y="463.0"/>
      <point x="219.23920305655977" y="444.9427080606859"/>
      <point x="219" y="368" type="curve"/>
      <point x="95" y="373" type="line"/>
      <point x="129.35900514647204" y="492.48277028311446"/>
      <point x="216.12389845715637" y="609.7639266012862"/>
      <point x="340" y="610" type="curve" smooth="yes"/>
      <point x="455.33220445928623" y="610.0"/>
      <point x="544.9916240684202" y="535.8680363534104"/>
      <point x="545" y="405" type="curve" smooth="yes"/>
      <point x="545" y="0" type="line"/>
    </contour>
    <contour>
      <point x="712" y="0" type="line"/>
      <point x="712" y="376" type="line" smooth="yes"/>
      <point x="712.0" y="433.36523918684725"/>
      <point x="679.8754783152864" y="463.306898204478"/>
      <point x="637" y="463" type="curve"/>
      <point x="599.0559318786896" y="463.0"/>
      <point x="545.2392030565599" y="444.9427080606861"/>
      <point x="545" y="368" type="curve"/>
      <point x="421" y="373" type="line"/>
      <point x="417.17829688689545" y="495.7554024196496"/>
      <point x="542.1238984571563" y="609.7639266012862"/>
      <point x="666" y="610" type="curve" smooth="yes"/>
      <point x="781.3322044592861" y="610.0"/>
      <point x="870.9916240684202" y="535.8680363534104"/>
      <point x="871" y="405" type="curve" smooth="yes"/>
      <point x="871" y="0" type="line"/>
    </contour>
  </outline>
</glyph>
<glyph name="uni006E" format="2">
  <advance width="635"/>
  <unicode hex="006E"/>
  <anchor x="305" y="589" name="top"/>
  <anchor x="296" y="-2" name="bottom"/>
  <outline>
    <contour>
      <point x="60" y="0" type="line"/>
      <point x="60" y="590" type="line"/>
      <point x="219" y="590" type="line"/>
      <point x="219" y="0" type="line"/>
    </contour>
    <contour>
      <point x="416" y="0" type="line"/>
      <point x="416" y="354" type="line" smooth="yes"/>
      <point x="416.0" y="418.7259353112812"/>
      <point x="368.5882246539201" y="458.15696393969444"/>
      <point x="321" y="458" type="curve"/>
      <point x="271.3610309321589" y="458.0"/>
      <point x="219.35407334828795" y="423.0926423254696"/>
      <point x="219" y="346" type="curve"/>
      <point x="95" y="351" type="line"/>
      <point x="124.38478847622716" y="443.1245785967677"/>
      <point x="210.98672895812922" y="608.4645956186594"/>
      <point x="349" y="608" type="curve" smooth="yes"/>
      <point x="477.82497368508905" y="608.0"/>
      <point x="574.651238857315" y="519.868539182004"/>
      <point x="575" y="390" type="curve" smooth="yes"/>
      <point x="575" y="0" type="line"/>
    </contour>
  </outline>
</glyph>
<glyph name="uni006F" format="2">
  <advance width="701"/>
  <unicode hex="006F"/>
  <anchor x="352" y="589" name="top"/>
  <outline>
    <contour>
      <point x="41" y="293" type="curve" smooth="yes"/>
      <point x="41.0" y="465.3248849195046"/>
      <point x="183.631572528675" y="612.5389628645121"/>
      <point x="351" y="612" type="curve" smooth="yes"/>
      <point x="538.4618367676057" y="612.0"/>
      <point x="661.0239403365345" y="464.7859220549926"/>
      <point x="661" y="293" type="curve" smooth="yes"/>
      <point x="661.0" y="120.62174584035782"/>
      <point x="518.420269104522" y="-26.73105225753551"/>
      <point x="351" y="-27" type="curve"/>
      <point x="163.4801060586564" y="-27.0"/>
      <point x="40.97605966346566" y="120.35279809789333"/>
    </contour>
    <contour>
      <point x="206" y="293" type="curve" smooth="yes"/>
      <point x="206.0" y="201.87272584445458"/>
      <point x="269.0821879355394" y="138.85993362680514"/>
      <point x="351" y="139" type="curve" smooth="yes"/>
      <point x="432.35076566501925" y="139.0"/>
      <point x="495.4329535257199" y="202.01279462535123"/>
      <point x="495" y="293" type="curve" smooth="yes"/>
      <point x="495.0" y="384.066822145252"/>
      <point x="431.86384559371504" y="446.9479769801716"/>
      <point x="351" y="447" type="curve" smooth="yes"/>
      <point x="269.7032008051614" y="447.0"/>
      <point x="206.56704647366527" y="384.11884275897575"/>
    </contour>
  </outline>
</glyph>
<glyph name="uni0070" format="2">
  <advance width="700"/>
  <unicode hex="0070"/>
  <anchor x="350" y="589" name="top"/>
  <anchor x="350" y="-167" name="bottom"/>
  <outline>
    <contour>
      <point x="202" y="589" type="line"/>
      <point x="202" y="125" type="line"/>
      <point x="220" y="63" type="line"/>
      <point x="219" y="-119" type="line"/>
      <point x="60" y="-119" type="line"/>
      <point x="60" y="589" type="line"/>
    </contour>
    <contour>
      <point x="87" y="197" type="curve"/>
      <point x="178" y="502" type="line"/>
      <point x="200.06830631149188" y="548.8101159696893"/>
      <point x="259.02606451699614" y="607.9488995947031"/>
      <point x="366" y="607" type="curve" smooth="yes"/>
      <point x="532.2899900449551" y="606.9558211429907"/>
      <point x="658.3947095011454" y="469.16888224882314"/>
      <point x="659" y="298" type="curve" smooth="yes"/>
      <point x="658.9543335421216" y="126.1106542815501"/>
      <point x="515.8599133167769" y="-19.93029671656683"/>
      <point x="349" y="-19" type="curve" smooth="yes"/>
      <point x="197.28099167835808" y="-18.95969226787224"/>
      <point x="118.26682955480356" y="82.40184990652274"/>
    </contour>
    <contour>
      <point x="352" y="146" type="curve" smooth="yes"/>
      <point x="432.8311553168" y="145.97852529757375"/>
      <point x="492.60765818554495" y="207.79475530651348"/>
      <point x="493" y="298" type="curve" smooth="yes"/>
      <point x="493.02405531867333" y="388.5446399811332"/>
      <point x="433.2818438300852" y="450.39319906397316"/>
      <point x="353" y="451" type="curve" smooth="yes"/>
      <point x="287.9683481480637" y="451.0172771917746"/>
      <point x="216.0561492549171" y="396.07733217572354"/>
      <point x="216" y="299" type="curve" smooth="yes"/>
      <point x="215.97622259672278" y="209.50143842769205"/>
      <point x="272.081314484023" y="146.60776714877784"/>
    </contour>
  </outline>
</glyph>
<glyph name="uni0071" format="2">
  <advance width="700"/>
  <unicode hex="0071"/>
  <anchor x="350" y="589" name="top"/>
  <anchor x="350" y="-167" name="bottom"/>
  <outline>
    <contour>
      <point x="640" y="-119" type="line"/>
      <point x="481" y="-119" type="line"/>
      <point x="481" y="180" type="line"/>
      <point x="512" y="180" type="line"/>
      <point x="512" y="589" type="line"/>
      <point x="640" y="589" type="line"/>
    </contour>
    <contour>
      <point x="612" y="394" type="curve"/>
      <point x="521" y="89" type="line"/>
      <point x="498.984359455267" y="42.26941266404809"/>
      <point x="439.8076846945962" y="-16.16817906003334"/>
      <point x="333" y="-16" type="curve"/>
      <point x="164.84056228850775" y="-16.000000000000334"/>
      <point x="40.56712582029036" y="126.37996808235712"/>
      <point x="41" y="300" type="curve" smooth="yes"/>
      <point x="40.999999999999794" y="470.0824803435022"/>
      <point x="185.80979195261654" y="611.4160814522284"/>
      <point x="351" y="611" type="curve" smooth="yes"/>
      <point x="502.94845097651705" y="611.0"/>
      <point x="581.7159373708139" y="509.0322047421502"/>
    </contour>
    <contour>
      <point x="347" y="452" type="curve"/>
      <point x="266.169267317859" y="452.0"/>
      <point x="206.40974072229332" y="390.16799826503336"/>
      <point x="206" y="300" type="curve" smooth="yes"/>
      <point x="206.00000000000017" y="209.45525494314558"/>
      <point x="265.75952666992595" y="147.6232556004896"/>
      <point x="347" y="147" type="curve" smooth="yes"/>
      <point x="412.0313090796153" y="147.0"/>
      <point x="483.9282776985601" y="201.958981412784"/>
      <point x="484" y="300" type="curve" smooth="yes"/>
      <point x="483.99999999999983" y="389.4986602451389"/>
      <point x="427.8773104310993" y="452.37674439951104"/>
    </contour>
  </outline>
</glyph>
<glyph name="uni0072" format="2">
  <advance width="426"/>
  <unicode hex="0072"/>
  <anchor x="233" y="589" name="top"/>
  <outline>
    <contour>
      <point x="60" y="0" type="line"/>
      <point x="60" y="590" type="line"/>
      <point x="219" y="590" type="line"/>
      <point x="219" y="0" type="line"/>
    </contour>
    <contour>
      <point x="402" y="431" type="line"/>
      <point x="386.36280672350387" y="434.13353198311694"/>
      <point x="367.301807868488" y="436.2562596774282"/>
      <point x="349" y="436" type="curve"/>
      <point x="284.03670733215404" y="436.0"/>
      <point x="218.41964448952757" y="401.8664652511915"/>
      <point x="219" y="322" type="curve"/>
      <point x="95" y="341" type="line"/>
      <point x="124.38478847622716" y="433.12457859676755"/>
      <point x="210.98672895812922" y="598.4645956186591"/>
      <point x="349" y="598" type="curve" smooth="yes"/>
      <point x="369.2932474079762" y="598.0"/>
      <point x="393.28418941143946" y="591.6917678684877"/>
      <point x="402" y="586" type="curve"/>
    </contour>
  </outline>
</glyph>
<glyph name="uni0073" format="2">
  <advance width="546"/>
  <unicode hex="0073"/>
  <anchor x="283" y="589" name="top"/>
  <anchor x="271" y="1" name="bottom"/>
  <outline>
    <contour>
      <point x="517" y="525" type="curve"/>
      <point x="419" y="410" type="line"/>
      <point x="378.0759643365538" y="443.17838783810953"/>
      <point x="334.8554142369747" y="467.29040901054674"/>
      <point x="283" y="467" type="curve"/>
      <point x="244.5872349928267" y="467.0"/>
      <point x="216.95759100596115" y="454.8929479605354"/>
      <point x="217" y="429" type="curve" smooth="yes"/>
      <point x="217.0" y="400.38954708639517"/>
      <point x="241.89582684323264" y="387.03905796034064"/>
      <point x="321" y="365" type="curve" smooth="yes"/>
      <point x="464.85609752038033" y="325.0543756439366"/>
      <point x="504.20606413641053" y="258.8759807798667"/>
      <point x="504" y="173" type="curve" smooth="yes"/>
      <point x="504.0" y="65.73275258200766"/>
      <point x="414.57834887642474" y="-19.105710206513805"/>
      <point x="277" y="-19" type="curve" smooth="yes"/>
      <point x="194.26866413794022" y="-19.0"/>
      <point x="96.55703219759769" y="2.293031807213474"/>
      <point x="24" y="78" type="curve"/>
      <point x="125" y="190" type="line"/>
      <point x="166.26810399600637" y="150.90994484151287"/>
      <point x="232.1308388063598" y="129.0913866522901"/>
      <point x="279" y="129" type="curve" smooth="yes"/>
      <point x="317.8144452783292" y="129.0"/>
      <point x="340.73502593852857" y="142.38993860769548"/>
      <point x="340" y="170" type="curve" smooth="yes"/>
      <point x="340.0" y="194.30829028422275"/>
      <point x="317.456887653098" y="208.40847177121913"/>
      <point x="239" y="232" type="curve" smooth="yes"/>
      <point x="105.24927637462906" y="270.92326658648807"/>
      <point x="54.57446666059286" y="321.84928706291"/>
      <point x="55" y="419" type="curve" smooth="yes"/>
      <point x="55.0" y="524.5624805394443"/>
      <point x="137.9092830660431" y="612.3613577042958"/>
      <point x="294" y="612" type="curve" smooth="yes"/>
      <point x="368.91572757661163" y="612.0"/>
      <point x="446.03078153855915" y="589.1213296043613"/>
    </contour>
  </outline>
</glyph>
<glyph name="uni0074" format="2">
  <advance width="496"/>
  <unicode hex="0074"/>
  <anchor x="297" y="1" name="bottom"/>
  <outline>
    <contour>
      <point x="312" y="750" type="line"/>
      <point x="312" y="193" type="line" smooth="yes"/>
      <point x="312.0" y="159.03836692244164"/>
      <point x="322.6767505154547" y="152.42192103832474"/>
      <point x="376" y="152" type="curve" smooth="yes"/>
      <point x="390.10081336590315" y="152.0"/>
      <point x="423.7963594097533" y="151.40532792697832"/>
      <point x="438" y="153" type="curve"/>
      <point x="438" y="0" type="line"/>
      <point x="407.4590776740515" y="-1.6100432058970202"/>
      <point x="316.0700509927265" y="-3.2392988488427905"/>
      <point x="296" y="-3" type="curve" smooth="yes"/>
      <point x="196.1434680201266" y="-3.0"/>
      <point x="153.8288262852601" y="34.35907707878342"/>
      <point x="154" y="129" type="curve" smooth="yes"/>
      <point x="154" y="697" type="line"/>
    </contour>
    <contour>
      <point x="23" y="588" type="line"/>
      <point x="472" y="588" type="line"/>
      <point x="472" y="439" type="line"/>
      <point x="23" y="439" type="line"/>
    </contour>
  </outline>
</glyph>
<glyph name="uni0075" format="2">
  <advance width="635"/>
  <unicode hex="0075"/>
  <anchor x="317" y="589" name="top"/>
  <anchor x="496" y="-1" name="bottom"/>
  <outline>
    <contour>
      <point x="575" y="589" type="line"/>
      <point x="575" y="-1" type="line"/>
      <point x="416" y="-1" type="line"/>
      <point x="416" y="589" type="line"/>
    </contour>
    <contour>
      <point x="219" y="589" type="line"/>
      <point x="219" y="235" type="line" smooth="yes"/>
      <point x="219.0" y="170.2740646887188"/>
      <point x="266.4117753460799" y="130.84303606030565"/>
      <point x="314" y="130" type="curve" smooth="yes"/>
      <point x="363.6389690678411" y="130.0"/>
      <point x="415.64592665171193" y="164.9073576745303"/>
      <point x="416" y="243" type="curve"/>
      <point x="540" y="238" type="line"/>
      <point x="510.6152115237728" y="145.87542140323228"/>
      <point x="424.0132710418708" y="-19.464595618659303"/>
      <point x="286" y="-20" type="curve"/>
      <point x="157.17502631491098" y="-20.0"/>
      <point x="60.34876114268505" y="68.131460817996"/>
      <point x="60" y="199" type="curve" smooth="yes"/>
      <point x="60" y="589" type="line"/>
    </contour>
  </outline>
</glyph>
<glyph name="uni0076" format="2">
  <advance width="627"/>
  <unicode hex="0076"/>
  <anchor x="313" y="589" name="top"/>
  <anchor x="313" y="-167" name="bottom"/>
  <outline>
    <contour>
      <point x="433" y="589" type="line"/>
      <point x="617" y="589" type="line"/>
      <point x="409" y="0" type="line"/>
      <point x="222" y="0" type="line"/>
      <point x="12" y="590" type="line"/>
      <point x="202" y="590" type="line"/>
      <point x="337" y="161" type="line"/>
      <point x="303" y="161" type="line"/>
    </contour>
  </outline>
</glyph>
<glyph name="uni0077" format="2">
  <advance width="872"/>
  <unicode hex="0077"/>
  <anchor x="430" y="589" name="top"/>
  <outline>
    <contour>
      <point x="359" y="0" type="line"/>
      <point x="179" y="0" type="line"/>
      <point x="15" y="590" type="line"/>
      <point x="198" y="590" type="line"/>
      <point x="292" y="181" type="line"/>
      <point x="276" y="181" type="line"/>
      <point x="356" y="589" type="line"/>
      <point x="510" y="589" type="line"/>
      <point x="597" y="173" type="line"/>
      <point x="579" y="173" type="line"/>
      <point x="664" y="588" type="line"/>
      <point x="839" y="588" type="line"/>
      <point x="675" y="-1" type="line"/>
      <point x="495" y="-1" type="line"/>
      <point x="416" y="360" type="line"/>
      <point x="437" y="360" type="line"/>
    </contour>
  </outline>
</glyph>
<glyph name="uni0078" format="2">
  <advance width="627"/>
  <unicode hex="0078"/>
  <anchor x="313" y="589" name="top"/>
  <anchor x="313" y="-167" name="bottom"/>
  <outline>
    <contour>
      <point x="620" y="0" type="line"/>
      <point x="430" y="0" type="line"/>
      <point x="282" y="239" type="line"/>
      <point x="344" y="239" type="line"/>
      <point x="196" y="0" type="line"/>
      <point x="7" y="0" type="line"/>
      <point x="239" y="366" type="line"/>
      <point x="241" y="268" type="line"/>
      <point x="19" y="589" type="line"/>
      <point x="214" y="589" type="line"/>
      <point x="351" y="372" type="line"/>
      <point x="290" y="371" type="line"/>
      <point x="417" y="589" type="line"/>
      <point x="612" y="589" type="line"/>
      <point x="392" y="261" type="line"/>
      <point x="393" y="359" type="line"/>
    </contour>
  </outline>
</glyph>
<glyph name="uni0079" format="2">
  <advance width="625"/>
  <unicode hex="0079"/>
  <anchor x="323" y="589" name="top"/>
  <outline>
    <contour>
      <point x="437" y="589" type="line"/>
      <point x="621" y="589" type="line"/>
      <point x="330" y="-119" type="line"/>
      <point x="157" y="-119" type="line"/>
      <point x="263" y="139" type="line"/>
      <point x="265" y="31" type="line"/>
      <point x="9" y="590" type="line"/>
      <point x="207" y="590" type="line"/>
      <point x="351" y="244" type="line"/>
      <point x="308" y="243" type="line"/>
    </contour>
  </outline>
</glyph>
<glyph name="uni007A" format="2">
  <advance width="563"/>
  <unicode hex="007A"/>
  <anchor x="290" y="589" name="top"/>
  <outline>
    <contour>
      <point x="305" y="451" type="line"/>
      <point x="315" y="431" type="line"/>
      <point x="48" y="431" type="line"/>
      <point x="48" y="589" type="line"/>
      <point x="509" y="589" type="line"/>
      <point x="509" y="446" type="line"/>
      <point x="272" y="144" type="line"/>
      <point x="264" y="161" type="line"/>
      <point x="518" y="161" type="line"/>
      <point x="518" y="0" type="line"/>
      <point x="44" y="0" type="line"/>
      <point x="44" y="129" type="line"/>
    </contour>
  </outline>
</glyph>
<glyph name="uni007B" format="2">
  <advance width="454"/>
  <unicode hex="007B"/>
  <outline>
    <contour>
      <point x="162" y="616" type="curve" smooth="yes"/>
      <point x="167.67944834872227" y="722.4877756623234"/>
      <point x="196.91179219678554" y="828.779285539379"/>
      <point x="432" y="831" type="curve"/>
      <point x="432" y="664" type="line"/>
      <point x="282.22882959596086" y="651.7293410429533"/>
      <point x="311.70274554586615" y="552.155037352233"/>
      <point x="312" y="467" type="curve" smooth="yes"/>
      <point x="312.0" y="400.6735837078976"/>
      <point x="288.2953699909188" y="328.6294125621903"/>
      <point x="152" y="296" type="curve"/>
      <point x="152" y="335" type="line"/>
      <point x="295.28384289870166" y="293.3006493517533"/>
      <point x="321.2803558599889" y="222.92461673116924"/>
      <point x="322" y="155" type="curve" smooth="yes"/>
      <point x="322.0" y="69.2727965129827"/>
      <point x="286.1991061284246" y="-24.80658238862597"/>
      <point x="432" y="-43" type="curve"/>
      <point x="432" y="-199" type="line"/>
      <point x="188.93299797648712" y="-196.38600090640264"/>
      <point x="160.0423491496905" y="-93.17109833962304"/>
      <point x="159" y="12" type="curve" smooth="yes"/>
      <point x="157.70860392802481" y="123.18729284837906"/>
      <point x="187.25208074765678" y="236.72263927877015"/>
      <point x="28" y="237" type="curve"/>
      <point x="28" y="401" type="line"/>
      <point x="174.26262981185633" y="401.0"/>
      <point x="155.93418340655342" y="508.8507263260989"/>
    </contour>
  </outline>
</glyph>
<glyph name="uni007C" format="2">
  <advance width="277"/>
  <unicode hex="007C"/>
  <outline>
    <contour>
      <point x="217" y="-186" type="line"/>
      <point x="60" y="-186" type="line"/>
      <point x="60" y="824" type="line"/>
      <point x="217" y="824" type="line"/>
    </contour>
  </outline>
</glyph>
<glyph name="uni007D" format="2">
  <advance width="454"/>
  <unicode hex="007D"/>
  <outline>
    <contour>
      <point x="426" y="401" type="curve"/>
      <point x="426" y="237" type="line"/>
      <point x="266.94079389794285" y="237.0"/>
      <point x="296.4842707175749" y="123.46465356960893"/>
      <point x="295" y="12" type="curve" smooth="yes"/>
      <point x="293.7767298261799" y="-93.32175372129436"/>
      <point x="264.88608099938324" y="-196.53665628807394"/>
      <point x="22" y="-199" type="curve"/>
      <point x="22" y="-43" type="line"/>
      <point x="168.37274470659392" y="-25.173815557708974"/>
      <point x="132.57185083501855" y="68.90556334389969"/>
      <point x="132" y="155" type="curve" smooth="yes"/>
      <point x="132.0" y="223.11498115757155"/>
      <point x="157.99651296128724" y="293.49101377815555"/>
      <point x="301" y="335" type="curve"/>
      <point x="301" y="296" type="line"/>
      <point x="165.1496777682091" y="327.65657632955225"/>
      <point x="141.4450477591279" y="399.70074747525956"/>
      <point x="142" y="467" type="curve" smooth="yes"/>
      <point x="142.0" y="552.8661607503642"/>
      <point x="171.47391594990532" y="652.4404644410845"/>
      <point x="22" y="664" type="curve"/>
      <point x="22" y="831" type="line"/>
      <point x="257.4006279032129" y="829.4935886857905"/>
      <point x="286.6329717512762" y="723.202078808735"/>
      <point x="292" y="616" type="curve" smooth="yes"/>
      <point x="297.74144287197817" y="508.34984755750077"/>
      <point x="279.41299646667517" y="400.4991212314019"/>
    </contour>
  </outline>
</glyph>
<glyph name="uni007E" format="2">
  <advance width="711"/>
  <unicode hex="007E"/>
  <outline>
    <contour>
      <point x="37" y="251" type="curve"/>
      <point x="171" y="220" type="line"/>
      <point x="185.3676978581358" y="306.29649999501805"/>
      <point x="198.5886611368773" y="375.78125630434045"/>
      <point x="242" y="376" type="curve" smooth="yes"/>
      <point x="269.12232960219376" y="376.0"/>
      <point x="282.6888568629632" y="349.88106699686966"/>
      <point x="319" y="314" type="curve" smooth="yes"/>
      <point x="350.26587902620935" y="283.2060657475785"/>
      <point x="396.26101366127347" y="234.64161569032217"/>
      <point x="473" y="235" type="curve" smooth="yes"/>
      <point x="580.6830742670467" y="235.0"/>
      <point x="630.7342995223075" y="325.41504181817436"/>
      <point x="660" y="502" type="curve"/>
      <point x="523" y="525" type="line"/>
      <point x="502.5145025435991" y="430.32684046505716"/>
      <point x="495.321328912415" y="387.01812652817955"/>
      <point x="461" y="387" type="curve"/>
      <point x="440.9416771890502" y="387.0"/>
      <point x="428.57746190566417" y="402.3448495393505"/>
      <point x="380" y="456" type="curve" smooth="yes"/>
      <point x="348.1611894538353" y="491.0297973226308"/>
      <point x="304.2095105585771" y="530.7412825718574"/>
      <point x="242" y="531" type="curve" smooth="yes"/>
      <point x="118.36716883743587" y="531.0"/>
      <point x="59.43317743157235" y="413.7383099212873"/>
    </contour>
  </outline>
</glyph>
<glyph name="uni00A1" format="2">
  <advance width="313"/>
  <unicode hex="00A1"/>
  <outline>
    <contour>
      <point x="239" y="-147" type="line"/>
      <point x="74" y="-147" type="line"/>
      <point x="74" y="332" type="line"/>
      <point x="239" y="332" type="line"/>
    </contour>
    <contour>
      <point x="157" y="402" type="curve"/>
      <point x="101.66874488712469" y="402.0"/>
      <point x="58.8317354876374" y="441.78394397372887"/>
      <point x="58" y="500" type="curve" smooth="yes"/>
      <point x="58.0" y="557.8510602159157"/>
      <point x="100.83700939948719" y="597.6350041896445"/>
      <point x="157" y="598" type="curve" smooth="yes"/>
      <point x="212.3312551128753" y="598.0"/>
      <point x="255.16826451236267" y="558.2160560262712"/>
      <point x="255" y="500" type="curve" smooth="yes"/>
      <point x="255.0" y="442.148939784084"/>
      <point x="212.16299060051273" y="402.36499581035514"/>
    </contour>
  </outline>
</glyph>
<glyph name="uni00A2" format="2">
  <advance width="589"/>
  <unicode hex="00A2"/>
  <outline>
    <contour>
      <point x="562" y="538" type="curve"/>
      <point x="488" y="396" type="line"/>
      <point x="448.68528063268354" y="430.57822609415666"/>
      <point x="412.91840163717455" y="443.16244482412674"/>
      <point x="366" y="443" type="curve"/>
      <point x="279.4398948493896" y="443.0"/>
      <point x="212.09869850344742" y="384.35138217934184"/>
      <point x="212" y="293" type="curve" smooth="yes"/>
      <point x="211.99999949381024" y="198.2209789339008"/>
      <point x="293.80347010399885" y="138.16394330023476"/>
      <point x="377" y="138" type="curve" smooth="yes"/>
      <point x="423.69437917326024" y="138.0"/>
      <point x="465.25198536062265" y="155.11388291435375"/>
      <point x="500" y="179" type="curve"/>
      <point x="567" y="38" type="line"/>
      <point x="516.0758196164775" y="-6.294921008529791"/>
      <point x="442.7266656347161" y="-23.531761771228908"/>
      <point x="377" y="-24" type="curve"/>
      <point x="179.425796305731" y="-24.0"/>
      <point x="37.74750383240723" y="103.70722777387836"/>
      <point x="37" y="293" type="curve" smooth="yes"/>
      <point x="37.0" y="469.7132776021423"/>
      <point x="169.5287865943996" y="608.597807365979"/>
      <point x="369" y="609" type="curve" smooth="yes"/>
      <point x="433.0030307836386" y="609.0"/>
      <point x="512.0153964770379" y="587.9649662635475"/>
    </contour>
    <contour>
      <point x="277" y="79" type="line"/>
      <point x="432" y="79" type="line"/>
      <point x="432" y="-130" type="line"/>
      <point x="277" y="-130" type="line"/>
    </contour>
    <contour>
      <point x="277" y="729" type="line"/>
      <point x="432" y="729" type="line"/>
      <point x="432" y="520" type="line"/>
      <point x="277" y="520" type="line"/>
    </contour>
  </outline>
</glyph>
<glyph name="uni00A3" format="2">
  <advance width="604"/>
  <unicode hex="00A3"/>
  <outline>
    <contour>
      <point x="109" y="536" type="line"/>
      <point x="135" y="538" type="line"/>
      <point x="273" y="520" type="line"/>
      <point x="273" y="0" type="line"/>
      <point x="109" y="0" type="line"/>
    </contour>
    <contour>
      <point x="35" y="153" type="line"/>
      <point x="571" y="153" type="line"/>
      <point x="571" y="0" type="line"/>
      <point x="35" y="0" type="line"/>
    </contour>
    <contour>
      <point x="35" y="442" type="line"/>
      <point x="419" y="442" type="line"/>
      <point x="419" y="287" type="line"/>
      <point x="35" y="287" type="line"/>
    </contour>
    <contour>
      <point x="367" y="750" type="curve" smooth="yes"/>
      <point x="454.90322166034855" y="750.0"/>
      <point x="525.5629149793562" y="717.4423328819362"/>
      <point x="579" y="668" type="curve"/>
      <point x="512" y="538" type="line"/>
      <point x="455.65625997293307" y="574.6680423801785"/>
      <point x="415.39196029972715" y="593.4784429413071"/>
      <point x="367" y="593" type="curve"/>
      <point x="307.7852410820229" y="593.0"/>
      <point x="273.22637119582424" y="568.9760388553689"/>
      <point x="273" y="520" type="curve"/>
      <point x="109" y="536" type="line"/>
      <point x="109.0" y="679.1701234067585"/>
      <point x="218.0865587147684" y="749.960189138138"/>
    </contour>
  </outline>
</glyph>
<glyph name="uni00A5" format="2">
  <advance width="659"/>
  <unicode hex="00A5"/>
  <outline>
    <contour>
      <point x="415" y="0" type="line"/>
      <point x="250" y="0" type="line"/>
      <point x="250" y="334" type="line"/>
      <point x="269" y="254" type="line"/>
      <point x="4" y="737" type="line"/>
      <point x="209" y="737" type="line"/>
      <point x="357" y="445" type="line"/>
      <point x="319" y="444" type="line"/>
      <point x="453" y="737" type="line"/>
      <point x="656" y="737" type="line"/>
      <point x="396" y="264" type="line"/>
      <point x="415" y="343" type="line"/>
    </contour>
    <contour>
      <point x="73" y="429" type="line"/>
      <point x="587" y="429" type="line"/>
      <point x="587" y="294" type="line"/>
      <point x="73" y="294" type="line"/>
    </contour>
    <contour>
      <point x="73" y="248" type="line"/>
      <point x="587" y="248" type="line"/>
      <point x="587" y="114" type="line"/>
      <point x="73" y="114" type="line"/>
    </contour>
  </outline>
</glyph>
<glyph name="uni00A7" format="2">
  <advance width="623"/>
  <unicode hex="00A7"/>
  <outline>
    <contour>
      <point x="573" y="670" type="curve"/>
      <point x="479" y="550" type="line"/>
      <point x="431.17428266849026" y="584.9483153858567"/>
      <point x="380.6914323383207" y="609.8846525633896"/>
      <point x="320" y="610" type="curve" smooth="yes"/>
      <point x="267.8086447304349" y="610.0"/>
      <point x="240.77076557475215" y="596.2303705124962"/>
      <point x="241" y="576" type="curve" smooth="yes"/>
      <point x="241.0" y="549.3207402261755"/>
      <point x="257.29200559316666" y="533.1456491033481"/>
      <point x="344" y="511" type="curve" smooth="yes"/>
      <point x="513.5051270656153" y="468.57599098323385"/>
      <point x="573.0807109380765" y="410.35490943776125"/>
      <point x="573" y="319" type="curve" smooth="yes"/>
      <point x="573.0" y="254.07607724639186"/>
      <point x="501.36737093166033" y="160.0614652287299"/>
      <point x="447" y="132" type="curve"/>
      <point x="311" y="210" type="line"/>
      <point x="363.31289535167866" y="235.36125724201904"/>
      <point x="413.753992423073" y="262.9660856261431"/>
      <point x="414" y="306" type="curve" smooth="yes"/>
      <point x="414.0" y="333.80016518680145"/>
      <point x="393.126560464129" y="353.5491716669877"/>
      <point x="301" y="375" type="curve" smooth="yes"/>
      <point x="142.73807842226714" y="412.00272715236594"/>
      <point x="71.04131992109436" y="463.22054763506804"/>
      <point x="71" y="560" type="curve" smooth="yes"/>
      <point x="71.0" y="672.5348450994102"/>
      <point x="158.69208921097623" y="751.1988946132915"/>
      <point x="328" y="751" type="curve" smooth="yes"/>
      <point x="420.68132481256015" y="751.0"/>
      <point x="510.4281505213022" y="726.6741262163873"/>
    </contour>
    <contour>
      <point x="303" y="414" type="line"/>
      <point x="248.54719041567023" y="388.93451323407317"/>
      <point x="204.86833685568234" y="360.8870830326416"/>
      <point x="205" y="324" type="curve" smooth="yes"/>
      <point x="205.0" y="293.81216640741013"/>
      <point x="229.25804526117696" y="276.2146827070452"/>
      <point x="326" y="253" type="curve" smooth="yes"/>
      <point x="484.2619215777329" y="214.88404745983897"/>
      <point x="555.9586800789056" y="162.1253411436657"/>
      <point x="556" y="62" type="curve" smooth="yes"/>
      <point x="556.0" y="-53.920450870044576"/>
      <point x="468.3079107890238" y="-134.95110478757"/>
      <point x="299" y="-135" type="curve"/>
      <point x="197.9282002685805" y="-135.0"/>
      <point x="99.85820176663591" y="-108.10982716514157"/>
      <point x="31" y="-44" type="curve"/>
      <point x="131" y="72" type="line"/>
      <point x="183.2945969728965" y="32.63641739565408"/>
      <point x="240.69713892783113" y="10.336478531112618"/>
      <point x="307" y="10" type="curve" smooth="yes"/>
      <point x="357.5030578492074" y="10.0"/>
      <point x="382.99584531797" y="25.64786319584852"/>
      <point x="383" y="46" type="curve" smooth="yes"/>
      <point x="383.0" y="72.89270778944662"/>
      <point x="368.06905202073165" y="90.62633029754357"/>
      <point x="283" y="113" type="curve" smooth="yes"/>
      <point x="100.02868135449609" y="160.17206948667067"/>
      <point x="45.16555718657145" y="214.59783180529146"/>
      <point x="45" y="310" type="curve" smooth="yes"/>
      <point x="45.0" y="363.4890537816658"/>
      <point x="83.1290770408466" y="436.6052015843661"/>
      <point x="181" y="471" type="curve"/>
    </contour>
  </outline>
</glyph>
<glyph name="uni00A8" format="2">
  <advance width="568"/>
  <unicode hex="00A8"/>
  <anchor x="285" y="589" name="_top"/>
  <outline>
    <contour>
      <point x="148" y="623" type="curve" smooth="yes"/>
      <point x="201.63043340964978" y="623.0"/>
      <point x="236.0209451982043" y="650.9655536488427"/>
      <point x="236" y="698" type="curve" smooth="yes"/>
      <point x="236.0" y="744.5590046569466"/>
      <point x="201.60313711603746" y="772.5245583057896"/>
      <point x="148" y="773" type="curve" smooth="yes"/>
      <point x="94.37591768575837" y="773.0"/>
      <point x="59.97905480179536" y="745.0344463511572"/>
      <point x="60" y="698" type="curve" smooth="yes"/>
      <point x="60.0" y="651.4409953430531"/>
      <point x="94.39686288396301" y="623.4754416942104"/>
    </contour>
    <contour>
      <point x="420" y="623" type="curve" smooth="yes"/>
      <point x="473.6304334096498" y="623.0"/>
      <point x="508.020945198205" y="650.9655536488427"/>
      <point x="508" y="698" type="curve" smooth="yes"/>
      <point x="508.0" y="744.5590046569466"/>
      <point x="473.60313711603663" y="772.5245583057896"/>
      <point x="420" y="773" type="curve" smooth="yes"/>
      <point x="366.3759176857584" y="773.0"/>
      <point x="331.9790548017957" y="745.0344463511572"/>
      <point x="332" y="698" type="curve" smooth="yes"/>
      <point x="332.0" y="651.4409953430531"/>
      <point x="366.3968628839626" y="623.4754416942104"/>
    </contour>
  </outline>
</glyph>
<glyph name="uni00A9" format="2">
  <advance width="846"/>
  <unicode hex="00A9"/>
  <outline>
    <contour>
      <point x="39" y="368" type="curve" smooth="yes"/>
      <point x="38.999999999999915" y="582.4527921558772"/>
      <point x="205.33332218093142" y="747.7103508002247"/>
      <point x="423" y="748" type="curve" smooth="yes"/>
      <point x="645.0428694213881" y="748.0000000000001"/>
      <point x="806.9570035390846" y="582.7424413556528"/>
      <point x="807" y="368" type="curve" smooth="yes"/>
      <point x="807.0" y="153.5472078441224"/>
      <point x="640.6666778190686" y="-11.710350800225001"/>
      <point x="423" y="-11" type="curve" smooth="yes"/>
      <point x="200.59672268198057" y="-11.0"/>
      <point x="39.04299646091596" y="154.25755864434743"/>
    </contour>
    <contour>
      <point x="132" y="368" type="curve" smooth="yes"/>
      <point x="132.0" y="194.00970678071323"/>
      <point x="261.96032917313266" y="78.54703699377359"/>
      <point x="423" y="79" type="curve" smooth="yes"/>
      <point x="583.8080548261751" y="79.0"/>
      <point x="713.7683838513715" y="194.46267438399087"/>
      <point x="714" y="368" type="curve" smooth="yes"/>
      <point x="714.0" y="541.9902932192867"/>
      <point x="584.0396708268677" y="657.4529630062266"/>
      <point x="423" y="658" type="curve" smooth="yes"/>
      <point x="262.19194517382516" y="658.0"/>
      <point x="132.2316161486283" y="542.537325616009"/>
    </contour>
    <contour>
      <point x="578" y="554" type="curve"/>
      <point x="537" y="464" type="line"/>
      <point x="514.173528847645" y="484.2345678726817"/>
      <point x="472.7036007894763" y="493.6404959397891"/>
      <point x="446" y="494" type="curve" smooth="yes"/>
      <point x="370.38428423682853" y="494.0"/>
      <point x="328.60828547125396" y="441.46075209655953"/>
      <point x="329" y="374" type="curve" smooth="yes"/>
      <point x="328.9999996533675" y="305.8109480030197"/>
      <point x="377.79736580513594" y="260.1637175587629"/>
      <point x="446" y="260" type="curve" smooth="yes"/>
      <point x="476.9347591217342" y="260.0"/>
      <point x="508.41275319830294" y="271.5536576958645"/>
      <point x="530" y="286" type="curve"/>
      <point x="574" y="185" type="line"/>
      <point x="529.0993423858728" y="153.12385781679666"/>
      <point x="483.8010689603316" y="146.36072018066307"/>
      <point x="445" y="146" type="curve"/>
      <point x="300.4019960548235" y="146.0"/>
      <point x="213.98623419982064" y="250.83274930987176"/>
      <point x="214" y="374" type="curve" smooth="yes"/>
      <point x="214.0" y="498.08796736104944"/>
      <point x="300.8611973910002" y="598.7386333819599"/>
      <point x="451" y="599" type="curve" smooth="yes"/>
      <point x="494.2907722573512" y="599.0"/>
      <point x="548.4605298719237" y="583.8140270784211"/>
    </contour>
  </outline>
</glyph>
<glyph name="uni00AA" format="2">
  <advance width="448"/>
  <unicode hex="00AA"/>
  <outline>
    <contour>
      <point x="282" y="334" type="line"/>
      <point x="282" y="567" type="line" smooth="yes"/>
      <point x="282.0" y="607.626240934389"/>
      <point x="255.60825780366864" y="630.7999447414007"/>
      <point x="200" y="631" type="curve" smooth="yes"/>
      <point x="162.8885565866016" y="631.0"/>
      <point x="127.15173657672445" y="618.0380673756661"/>
      <point x="93" y="599" type="curve"/>
      <point x="50" y="693" type="line"/>
      <point x="94.03446172776535" y="718.6459471638755"/>
      <point x="142.96252565255992" y="735.602458765711"/>
      <point x="207" y="735" type="curve" smooth="yes"/>
      <point x="307.20606661548686" y="735.0"/>
      <point x="387.25968904473257" y="692.6365946189379"/>
      <point x="387" y="575" type="curve" smooth="yes"/>
      <point x="387" y="334" type="line"/>
    </contour>
    <contour>
      <point x="295" y="536" type="curve"/>
      <point x="295" y="370" type="line"/>
      <point x="278.41849094512304" y="341.48756221354745"/>
      <point x="242.14192367016096" y="323.87019156715655"/>
      <point x="190" y="324" type="curve" smooth="yes"/>
      <point x="104.75369965449109" y="324.0"/>
      <point x="50.53838429677549" y="373.6524754030505"/>
      <point x="50" y="448" type="curve" smooth="yes"/>
      <point x="50.0" y="528.7302419303074"/>
      <point x="124.52521186315005" y="570.8377870656558"/>
      <point x="215" y="571" type="curve" smooth="yes"/>
      <point x="254.89378361432813" y="571.0"/>
      <point x="289.6398087812762" y="558.268657787259"/>
    </contour>
    <contour>
      <point x="229" y="495" type="curve" smooth="yes"/>
      <point x="193.6854919746167" y="495.0"/>
      <point x="166.17594719006604" y="477.7132685901073"/>
      <point x="166" y="451" type="curve" smooth="yes"/>
      <point x="166.0" y="423.2463099452049"/>
      <point x="189.56218124967938" y="409.44813780882896"/>
      <point x="222" y="410" type="curve" smooth="yes"/>
      <point x="254.65218673866616" y="410.0"/>
      <point x="282.10698529230945" y="434.9978017941082"/>
      <point x="282" y="458" type="curve" smooth="yes"/>
      <point x="282.0" y="480.9039742603029"/>
      <point x="256.38004824228165" y="494.861001559672"/>
    </contour>
  </outline>
</glyph>
<glyph name="uni00AB" format="2">
  <advance width="652"/>
  <unicode hex="00AB"/>
  <outline>
    <contour>
      <point x="179" y="96" type="line"/>
      <point x="24" y="312" type="line"/>
      <point x="24" y="356" type="line"/>
      <point x="180" y="560" type="line"/>
      <point x="369" y="560" type="line"/>
      <point x="194" y="322" type="line"/>
      <point x="194" y="350" type="line"/>
      <point x="368" y="96" type="line"/>
    </contour>
    <contour>
      <point x="450" y="96" type="line"/>
      <point x="295" y="312" type="line"/>
      <point x="295" y="356" type="line"/>
      <point x="451" y="560" type="line"/>
      <point x="641" y="560" type="line"/>
      <point x="465" y="322" type="line"/>
      <point x="466" y="350" type="line"/>
      <point x="640" y="96" type="line"/>
    </contour>
  </outline>
</glyph>
<glyph name="uni00AE" format="2">
  <advance width="846"/>
  <unicode hex="00AE"/>
  <outline>
    <contour>
      <point x="39" y="368" type="curve" smooth="yes"/>
      <point x="38.999999999999915" y="582.4527921558772"/>
      <point x="205.33332218093142" y="747.7103508002247"/>
      <point x="423" y="748" type="curve" smooth="yes"/>
      <point x="645.0428694213881" y="748.0000000000001"/>
      <point x="806.9570035390846" y="582.7424413556528"/>
      <point x="807" y="368" type="curve" smooth="yes"/>
      <point x="807.0" y="153.5472078441224"/>
      <point x="640.6666778190686" y="-11.710350800225001"/>
      <point x="423" y="-11" type="curve" smooth="yes"/>
      <point x="200.59672268198057" y="-11.0"/>
      <point x="39.04299646091596" y="154.25755864434743"/>
    </contour>
    <contour>
      <point x="132" y="368" type="curve" smooth="yes"/>
      <point x="132.0" y="194.00970678071323"/>
      <point x="261.96032917313266" y="78.54703699377359"/>
      <point x="423" y="79" type="curve" smooth="yes"/>
      <point x="583.8080548261751" y="79.0"/>
      <point x="713.7683838513715" y="194.46267438399087"/>
      <point x="714" y="368" type="curve" smooth="yes"/>
      <point x="714.0" y="541.9902932192867"/>
      <point x="584.0396708268677" y="657.4529630062266"/>
      <point x="423" y="658" type="curve" smooth="yes"/>
      <point x="262.19194517382516" y="658.0"/>
      <point x="132.2316161486283" y="542.537325616009"/>
    </contour>
    <contour>
      <point x="266" y="584" type="line"/>
      <point x="364" y="584" type="line"/>
      <point x="364" y="173" type="line"/>
      <point x="266" y="173" type="line"/>
    </contour>
    <contour>
      <point x="460" y="320" type="curve"/>
      <point x="314" y="320" type="line"/>
      <point x="314" y="406" type="line"/>
      <point x="450" y="406" type="line" smooth="yes"/>
      <point x="477.93087905894873" y="406.0"/>
      <point x="494.87196742897794" y="423.25712478774517"/>
      <point x="495" y="450" type="curve" smooth="yes"/>
      <point x="495.000000126125" y="475.6495637604332"/>
      <point x="474.81198517284014" y="490.24164256201664"/>
      <point x="453" y="490" type="curve"/>
      <point x="314" y="490" type="line"/>
      <point x="314" y="584" type="line"/>
      <point x="465" y="584" type="line" smooth="yes"/>
      <point x="542.5300513721586" y="584.0"/>
      <point x="593.7285304713101" y="529.5201879349373"/>
      <point x="593" y="458" type="curve" smooth="yes"/>
      <point x="593.0" y="367.83512752240165"/>
      <point x="534.1783672236468" y="320.260065645073"/>
    </contour>
    <contour>
      <point x="356" y="336" type="line"/>
      <point x="489" y="336" type="line"/>
      <point x="618" y="171" type="line"/>
      <point x="498" y="171" type="line"/>
    </contour>
  </outline>
</glyph>
<glyph name="uni00AF" format="2">
  <advance width="596"/>
  <unicode hex="00AF"/>
  <outline>
    <contour>
      <point x="60" y="727" type="line"/>
      <point x="536" y="727" type="line"/>
      <point x="536" y="587" type="line"/>
      <point x="60" y="587" type="line"/>
    </contour>
  </outline>
</glyph>
<glyph name="uni00B0" format="2">
  <advance width="417"/>
  <unicode hex="00B0"/>
  <outline>
    <contour>
      <point x="208" y="425" type="curve" smooth="yes"/>
      <point x="301.60227482123514" y="425.0"/>
      <point x="368.65095165047853" y="492.56977516522846"/>
      <point x="369" y="580" type="curve" smooth="yes"/>
      <point x="369.0" y="667.3975355817593"/>
      <point x="302.1377852492339" y="735.4970507719056"/>
      <point x="208" y="736" type="curve" smooth="yes"/>
      <point x="114.21126310028755" y="736.0"/>
      <point x="47.34904834952127" y="667.9004848098535"/>
      <point x="48" y="580" type="curve" smooth="yes"/>
      <point x="48.0" y="492.7746032977353"/>
      <point x="115.06058162344257" y="425.2048281325068"/>
    </contour>
    <contour>
      <point x="208" y="519" type="curve" smooth="yes"/>
      <point x="242.19975642257785" y="519.0"/>
      <point x="269.6457085531829" y="542.6579330803099"/>
      <point x="270" y="580" type="curve" smooth="yes"/>
      <point x="270.0" y="618.064834745107"/>
      <point x="242.66181968202304" y="642.041096647913"/>
      <point x="208" y="642" type="curve"/>
      <point x="173.6924717647941" y="642.0"/>
      <point x="146.3542914468173" y="618.0237380971939"/>
      <point x="147" y="580" type="curve" smooth="yes"/>
      <point x="147.0" y="542.0468796762218"/>
      <point x="174.45047035976765" y="518.3889465959119"/>
    </contour>
  </outline>
</glyph>
<glyph name="uni00B4" format="2">
  <advance width="316"/>
  <unicode hex="00B4"/>
  <anchor x="113" y="589" name="_top"/>
  <outline>
    <contour>
      <point x="317" y="761" type="line"/>
      <point x="142" y="761" type="line"/>
      <point x="25" y="629" type="line"/>
      <point x="170" y="629" type="line"/>
    </contour>
  </outline>
</glyph>
<glyph name="uni00B6" format="2">
  <advance width="733"/>
  <unicode hex="00B6"/>
  <outline>
    <contour>
      <point x="312" y="737" type="line"/>
      <point x="462" y="737" type="line"/>
      <point x="462" y="-119" type="line"/>
      <point x="312" y="-119" type="line"/>
    </contour>
    <contour>
      <point x="300" y="737" type="curve" smooth="yes"/>
      <point x="630" y="737" type="line"/>
      <point x="630" y="588" type="line"/>
      <point x="301" y="588" type="line" smooth="yes"/>
      <point x="238.05980779804258" y="588.0"/>
      <point x="201.72887365027896" y="548.473781600268"/>
      <point x="202" y="490" type="curve" smooth="yes"/>
      <point x="201.99999971806346" y="434.53781937263506"/>
      <point x="247.11718753167668" y="402.97368416412763"/>
      <point x="297" y="403" type="curve" smooth="yes"/>
      <point x="417" y="403" type="line"/>
      <point x="417" y="256" type="line"/>
      <point x="292" y="256" type="line" smooth="yes"/>
      <point x="134.48816779083998" y="256.0"/>
      <point x="36.118065884995815" y="341.09512827537196"/>
      <point x="36" y="481" type="curve" smooth="yes"/>
      <point x="35.99999999999998" y="651.1613421814636"/>
      <point x="154.9930291792453" y="736.6547373659603"/>
    </contour>
    <contour>
      <point x="524" y="737" type="line"/>
      <point x="673" y="737" type="line"/>
      <point x="673" y="-119" type="line"/>
      <point x="524" y="-119" type="line"/>
    </contour>
  </outline>
</glyph>
<glyph name="uni00B7" format="2">
  <advance width="308"/>
  <unicode hex="00B7"/>
  <outline>
    <contour>
      <point x="154" y="451" type="curve" smooth="yes"/>
      <point x="209.3312551128753" y="451.0"/>
      <point x="252.1682645123626" y="411.21605602627113"/>
      <point x="252" y="354" type="curve" smooth="yes"/>
      <point x="252.0" y="296.14893978408435"/>
      <point x="209.16299060051273" y="256.3649958103555"/>
      <point x="154" y="256" type="curve"/>
      <point x="98.66874488712469" y="256.0"/>
      <point x="55.8317354876374" y="295.78394397372887"/>
      <point x="56" y="354" type="curve" smooth="yes"/>
      <point x="56.0" y="411.851060215916"/>
      <point x="98.83700939948727" y="451.63500418964486"/>
    </contour>
  </outline>
</glyph>
<glyph name="uni00B8" format="2">
  <advance width="291"/>
  <unicode hex="00B8"/>
  <anchor x="117" y="0" name="_bottom"/>
  <outline>
    <contour>
      <point x="133" y="-132" type="line"/>
      <point x="-12" y="-132" type="line"/>
      <point x="74" y="27" type="line"/>
      <point x="231" y="27" type="line"/>
    </contour>
  </outline>
</glyph>
<glyph name="uni00BA" format="2">
  <advance width="504"/>
  <unicode hex="00BA"/>
  <outline>
    <contour>
      <point x="44" y="528" type="curve" smooth="yes"/>
      <point x="44.0" y="639.354399609324"/>
      <point x="139.30012621371927" y="734.724539321119"/>
      <point x="252" y="735" type="curve" smooth="yes"/>
      <point x="377.59411824220615" y="735.0"/>
      <point x="459.4482689920582" y="639.629860288205"/>
      <point x="459" y="528" type="curve" smooth="yes"/>
      <point x="459.0" y="416.6106153699633"/>
      <point x="363.7351081830513" y="321.14968836004925"/>
      <point x="252" y="322" type="curve" smooth="yes"/>
      <point x="126.36642294122721" y="322.0"/>
      <point x="44.5517310079417" y="417.46092700991403"/>
    </contour>
    <contour>
      <point x="157" y="528" type="curve" smooth="yes"/>
      <point x="157.0" y="470.22163750902456"/>
      <point x="197.56049302209505" y="428.94216136015086"/>
      <point x="252" y="429" type="curve" smooth="yes"/>
      <point x="306.2161289399958" y="429.0"/>
      <point x="346.7766219122145" y="470.2794776754538"/>
      <point x="347" y="528" type="curve" smooth="yes"/>
      <point x="347.0" y="585.7377840027881"/>
      <point x="306.40143029182525" y="626.9305606501601"/>
      <point x="252" y="627" type="curve" smooth="yes"/>
      <point x="197.41550294270684" y="627.0"/>
      <point x="157.22337803744415" y="581.1370739944686"/>
    </contour>
  </outline>
</glyph>
<glyph name="uni00BB" format="2">
  <advance width="652"/>
  <unicode hex="00BB"/>
  <outline>
    <contour>
      <point x="283" y="96" type="line"/>
      <point x="458" y="350" type="line"/>
      <point x="458" y="322" type="line"/>
      <point x="283" y="560" type="line"/>
      <point x="472" y="560" type="line"/>
      <point x="628" y="356" type="line"/>
      <point x="628" y="312" type="line"/>
      <point x="473" y="96" type="line"/>
    </contour>
    <contour>
      <point x="12" y="96" type="line"/>
      <point x="186" y="350" type="line"/>
      <point x="186" y="322" type="line"/>
      <point x="11" y="560" type="line"/>
      <point x="200" y="560" type="line"/>
      <point x="357" y="356" type="line"/>
      <point x="357" y="312" type="line"/>
      <point x="201" y="96" type="line"/>
    </contour>
  </outline>
</glyph>
<glyph name="uni00BF" format="2">
  <advance width="453"/>
  <unicode hex="00BF"/>
  <outline>
    <contour>
      <point x="353" y="337" type="line"/>
      <point x="362.6198542025389" y="280.83684089894734"/>
      <point x="350.22862527635806" y="236.41725031994713"/>
      <point x="291" y="180" type="curve" smooth="yes"/>
      <point x="216.51372734904373" y="108.69376685960442"/>
      <point x="200.80407236690252" y="88.29208259538133"/>
      <point x="201" y="56" type="curve" smooth="yes"/>
      <point x="200.99999982250068" y="18.18035216795375"/>
      <point x="233.60088326644922" y="2.3233261160499055"/>
      <point x="279" y="2" type="curve" smooth="yes"/>
      <point x="329.69910785066565" y="2.0"/>
      <point x="375.4860913373003" y="18.85634738609331"/>
      <point x="413" y="46" type="curve"/>
      <point x="491" y="-84" type="line"/>
      <point x="437.9287263631245" y="-129.86455619242798"/>
      <point x="347.50039479969996" y="-153.80788190783943"/>
      <point x="273" y="-154" type="curve"/>
      <point x="124.39529619472688" y="-154.0"/>
      <point x="31.12888732403178" y="-89.77954151616365"/>
      <point x="31" y="35" type="curve" smooth="yes"/>
      <point x="30.999999999999957" y="120.26646895440251"/>
      <point x="77.0973520383967" y="170.83017198109283"/>
      <point x="144" y="227" type="curve" smooth="yes"/>
      <point x="181.71086635373138" y="258.6826374126694"/>
      <point x="209.85668249588807" y="289.664766557915"/>
      <point x="209" y="337" type="curve"/>
    </contour>
    <contour>
      <point x="281" y="402" type="curve"/>
      <point x="225.6687448871247" y="402.0"/>
      <point x="182.8317354876374" y="441.78394397372887"/>
      <point x="183" y="500" type="curve" smooth="yes"/>
      <point x="183.0" y="557.8510602159157"/>
      <point x="225.8370093994872" y="597.6350041896445"/>
      <point x="281" y="598" type="curve" smooth="yes"/>
      <point x="336.33125511287534" y="598.0"/>
      <point x="379.16826451236267" y="558.2160560262712"/>
      <point x="379" y="500" type="curve" smooth="yes"/>
      <point x="379.0" y="442.148939784084"/>
      <point x="336.1629906005127" y="402.36499581035514"/>
    </contour>
  </outline>
</glyph>
<glyph name="uni00C1" format="2">
  <advance width="786"/>
  <unicode hex="00C1"/>
  <anchor x="393" y="737" name="top"/>
  <anchor x="393" y="-167" name="bottom"/>
  <outline>
    <contour>
      <point x="272" y="737" type="line"/>
      <point x="448" y="737" type="line"/>
      <point x="201" y="0" type="line"/>
      <point x="10" y="0" type="line"/>
    </contour>
    <contour>
      <point x="272" y="307" type="line"/>
      <point x="520" y="307" type="line"/>
      <point x="587" y="145" type="line"/>
      <point x="201" y="145" type="line"/>
    </contour>
    <contour>
      <point x="337" y="737" type="line"/>
      <point x="524" y="737" type="line"/>
      <point x="775" y="-1" type="line"/>
      <point x="587" y="-1" type="line"/>
    </contour>
    <contour>
      <point x="457" y="763" type="line"/>
      <point x="312" y="763" type="line"/>
      <point x="429" y="896" type="line"/>
      <point x="604" y="896" type="line"/>
    </contour>
  </outline>
</glyph>
<glyph name="uni00C2" format="2">
  <advance width="786"/>
  <unicode hex="00C2"/>
  <anchor x="393" y="737" name="top"/>
  <anchor x="393" y="-167" name="bottom"/>
  <outline>
    <contour>
      <point x="272" y="737" type="line"/>
      <point x="448" y="737" type="line"/>
      <point x="201" y="0" type="line"/>
      <point x="10" y="0" type="line"/>
    </contour>
    <contour>
      <point x="272" y="307" type="line"/>
      <point x="520" y="307" type="line"/>
      <point x="587" y="145" type="line"/>
      <point x="201" y="145" type="line"/>
    </contour>
    <contour>
      <point x="337" y="737" type="line"/>
      <point x="524" y="737" type="line"/>
      <point x="775" y="-1" type="line"/>
      <point x="587" y="-1" type="line"/>
    </contour>
    <contour>
      <point x="456" y="872" type="line"/>
      <point x="320" y="763" type="line"/>
      <point x="180" y="763" type="line"/>
      <point x="305" y="896" type="line"/>
      <point x="500" y="896" type="line"/>
      <point x="622" y="763" type="line"/>
      <point x="477" y="763" type="line"/>
      <point x="346" y="872" type="line"/>
    </contour>
  </outline>
</glyph>
<glyph name="uni00C3" format="2">
  <advance width="786"/>
  <unicode hex="00C3"/>
  <anchor x="393" y="737" name="top"/>
  <anchor x="393" y="-167" name="bottom"/>
  <outline>
    <contour>
      <point x="272" y="737" type="line"/>
      <point x="448" y="737" type="line"/>
      <point x="201" y="0" type="line"/>
      <point x="10" y="0" type="line"/>
    </contour>
    <contour>
      <point x="272" y="307" type="line"/>
      <point x="520" y="307" type="line"/>
      <point x="587" y="145" type="line"/>
      <point x="201" y="145" type="line"/>
    </contour>
    <contour>
      <point x="337" y="737" type="line"/>
      <point x="524" y="737" type="line"/>
      <point x="775" y="-1" type="line"/>
      <point x="587" y="-1" type="line"/>
    </contour>
    <contour>
      <point x="204" y="791" type="curve"/>
      <point x="284" y="753" type="line"/>
      <point x="291.1935075653021" y="777.3979541232686"/>
      <point x="303.44551406431276" y="802.8224464019167"/>
      <point x="331" y="803" type="curve" smooth="yes"/>
      <point x="348.4106166421648" y="803.0"/>
      <point x="374.5902128106303" y="793.9301681860688"/>
      <point x="401" y="782" type="curve" smooth="yes"/>
      <point x="421.01700870348736" y="773.3240709680596"/>
      <point x="446.55681341157606" y="762.5946067653676"/>
      <point x="478" y="763" type="curve" smooth="yes"/>
      <point x="523.2361056128165" y="763.0"/>
      <point x="586.4737102844545" y="794.1402116305119"/>
      <point x="596" y="874" type="curve"/>
      <point x="516" y="904" type="line"/>
      <point x="507.3978663547917" y="875.3830063132785"/>
      <point x="491.92267178112684" y="862.1328348944587"/>
      <point x="478" y="862" type="curve"/>
      <point x="459.34064900047895" y="862.0"/>
      <point x="442.6374151754875" y="871.2652192241056"/>
      <point x="412" y="885" type="curve" smooth="yes"/>
      <point x="382.9053710363736" y="898.0120804645171"/>
      <point x="365.30334680104346" y="905.319003598337"/>
      <point x="334" y="905" type="curve"/>
      <point x="271.90264784755925" y="905.0"/>
      <point x="213.90541323914562" y="857.5819562302398"/>
    </contour>
  </outline>
</glyph>
<glyph name="uni00C4" format="2">
  <advance width="786"/>
  <unicode hex="00C4"/>
  <anchor x="393" y="737" name="top"/>
  <anchor x="393" y="-167" name="bottom"/>
  <outline>
    <contour>
      <point x="272" y="737" type="line"/>
      <point x="448" y="737" type="line"/>
      <point x="201" y="0" type="line"/>
      <point x="10" y="0" type="line"/>
    </contour>
    <contour>
      <point x="272" y="307" type="line"/>
      <point x="520" y="307" type="line"/>
      <point x="587" y="145" type="line"/>
      <point x="201" y="145" type="line"/>
    </contour>
    <contour>
      <point x="337" y="737" type="line"/>
      <point x="524" y="737" type="line"/>
      <point x="775" y="-1" type="line"/>
      <point x="587" y="-1" type="line"/>
    </contour>
    <contour>
      <point x="263" y="758" type="curve" smooth="yes"/>
      <point x="316.6304334096498" y="758.0"/>
      <point x="351.0209451982043" y="785.9655536488427"/>
      <point x="351" y="832" type="curve" smooth="yes"/>
      <point x="351.0" y="878.5590046569466"/>
      <point x="316.60313711603743" y="906.5245583057896"/>
      <point x="263" y="907" type="curve" smooth="yes"/>
      <point x="209.37591768575837" y="907.0"/>
      <point x="174.97905480179531" y="879.0344463511572"/>
      <point x="175" y="832" type="curve" smooth="yes"/>
      <point x="175.0" y="785.4409953430531"/>
      <point x="209.39686288396305" y="757.4754416942104"/>
    </contour>
    <contour>
      <point x="535" y="758" type="curve" smooth="yes"/>
      <point x="588.6304334096499" y="758.0"/>
      <point x="623.0209451982053" y="785.9655536488427"/>
      <point x="623" y="832" type="curve" smooth="yes"/>
      <point x="623.0" y="878.5590046569466"/>
      <point x="588.6031371160366" y="906.5245583057896"/>
      <point x="535" y="907" type="curve" smooth="yes"/>
      <point x="481.37591768575845" y="907.0"/>
      <point x="446.9790548017958" y="879.0344463511572"/>
      <point x="447" y="832" type="curve" smooth="yes"/>
      <point x="447.0" y="785.4409953430531"/>
      <point x="481.3968628839626" y="757.4754416942104"/>
    </contour>
  </outline>
</glyph>
<glyph name="uni00C5" format="2">
  <advance width="786"/>
  <unicode hex="00C5"/>
  <anchor x="393" y="737" name="top"/>
  <anchor x="393" y="-167" name="bottom"/>
  <outline>
    <contour>
      <point x="272" y="737" type="line"/>
      <point x="448" y="737" type="line"/>
      <point x="201" y="0" type="line"/>
      <point x="10" y="0" type="line"/>
    </contour>
    <contour>
      <point x="272" y="307" type="line"/>
      <point x="520" y="307" type="line"/>
      <point x="587" y="145" type="line"/>
      <point x="201" y="145" type="line"/>
    </contour>
    <contour>
      <point x="337" y="737" type="line"/>
      <point x="524" y="737" type="line"/>
      <point x="775" y="-1" type="line"/>
      <point x="587" y="-1" type="line"/>
    </contour>
    <contour>
      <point x="399" y="710" type="curve" smooth="yes"/>
      <point x="492.0833404546072" y="710.0"/>
      <point x="555.0048550964278" y="754.4238875724197"/>
      <point x="555" y="821" type="curve" smooth="yes"/>
      <point x="555.0" y="887.5580024598331"/>
      <point x="492.06746211748276" y="931.9818900322531"/>
      <point x="399" y="932" type="curve" smooth="yes"/>
      <point x="305.15598729549504" y="932.0"/>
      <point x="241.05106700032692" y="888.127968359599"/>
      <point x="241" y="821" type="curve" smooth="yes"/>
      <point x="241.0" y="753.8901416081477"/>
      <point x="305.1049202951681" y="710.0181099677469"/>
    </contour>
    <contour>
      <point x="399" y="779" type="curve" smooth="yes"/>
      <point x="444.55202946508547" y="779.0"/>
      <point x="477.73679190709174" y="793.1407044971594"/>
      <point x="478" y="821" type="curve" smooth="yes"/>
      <point x="478.0" y="849.0896567691002"/>
      <point x="444.80984313421635" y="863.2303612662597"/>
      <point x="399" y="863" type="curve"/>
      <point x="352.57765276871106" y="863.0"/>
      <point x="318.3191301896626" y="849.3993673396022"/>
      <point x="319" y="821" type="curve" smooth="yes"/>
      <point x="319.0" y="792.3702713941382"/>
      <point x="353.2585225790484" y="778.7696387337404"/>
    </contour>
  </outline>
</glyph>
<glyph name="uni00C6" format="2">
  <advance width="1017"/>
  <unicode hex="00C6"/>
  <anchor x="508" y="737" name="top"/>
  <anchor x="508" y="-167" name="bottom"/>
  <outline>
    <contour>
      <point x="340" y="737" type="line"/>
      <point x="519" y="737" type="line"/>
      <point x="199" y="0" type="line"/>
      <point x="9" y="0" type="line"/>
    </contour>
    <contour>
      <point x="281" y="307" type="line"/>
      <point x="528" y="307" type="line"/>
      <point x="574" y="144" type="line"/>
      <point x="187" y="144" type="line"/>
    </contour>
    <contour>
      <point x="405" y="737" type="line"/>
      <point x="592" y="737" type="line"/>
      <point x="741" y="-1" type="line"/>
      <point x="554" y="-1" type="line"/>
    </contour>
    <contour>
      <point x="582" y="585" type="line"/>
      <point x="582" y="737" type="line"/>
      <point x="942" y="737" type="line"/>
      <point x="942" y="585" type="line"/>
    </contour>
    <contour>
      <point x="582" y="154" type="line"/>
      <point x="982" y="154" type="line"/>
      <point x="982" y="-1" type="line"/>
      <point x="582" y="-1" type="line"/>
    </contour>
    <contour>
      <point x="606" y="455" type="line"/>
      <point x="835" y="455" type="line"/>
      <point x="835" y="299" type="line"/>
      <point x="606" y="299" type="line"/>
    </contour>
  </outline>
</glyph>
<glyph name="uni00C7" format="2">
  <advance width="671"/>
  <unicode hex="00C7"/>
  <anchor x="335" y="737" name="top"/>
  <anchor x="335" y="-167" name="bottom"/>
  <outline>
    <contour>
      <point x="646" y="667" type="curve"/>
      <point x="560" y="530" type="line"/>
      <point x="518.949536206064" y="566.3892600962879"/>
      <point x="457.22717166463525" y="585.223355216965"/>
      <point x="417" y="585" type="curve"/>
      <point x="283.1001672752483" y="585.0"/>
      <point x="214.06075561701869" y="489.5545947851461"/>
      <point x="214" y="371" type="curve" smooth="yes"/>
      <point x="213.99999934878633" y="242.89409469789186"/>
      <point x="302.69912512092833" y="154.1030616559301"/>
      <point x="433" y="154" type="curve" smooth="yes"/>
      <point x="487.75619177949403" y="154.0"/>
      <point x="543.805795420147" y="177.34524570495284"/>
      <point x="582" y="199" type="curve"/>
      <point x="637" y="49" type="line"/>
      <point x="560.4126282215111" y="-5.3713629593005265"/>
      <point x="482.6533397119412" y="-15.243181896021895"/>
      <point x="417" y="-15" type="curve" smooth="yes"/>
      <point x="178.76633597083253" y="-15.0"/>
      <point x="42.8478708811075" y="164.1509659379741"/>
      <point x="43" y="367" type="curve" smooth="yes"/>
      <point x="43.0" y="571.56511710762"/>
      <point x="176.1936312058277" y="747.7490942709369"/>
      <point x="423" y="748" type="curve" smooth="yes"/>
      <point x="508.93241586605643" y="748.0"/>
      <point x="584.0443554418821" y="727.8607561837534"/>
    </contour>
    <contour>
      <point x="409" y="-132" type="line"/>
      <point x="265" y="-132" type="line"/>
      <point x="351" y="27" type="line"/>
      <point x="507" y="27" type="line"/>
    </contour>
  </outline>
</glyph>
<glyph name="uni00C8" format="2">
  <advance width="591"/>
  <unicode hex="00C8"/>
  <anchor x="295" y="737" name="top"/>
  <anchor x="295" y="-167" name="bottom"/>
  <outline>
    <contour>
      <point x="60" y="737" type="line"/>
      <point x="226" y="737" type="line"/>
      <point x="226" y="0" type="line"/>
      <point x="60" y="0" type="line"/>
    </contour>
    <contour>
      <point x="156" y="585" type="line"/>
      <point x="156" y="737" type="line"/>
      <point x="556" y="737" type="line"/>
      <point x="556" y="585" type="line"/>
    </contour>
    <contour>
      <point x="156" y="155" type="line"/>
      <point x="556" y="155" type="line"/>
      <point x="556" y="0" type="line"/>
      <point x="156" y="0" type="line"/>
    </contour>
    <contour>
      <point x="180" y="456" type="line"/>
      <point x="409" y="456" type="line"/>
      <point x="409" y="300" type="line"/>
      <point x="180" y="300" type="line"/>
    </contour>
    <contour>
      <point x="118" y="897" type="line"/>
      <point x="293" y="897" type="line"/>
      <point x="411" y="765" type="line"/>
      <point x="266" y="765" type="line"/>
    </contour>
  </outline>
</glyph>
<glyph name="uni00CA" format="2">
  <advance width="591"/>
  <unicode hex="00CA"/>
  <anchor x="295" y="737" name="top"/>
  <anchor x="295" y="-167" name="bottom"/>
  <outline>
    <contour>
      <point x="60" y="737" type="line"/>
      <point x="226" y="737" type="line"/>
      <point x="226" y="0" type="line"/>
      <point x="60" y="0" type="line"/>
    </contour>
    <contour>
      <point x="156" y="585" type="line"/>
      <point x="156" y="737" type="line"/>
      <point x="556" y="737" type="line"/>
      <point x="556" y="585" type="line"/>
    </contour>
    <contour>
      <point x="156" y="155" type="line"/>
      <point x="556" y="155" type="line"/>
      <point x="556" y="0" type="line"/>
      <point x="156" y="0" type="line"/>
    </contour>
    <contour>
      <point x="180" y="456" type="line"/>
      <point x="409" y="456" type="line"/>
      <point x="409" y="300" type="line"/>
      <point x="180" y="300" type="line"/>
    </contour>
    <contour>
      <point x="374" y="874" type="line"/>
      <point x="238" y="765" type="line"/>
      <point x="98" y="765" type="line"/>
      <point x="223" y="897" type="line"/>
      <point x="418" y="897" type="line"/>
      <point x="540" y="765" type="line"/>
      <point x="395" y="765" type="line"/>
      <point x="264" y="874" type="line"/>
    </contour>
  </outline>
</glyph>
<glyph name="uni00CB" format="2">
  <advance width="591"/>
  <unicode hex="00CB"/>
  <anchor x="295" y="737" name="top"/>
  <anchor x="295" y="-167" name="bottom"/>
  <outline>
    <contour>
      <point x="60" y="737" type="line"/>
      <point x="226" y="737" type="line"/>
      <point x="226" y="0" type="line"/>
      <point x="60" y="0" type="line"/>
    </contour>
    <contour>
      <point x="156" y="585" type="line"/>
      <point x="156" y="737" type="line"/>
      <point x="556" y="737" type="line"/>
      <point x="556" y="585" type="line"/>
    </contour>
    <contour>
      <point x="156" y="155" type="line"/>
      <point x="556" y="155" type="line"/>
      <point x="556" y="0" type="line"/>
      <point x="156" y="0" type="line"/>
    </contour>
    <contour>
      <point x="180" y="456" type="line"/>
      <point x="409" y="456" type="line"/>
      <point x="409" y="300" type="line"/>
      <point x="180" y="300" type="line"/>
    </contour>
    <contour>
      <point x="93" y="834" type="curve" smooth="yes"/>
      <point x="93.0" y="880.5590046569466"/>
      <point x="127.39686288396305" y="908.5245583057896"/>
      <point x="181" y="908" type="curve" smooth="yes"/>
      <point x="234.62408231424172" y="908.0"/>
      <point x="269.0209451982043" y="880.0344463511572"/>
      <point x="269" y="834" type="curve" smooth="yes"/>
      <point x="269.0" y="787.4409953430531"/>
      <point x="234.60948821144552" y="759.4754416942104"/>
      <point x="181" y="759" type="curve"/>
      <point x="127.37591768575837" y="759.0"/>
      <point x="92.97905480179531" y="786.9655536488427"/>
    </contour>
    <contour>
      <point x="365" y="834" type="curve" smooth="yes"/>
      <point x="365.0" y="880.5590046569466"/>
      <point x="399.3968628839626" y="908.5245583057896"/>
      <point x="453" y="908" type="curve" smooth="yes"/>
      <point x="506.6240823142417" y="908.0"/>
      <point x="541.0209451982053" y="880.0344463511572"/>
      <point x="541" y="834" type="curve" smooth="yes"/>
      <point x="541.0" y="787.4409953430531"/>
      <point x="506.60948821144467" y="759.4754416942104"/>
      <point x="453" y="759" type="curve"/>
      <point x="399.37591768575845" y="759.0"/>
      <point x="364.9790548017958" y="786.9655536488427"/>
    </contour>
  </outline>
</glyph>
<glyph name="uni00CC" format="2">
  <advance width="286"/>
  <unicode hex="00CC"/>
  <anchor x="143" y="737" name="top"/>
  <anchor x="143" y="-167" name="bottom"/>
  <outline>
    <contour>
      <point x="60" y="737" type="line"/>
      <point x="226" y="737" type="line"/>
      <point x="226" y="0" type="line"/>
      <point x="60" y="0" type="line"/>
    </contour>
    <contour>
      <point x="-57" y="897" type="line"/>
      <point x="119" y="897" type="line"/>
      <point x="236" y="765" type="line"/>
      <point x="91" y="765" type="line"/>
    </contour>
  </outline>
</glyph>
<glyph name="uni00CD" format="2">
  <advance width="286"/>
  <unicode hex="00CD"/>
  <anchor x="143" y="737" name="top"/>
  <anchor x="143" y="-167" name="bottom"/>
  <outline>
    <contour>
      <point x="60" y="737" type="line"/>
      <point x="226" y="737" type="line"/>
      <point x="226" y="0" type="line"/>
      <point x="60" y="0" type="line"/>
    </contour>
    <contour>
      <point x="348" y="897" type="line"/>
      <point x="173" y="897" type="line"/>
      <point x="55" y="765" type="line"/>
      <point x="200" y="765" type="line"/>
    </contour>
  </outline>
</glyph>
<glyph name="uni00CE" format="2">
  <advance width="286"/>
  <unicode hex="00CE"/>
  <anchor x="143" y="737" name="top"/>
  <anchor x="143" y="-167" name="bottom"/>
  <outline>
    <contour>
      <point x="60" y="737" type="line"/>
      <point x="226" y="737" type="line"/>
      <point x="226" y="0" type="line"/>
      <point x="60" y="0" type="line"/>
    </contour>
    <contour>
      <point x="199" y="873" type="line"/>
      <point x="63" y="765" type="line"/>
      <point x="-76" y="765" type="line"/>
      <point x="48" y="897" type="line"/>
      <point x="243" y="897" type="line"/>
      <point x="365" y="765" type="line"/>
      <point x="220" y="765" type="line"/>
      <point x="89" y="873" type="line"/>
    </contour>
  </outline>
</glyph>
<glyph name="uni00CF" format="2">
  <advance width="286"/>
  <unicode hex="00CF"/>
  <anchor x="143" y="737" name="top"/>
  <anchor x="143" y="-167" name="bottom"/>
  <outline>
    <contour>
      <point x="60" y="737" type="line"/>
      <point x="226" y="737" type="line"/>
      <point x="226" y="0" type="line"/>
      <point x="60" y="0" type="line"/>
    </contour>
    <contour>
      <point x="-82" y="833" type="curve" smooth="yes"/>
      <point x="-82.0" y="879.5590046569466"/>
      <point x="-47.60313711603699" y="907.5245583057896"/>
      <point x="6" y="908" type="curve" smooth="yes"/>
      <point x="59.62408231424172" y="908.0"/>
      <point x="94.02094519820427" y="880.0344463511572"/>
      <point x="94" y="833" type="curve" smooth="yes"/>
      <point x="94.0" y="786.4409953430531"/>
      <point x="59.60948821144552" y="758.4754416942104"/>
      <point x="6" y="759" type="curve" smooth="yes"/>
      <point x="-47.62408231424163" y="759.0"/>
      <point x="-82.02094519820464" y="786.9655536488427"/>
    </contour>
    <contour>
      <point x="190" y="833" type="curve" smooth="yes"/>
      <point x="190.0" y="879.5590046569466"/>
      <point x="224.39686288396263" y="907.5245583057896"/>
      <point x="278" y="908" type="curve" smooth="yes"/>
      <point x="331.6240823142416" y="908.0"/>
      <point x="366.020945198205" y="880.0344463511572"/>
      <point x="366" y="833" type="curve" smooth="yes"/>
      <point x="366.0" y="786.4409953430531"/>
      <point x="331.6094882114448" y="758.4754416942104"/>
      <point x="278" y="759" type="curve" smooth="yes"/>
      <point x="224.37591768575837" y="759.0"/>
      <point x="189.9790548017957" y="786.9655536488427"/>
    </contour>
  </outline>
</glyph>
<glyph name="uni00D0" format="2">
  <advance width="787"/>
  <unicode hex="00D0"/>
  <anchor x="393" y="737" name="top"/>
  <anchor x="393" y="-167" name="bottom"/>
  <outline>
    <contour>
      <point x="107" y="737" type="line"/>
      <point x="272" y="737" type="line"/>
      <point x="272" y="0" type="line"/>
      <point x="107" y="0" type="line"/>
    </contour>
    <contour>
      <point x="202" y="585" type="line"/>
      <point x="202" y="737" type="line"/>
      <point x="388" y="737" type="line" smooth="yes"/>
      <point x="601.457746660549" y="737.0"/>
      <point x="742.3012682734593" y="576.0313092906131"/>
      <point x="742" y="382" type="curve" smooth="yes"/>
      <point x="742.0" y="177.4581708661095"/>
      <point x="611.0380454978498" y="-0.6432777228442887"/>
      <point x="379" y="0" type="curve" smooth="yes"/>
      <point x="202" y="0" type="line"/>
      <point x="211" y="155" type="line"/>
      <point x="388" y="155" type="line" smooth="yes"/>
      <point x="509.6965270519764" y="155.0"/>
      <point x="575.5330710175248" y="256.6224608838677"/>
      <point x="575" y="378" type="curve" smooth="yes"/>
      <point x="575.0000006350785" y="502.9318330380912"/>
      <point x="483.8237087676058" y="584.8222747908682"/>
      <point x="373" y="585" type="curve" smooth="yes"/>
    </contour>
    <contour>
      <point x="20" y="456" type="line"/>
      <point x="404" y="456" type="line"/>
      <point x="404" y="300" type="line"/>
      <point x="20" y="300" type="line"/>
    </contour>
  </outline>
</glyph>
<glyph name="uni00D1" format="2">
  <advance width="724"/>
  <unicode hex="00D1"/>
  <anchor x="362" y="737" name="top"/>
  <anchor x="362" y="-167" name="bottom"/>
  <outline>
    <contour>
      <point x="60" y="737" type="line"/>
      <point x="226" y="737" type="line"/>
      <point x="226" y="0" type="line"/>
      <point x="60" y="0" type="line"/>
    </contour>
    <contour>
      <point x="499" y="737" type="line"/>
      <point x="664" y="737" type="line"/>
      <point x="664" y="0" type="line"/>
      <point x="499" y="0" type="line"/>
    </contour>
    <contour>
      <point x="174" y="737" type="line"/>
      <point x="289" y="737" type="line"/>
      <point x="499" y="312" type="line"/>
      <point x="551" y="312" type="line"/>
      <point x="551" y="0" type="line"/>
      <point x="488" y="0" type="line"/>
      <point x="226" y="508" type="line"/>
      <point x="174" y="508" type="line"/>
    </contour>
    <contour>
      <point x="299" y="905" type="curve" smooth="yes"/>
      <point x="330.7978964104585" y="905.0"/>
      <point x="348.3999206457886" y="897.6930768661801"/>
      <point x="378" y="884" type="curve" smooth="yes"/>
      <point x="408.40376540267346" y="870.4024304163329"/>
      <point x="425.10699922766486" y="861.1372111922273"/>
      <point x="443" y="862" type="curve" smooth="yes"/>
      <point x="456.5681167324919" y="862.0"/>
      <point x="472.04331130615685" y="875.2501714188198"/>
      <point x="481" y="903" type="curve"/>
      <point x="561" y="873" type="line"/>
      <point x="551.7232995372702" y="793.0175793832519"/>
      <point x="488.4856948656323" y="761.87736775274"/>
      <point x="444" y="762" type="curve" smooth="yes"/>
      <point x="412.78001824673305" y="762.0"/>
      <point x="387.2402135386444" y="772.7294642026919"/>
      <point x="367" y="781" type="curve" smooth="yes"/>
      <point x="340.24172106034933" y="792.5977832920078"/>
      <point x="314.06212489188385" y="801.6676151059389"/>
      <point x="296" y="802" type="curve" smooth="yes"/>
      <point x="268.78247409498795" y="802.0"/>
      <point x="256.5304675959773" y="776.5755077213519"/>
      <point x="250" y="752" type="curve"/>
      <point x="170" y="790" type="line"/>
      <point x="179.05388507723669" y="857.1143942163305"/>
      <point x="237.05111968565024" y="904.5324379860906"/>
    </contour>
  </outline>
</glyph>
<glyph name="uni00D5" format="2">
  <advance width="818"/>
  <unicode hex="00D5"/>
  <anchor x="409" y="737" name="top"/>
  <anchor x="409" y="-167" name="bottom"/>
  <outline>
    <contour>
      <point x="42" y="364" type="curve" smooth="yes"/>
      <point x="42.0" y="568.7916669090521"/>
      <point x="210.25560604655158" y="744.9487882365079"/>
      <point x="409" y="745" type="curve" smooth="yes"/>
      <point x="631.7804884442745" y="745.0"/>
      <point x="776.1854474750696" y="568.8428786725444"/>
      <point x="776" y="364" type="curve" smooth="yes"/>
      <point x="776.0" y="159.20833309094812"/>
      <point x="607.7443939534485" y="-16.948788236507994"/>
      <point x="409" y="-17" type="curve"/>
      <point x="186.21951155572523" y="-17.0"/>
      <point x="41.814552524930434" y="159.15712132745577"/>
    </contour>
    <contour>
      <point x="210" y="364" type="curve" smooth="yes"/>
      <point x="210.0" y="237.54905578419243"/>
      <point x="296.21477370153843" y="148.88137680008688"/>
      <point x="409" y="149" type="curve" smooth="yes"/>
      <point x="521.8847672263507" y="149.0"/>
      <point x="608.0995408240403" y="237.66768232510503"/>
      <point x="608" y="364" type="curve" smooth="yes"/>
      <point x="608.0" y="490.45094421580757"/>
      <point x="521.7852262984621" y="579.1186231999135"/>
      <point x="409" y="580" type="curve" smooth="yes"/>
      <point x="296.1152327736493" y="580.0"/>
      <point x="209.90045917595955" y="491.33231767489474"/>
    </contour>
    <contour>
      <point x="213" y="787" type="curve"/>
      <point x="293" y="749" type="line"/>
      <point x="300.1935075653021" y="773.3979541232686"/>
      <point x="312.44551406431276" y="798.8224464019167"/>
      <point x="339" y="799" type="curve" smooth="yes"/>
      <point x="356.4106166421648" y="799.0"/>
      <point x="382.5902128106303" y="789.9301681860688"/>
      <point x="410" y="778" type="curve" smooth="yes"/>
      <point x="430.0170087034872" y="769.3240709680596"/>
      <point x="455.5568134115759" y="758.5946067653676"/>
      <point x="486" y="759" type="curve" smooth="yes"/>
      <point x="531.2361056128165" y="759.0"/>
      <point x="594.4737102844545" y="790.1402116305119"/>
      <point x="604" y="870" type="curve"/>
      <point x="524" y="901" type="line"/>
      <point x="515.3978663547916" y="872.3830063132785"/>
      <point x="499.92267178112684" y="859.1328348944587"/>
      <point x="486" y="859" type="curve"/>
      <point x="467.34064900047895" y="859.0"/>
      <point x="450.6374151754875" y="868.2652192241056"/>
      <point x="420" y="882" type="curve" smooth="yes"/>
      <point x="390.9053710363735" y="895.0120804645171"/>
      <point x="373.30334680104346" y="902.319003598337"/>
      <point x="342" y="902" type="curve"/>
      <point x="279.90264784755925" y="902.0"/>
      <point x="221.90541323914562" y="854.5819562302398"/>
    </contour>
  </outline>
</glyph>
<glyph name="uni00D6" format="2">
  <advance width="818"/>
  <unicode hex="00D6"/>
  <anchor x="409" y="737" name="top"/>
  <anchor x="409" y="-167" name="bottom"/>
  <outline>
    <contour>
      <point x="42" y="364" type="curve" smooth="yes"/>
      <point x="42.0" y="568.7916669090521"/>
      <point x="210.25560604655158" y="744.9487882365079"/>
      <point x="409" y="745" type="curve" smooth="yes"/>
      <point x="631.7804884442745" y="745.0"/>
      <point x="776.1854474750696" y="568.8428786725444"/>
      <point x="776" y="364" type="curve" smooth="yes"/>
      <point x="776.0" y="159.20833309094812"/>
      <point x="607.7443939534485" y="-16.948788236507994"/>
      <point x="409" y="-17" type="curve"/>
      <point x="186.21951155572523" y="-17.0"/>
      <point x="41.814552524930434" y="159.15712132745577"/>
    </contour>
    <contour>
      <point x="210" y="364" type="curve" smooth="yes"/>
      <point x="210.0" y="237.54905578419243"/>
      <point x="296.21477370153843" y="148.88137680008688"/>
      <point x="409" y="149" type="curve" smooth="yes"/>
      <point x="521.8847672263507" y="149.0"/>
      <point x="608.0995408240403" y="237.66768232510503"/>
      <point x="608" y="364" type="curve" smooth="yes"/>
      <point x="608.0" y="490.45094421580757"/>
      <point x="521.7852262984621" y="579.1186231999135"/>
      <point x="409" y="580" type="curve" smooth="yes"/>
      <point x="296.1152327736493" y="580.0"/>
      <point x="209.90045917595955" y="491.33231767489474"/>
    </contour>
    <contour>
      <point x="183" y="829" type="curve" smooth="yes"/>
      <point x="183.0" y="875.5590046569466"/>
      <point x="217.39686288396305" y="903.5245583057896"/>
      <point x="271" y="903" type="curve" smooth="yes"/>
      <point x="324.6240823142417" y="903.0"/>
      <point x="359.0209451982043" y="875.0344463511572"/>
      <point x="359" y="829" type="curve" smooth="yes"/>
      <point x="359.0" y="782.4409953430531"/>
      <point x="324.6094882114455" y="754.4754416942104"/>
      <point x="271" y="754" type="curve"/>
      <point x="217.37591768575837" y="754.0"/>
      <point x="182.97905480179531" y="781.9655536488427"/>
    </contour>
    <contour>
      <point x="455" y="829" type="curve" smooth="yes"/>
      <point x="455.0" y="875.5590046569466"/>
      <point x="489.3968628839626" y="903.5245583057896"/>
      <point x="543" y="903" type="curve" smooth="yes"/>
      <point x="596.6240823142417" y="903.0"/>
      <point x="631.0209451982053" y="875.0344463511572"/>
      <point x="631" y="829" type="curve" smooth="yes"/>
      <point x="631.0" y="782.4409953430531"/>
      <point x="596.6094882114447" y="754.4754416942104"/>
      <point x="543" y="754" type="curve"/>
      <point x="489.37591768575845" y="754.0"/>
      <point x="454.9790548017958" y="781.9655536488427"/>
    </contour>
  </outline>
</glyph>
<glyph name="uni00D7" format="2">
  <advance width="568"/>
  <unicode hex="00D7"/>
  <anchor x="284" y="589" name="top"/>
  <anchor x="284" y="-167" name="bottom"/>
  <outline>
    <contour>
      <point x="114" y="630" type="line"/>
      <point x="561" y="178" type="line"/>
      <point x="455" y="76" type="line"/>
      <point x="8" y="527" type="line"/>
    </contour>
    <contour>
      <point x="8" y="178" type="line"/>
      <point x="455" y="630" type="line"/>
      <point x="561" y="527" type="line"/>
      <point x="114" y="76" type="line"/>
    </contour>
  </outline>
</glyph>
<glyph name="uni00D8" format="2">
  <advance width="819"/>
  <unicode hex="00D8"/>
  <anchor x="409" y="737" name="top"/>
  <anchor x="409" y="-167" name="bottom"/>
  <outline>
    <contour>
      <point x="44" y="364" type="curve" smooth="yes"/>
      <point x="44.0" y="568.7916669090521"/>
      <point x="212.25560604655158" y="744.9487882365079"/>
      <point x="412" y="745" type="curve" smooth="yes"/>
      <point x="634.7804884442744" y="745.0"/>
      <point x="779.1854474750697" y="568.8428786725444"/>
      <point x="779" y="364" type="curve" smooth="yes"/>
      <point x="779.0" y="159.20833309094812"/>
      <point x="610.7443939534485" y="-16.948788236507994"/>
      <point x="412" y="-17" type="curve"/>
      <point x="189.21951155572523" y="-17.0"/>
      <point x="44.814552524930434" y="159.15712132745577"/>
    </contour>
    <contour>
      <point x="212" y="364" type="curve" smooth="yes"/>
      <point x="212.0" y="237.54905578419243"/>
      <point x="298.21477370153843" y="148.88137680008688"/>
      <point x="412" y="149" type="curve" smooth="yes"/>
      <point x="524.8847672263507" y="149.0"/>
      <point x="611.0995408240402" y="237.66768232510503"/>
      <point x="611" y="364" type="curve" smooth="yes"/>
      <point x="611.0" y="490.45094421580757"/>
      <point x="524.7852262984621" y="579.1186231999135"/>
      <point x="412" y="580" type="curve" smooth="yes"/>
      <point x="299.1152327736493" y="580.0"/>
      <point x="212.90045917595955" y="491.33231767489474"/>
    </contour>
    <contour>
      <point x="608" y="737" type="line"/>
      <point x="796" y="737" type="line"/>
      <point x="217" y="0" type="line"/>
      <point x="25" y="0" type="line"/>
    </contour>
  </outline>
</glyph>
<glyph name="uni00DB" format="2">
  <advance width="709"/>
  <unicode hex="00DB"/>
  <anchor x="354" y="737" name="top"/>
  <anchor x="354" y="-167" name="bottom"/>
  <outline>
    <contour>
      <point x="484" y="279" type="curve" smooth="yes"/>
      <point x="484" y="737" type="line"/>
      <point x="649" y="737" type="line"/>
      <point x="649" y="276" type="line" smooth="yes"/>
      <point x="649.0" y="80.70288666400458"/>
      <point x="533.4154581642449" y="-21.528147042246474"/>
      <point x="355" y="-22" type="curve"/>
      <point x="176.00698099217033" y="-22.0"/>
      <point x="60.422439156415464" y="80.23103370625105"/>
      <point x="60" y="276" type="curve" smooth="yes"/>
      <point x="60" y="737" type="line"/>
      <point x="226" y="737" type="line"/>
      <point x="226" y="298" type="line" smooth="yes"/>
      <point x="226.0" y="186.61369866912526"/>
      <point x="290.989482838514" y="140.6005468171669"/>
      <point x="361" y="141" type="curve" smooth="yes"/>
      <point x="427.1368682393993" y="141.0"/>
      <point x="483.2974135576704" y="188.21380204390863"/>
    </contour>
    <contour>
      <point x="410" y="867" type="line"/>
      <point x="274" y="759" type="line"/>
      <point x="135" y="759" type="line"/>
      <point x="259" y="891" type="line"/>
      <point x="454" y="891" type="line"/>
      <point x="576" y="759" type="line"/>
      <point x="431" y="759" type="line"/>
      <point x="300" y="867" type="line"/>
    </contour>
  </outline>
</glyph>
<glyph name="uni00DC" format="2">
  <advance width="709"/>
  <unicode hex="00DC"/>
  <anchor x="354" y="737" name="top"/>
  <anchor x="354" y="-167" name="bottom"/>
  <outline>
    <contour>
      <point x="484" y="279" type="curve" smooth="yes"/>
      <point x="484" y="737" type="line"/>
      <point x="649" y="737" type="line"/>
      <point x="649" y="276" type="line" smooth="yes"/>
      <point x="649.0" y="80.70288666400458"/>
      <point x="533.4154581642449" y="-21.528147042246474"/>
      <point x="355" y="-22" type="curve"/>
      <point x="176.00698099217033" y="-22.0"/>
      <point x="60.422439156415464" y="80.23103370625105"/>
      <point x="60" y="276" type="curve" smooth="yes"/>
      <point x="60" y="737" type="line"/>
      <point x="226" y="737" type="line"/>
      <point x="226" y="298" type="line" smooth="yes"/>
      <point x="226.0" y="186.61369866912526"/>
      <point x="290.989482838514" y="140.6005468171669"/>
      <point x="361" y="141" type="curve" smooth="yes"/>
      <point x="427.1368682393993" y="141.0"/>
      <point x="483.2974135576704" y="188.21380204390863"/>
    </contour>
    <contour>
      <point x="129" y="828" type="curve" smooth="yes"/>
      <point x="129.0" y="874.5590046569466"/>
      <point x="163.39686288396297" y="902.5245583057896"/>
      <point x="217" y="902" type="curve" smooth="yes"/>
      <point x="270.6240823142417" y="902.0"/>
      <point x="305.0209451982043" y="874.0344463511572"/>
      <point x="305" y="828" type="curve" smooth="yes"/>
      <point x="305.0" y="781.4409953430531"/>
      <point x="270.6094882114455" y="753.4754416942104"/>
      <point x="217" y="753" type="curve"/>
      <point x="163.37591768575837" y="753.0"/>
      <point x="128.9790548017954" y="780.9655536488427"/>
    </contour>
    <contour>
      <point x="401" y="828" type="curve" smooth="yes"/>
      <point x="401.0" y="874.5590046569466"/>
      <point x="435.39686288396257" y="902.5245583057896"/>
      <point x="489" y="902" type="curve" smooth="yes"/>
      <point x="542.6240823142417" y="902.0"/>
      <point x="577.020945198205" y="874.0344463511572"/>
      <point x="577" y="828" type="curve" smooth="yes"/>
      <point x="577.0" y="781.4409953430531"/>
      <point x="542.6094882114448" y="753.4754416942104"/>
      <point x="489" y="753" type="curve"/>
      <point x="435.3759176857583" y="753.0"/>
      <point x="400.9790548017957" y="780.9655536488427"/>
    </contour>
  </outline>
</glyph>
<glyph name="uni00DD" format="2">
  <advance width="661"/>
  <unicode hex="00DD"/>
  <anchor x="330" y="737" name="top"/>
  <anchor x="330" y="-167" name="bottom"/>
  <outline>
    <contour>
      <point x="416" y="0" type="line"/>
      <point x="250" y="0" type="line"/>
      <point x="250" y="302" type="line"/>
      <point x="269" y="223" type="line"/>
      <point x="4" y="737" type="line"/>
      <point x="210" y="737" type="line"/>
      <point x="358" y="445" type="line"/>
      <point x="320" y="444" type="line"/>
      <point x="454" y="737" type="line"/>
      <point x="656" y="737" type="line"/>
      <point x="397" y="232" type="line"/>
      <point x="416" y="312" type="line"/>
    </contour>
    <contour>
      <point x="391" y="764" type="line"/>
      <point x="246" y="764" type="line"/>
      <point x="363" y="897" type="line"/>
      <point x="538" y="897" type="line"/>
    </contour>
  </outline>
</glyph>
<glyph name="uni00DE" format="2">
  <advance width="684"/>
  <unicode hex="00DE"/>
  <anchor x="342" y="737" name="top"/>
  <anchor x="342" y="-167" name="bottom"/>
  <outline>
    <contour>
      <point x="60" y="737" type="line"/>
      <point x="226" y="737" type="line"/>
      <point x="226" y="0" type="line"/>
      <point x="60" y="0" type="line"/>
    </contour>
    <contour>
      <point x="381" y="146" type="curve"/>
      <point x="156" y="146" type="line"/>
      <point x="156" y="307" type="line"/>
      <point x="374" y="307" type="line" smooth="yes"/>
      <point x="431.4293846953585" y="307.0"/>
      <point x="467.89317587470606" y="339.56911957707825"/>
      <point x="468" y="393" type="curve" smooth="yes"/>
      <point x="468.0000002556208" y="443.28537714757294"/>
      <point x="423.63934819425094" y="467.9733543051969"/>
      <point x="378" y="468" type="curve" smooth="yes"/>
      <point x="156" y="468" type="line"/>
      <point x="156" y="627" type="line"/>
      <point x="388" y="627" type="line" smooth="yes"/>
      <point x="545.5118322091599" y="627.0"/>
      <point x="643.8819341150041" y="541.9048717246282"/>
      <point x="644" y="402" type="curve" smooth="yes"/>
      <point x="644.0" y="231.8386578185362"/>
      <point x="525.0069708207546" y="146.34526263403956"/>
    </contour>
  </outline>
</glyph>
<glyph name="uni00DF" format="2">
  <advance width="631"/>
  <unicode hex="00DF"/>
  <anchor x="315" y="589" name="top"/>
  <anchor x="315" y="-167" name="bottom"/>
  <outline>
    <contour>
      <point x="60" y="-2" type="line"/>
      <point x="60" y="523" type="line" smooth="yes"/>
      <point x="60.0" y="630.5106492896397"/>
      <point x="102.33559065302941" y="740.6081604330544"/>
      <point x="294" y="741" type="curve" smooth="yes"/>
      <point x="441.4135712921567" y="741.0"/>
      <point x="506.3614124592434" y="660.8188871405443"/>
      <point x="506" y="573" type="curve" smooth="yes"/>
      <point x="506.0" y="526.6552303883846"/>
      <point x="496.115457426106" y="490.3099798891022"/>
      <point x="459" y="456" type="curve" smooth="yes"/>
      <point x="430.101522514302" y="428.81678243348455"/>
      <point x="425.80417071310984" y="421.3799857140896"/>
      <point x="426" y="408" type="curve" smooth="yes"/>
      <point x="426.0" y="392.942359892885"/>
      <point x="436.38858246539195" y="375.8554147996889"/>
      <point x="497" y="340" type="curve" smooth="yes"/>
      <point x="569.4534105572578" y="296.69467345925415"/>
      <point x="600.1374325959393" y="250.00360099960645"/>
      <point x="600" y="172" type="curve" smooth="yes"/>
      <point x="600.0" y="87.55346206071772"/>
      <point x="539.4155771378781" y="-7.322151564725289"/>
      <point x="414" y="-7" type="curve" smooth="yes"/>
      <point x="349.1604836203604" y="-7.0"/>
      <point x="296.11704976734984" y="10.95277361306854"/>
      <point x="251" y="39" type="curve"/>
      <point x="325" y="169" type="line"/>
      <point x="347.87478763997314" y="156.62743746137238"/>
      <point x="368.9397133784336" y="149.72285180438695"/>
      <point x="389" y="150" type="curve" smooth="yes"/>
      <point x="415.5656390941618" y="150.0"/>
      <point x="427.47283677780075" y="166.14281063307655"/>
      <point x="427" y="184" type="curve" smooth="yes"/>
      <point x="427.0" y="215.23549203086836"/>
      <point x="376.9421950827175" y="241.35383606228575"/>
      <point x="336" y="266" type="curve" smooth="yes"/>
      <point x="277.26886363736776" y="301.634378405462"/>
      <point x="254.86326452142683" y="345.96892980200903"/>
      <point x="255" y="396" type="curve" smooth="yes"/>
      <point x="255.0" y="431.39645233830845"/>
      <point x="271.58430669834377" y="466.54988110174514"/>
      <point x="303" y="498" type="curve" smooth="yes"/>
      <point x="329.5167567503572" y="523.6634759462022"/>
      <point x="343.1702066139198" y="534.6267294313138"/>
      <point x="343" y="558" type="curve" smooth="yes"/>
      <point x="343.0" y="580.4688990619197"/>
      <point x="326.37824571035077" y="602.0695877363391"/>
      <point x="288" y="602" type="curve"/>
      <point x="235.1815962688175" y="602.0"/>
      <point x="218.7898401662618" y="567.2177390665283"/>
      <point x="218" y="525" type="curve" smooth="yes"/>
      <point x="218" y="-2" type="line"/>
    </contour>
  </outline>
</glyph>
<glyph name="uni00E0" format="2">
  <advance width="592"/>
  <unicode hex="00E0"/>
  <anchor x="296" y="589" name="top"/>
  <anchor x="296" y="-167" name="bottom"/>
  <outline>
    <contour>
      <point x="376" y="0" type="line"/>
      <point x="376" y="336" type="line" smooth="yes"/>
      <point x="376.0" y="417.6654922607398"/>
      <point x="315.1811841466036" y="448.6555527688005"/>
      <point x="253" y="448" type="curve"/>
      <point x="189.1883392779007" y="448.0"/>
      <point x="135.36550449139338" y="417.11551388304815"/>
      <point x="102" y="395" type="curve"/>
      <point x="26" y="531" type="line"/>
      <point x="81.77862852715079" y="574.872370741892"/>
      <point x="160.2387216638665" y="608.9989436561693"/>
      <point x="264" y="609" type="curve" smooth="yes"/>
      <point x="413.3474896865182" y="609.0"/>
      <point x="538.458916097709" y="540.1285332845285"/>
      <point x="539" y="366" type="curve" smooth="yes"/>
      <point x="539" y="0" type="line"/>
    </contour>
    <contour>
      <point x="395" y="310" type="curve"/>
      <point x="395" y="59" type="line"/>
      <point x="363.345612984683" y="18.86432112119263"/>
      <point x="308.0508950918031" y="-11.417568384124735"/>
      <point x="236" y="-11" type="curve" smooth="yes"/>
      <point x="119.10675367837891" y="-11.0"/>
      <point x="45.00529735502511" y="64.2345587411337"/>
      <point x="45" y="171" type="curve" smooth="yes"/>
      <point x="45.0" y="286.569568909"/>
      <point x="144.530664449683" y="354.44594276632563"/>
      <point x="268" y="354" type="curve" smooth="yes"/>
      <point x="333.1649397894188" y="354.0"/>
      <point x="378.5835950147444" y="335.91921994554235"/>
    </contour>
    <contour>
      <point x="305" y="229" type="curve" smooth="yes"/>
      <point x="258.38808443273547" y="229.0"/>
      <point x="221.36407540164132" y="206.5124696379051"/>
      <point x="221" y="169" type="curve" smooth="yes"/>
      <point x="221.0" y="133.91501850703406"/>
      <point x="252.51594117984888" y="112.83520266332525"/>
      <point x="289" y="113" type="curve" smooth="yes"/>
      <point x="340.4728514843972" y="113.0"/>
      <point x="376.5793553316816" y="147.58278635643032"/>
      <point x="376" y="185" type="curve" smooth="yes"/>
      <point x="376.0" y="215.3989810364244"/>
      <point x="338.3784350012395" y="228.35032140784384"/>
    </contour>
    <contour>
      <point x="94" y="762" type="line"/>
      <point x="269" y="762" type="line"/>
      <point x="386" y="629" type="line"/>
      <point x="241" y="629" type="line"/>
    </contour>
  </outline>
</glyph>
<glyph name="uni00E3" format="2">
  <advance width="595"/>
  <unicode hex="00E3"/>
  <anchor x="297" y="589" name="top"/>
  <anchor x="297" y="-167" name="bottom"/>
  <outline>
    <contour>
      <point x="376" y="0" type="line"/>
      <point x="376" y="336" type="line" smooth="yes"/>
      <point x="376.0" y="417.6654922607398"/>
      <point x="315.1811841466036" y="448.6555527688005"/>
      <point x="252" y="448" type="curve"/>
      <point x="188.1883392779007" y="448.0"/>
      <point x="134.36550449139338" y="417.11551388304815"/>
      <point x="102" y="395" type="curve"/>
      <point x="25" y="531" type="line"/>
      <point x="80.77862852715079" y="574.872370741892"/>
      <point x="159.2387216638665" y="608.9989436561693"/>
      <point x="264" y="609" type="curve" smooth="yes"/>
      <point x="413.3474896865182" y="609.0"/>
      <point x="538.458916097709" y="540.1285332845285"/>
      <point x="538" y="366" type="curve" smooth="yes"/>
      <point x="538" y="0" type="line"/>
    </contour>
    <contour>
      <point x="394" y="310" type="curve"/>
      <point x="394" y="59" type="line"/>
      <point x="362.345612984683" y="18.86432112119263"/>
      <point x="307.0508950918031" y="-11.417568384124735"/>
      <point x="235" y="-11" type="curve" smooth="yes"/>
      <point x="118.10675367837891" y="-11.0"/>
      <point x="44.00529735502511" y="64.2345587411337"/>
      <point x="44" y="171" type="curve" smooth="yes"/>
      <point x="44.0" y="286.569568909"/>
      <point x="143.530664449683" y="354.44594276632563"/>
      <point x="267" y="354" type="curve" smooth="yes"/>
      <point x="332.1649397894188" y="354.0"/>
      <point x="377.5835950147444" y="335.91921994554235"/>
    </contour>
    <contour>
      <point x="304" y="229" type="curve" smooth="yes"/>
      <point x="257.38808443273547" y="229.0"/>
      <point x="220.36407540164132" y="206.5124696379051"/>
      <point x="220" y="169" type="curve" smooth="yes"/>
      <point x="220.0" y="133.91501850703406"/>
      <point x="251.51594117984888" y="112.83520266332525"/>
      <point x="288" y="113" type="curve" smooth="yes"/>
      <point x="339.4728514843972" y="113.0"/>
      <point x="375.5793553316816" y="147.58278635643032"/>
      <point x="376" y="185" type="curve" smooth="yes"/>
      <point x="376.0" y="215.3989810364244"/>
      <point x="338.3784350012395" y="228.35032140784384"/>
    </contour>
    <contour>
      <point x="227" y="771" type="curve" smooth="yes"/>
      <point x="258.7978964104585" y="771.0"/>
      <point x="276.3999206457886" y="763.6930768661801"/>
      <point x="305" y="751" type="curve" smooth="yes"/>
      <point x="335.40376540267334" y="737.4024304163329"/>
      <point x="352.10699922766474" y="728.1372111922273"/>
      <point x="371" y="728" type="curve" smooth="yes"/>
      <point x="384.56811673249206" y="728.0"/>
      <point x="400.04331130615685" y="741.2501714188198"/>
      <point x="409" y="770" type="curve"/>
      <point x="489" y="740" type="line"/>
      <point x="479.72329953727007" y="660.0175793832519"/>
      <point x="416.4856948656323" y="628.87736775274"/>
      <point x="371" y="629" type="curve" smooth="yes"/>
      <point x="339.7800182467329" y="629.0"/>
      <point x="314.2402135386443" y="639.7294642026919"/>
      <point x="294" y="648" type="curve" smooth="yes"/>
      <point x="267.24172106034933" y="659.5977832920078"/>
      <point x="241.06212489188385" y="668.6676151059389"/>
      <point x="224" y="669" type="curve" smooth="yes"/>
      <point x="196.78247409498798" y="669.0"/>
      <point x="184.5304675959773" y="643.5755077213519"/>
      <point x="177" y="619" type="curve"/>
      <point x="98" y="657" type="line"/>
      <point x="107.05388507723661" y="724.1143942163305"/>
      <point x="165.05111968565024" y="771.5324379860906"/>
    </contour>
  </outline>
</glyph>
<glyph name="uni00E4" format="2">
  <advance width="603"/>
  <unicode hex="00E4"/>
  <anchor x="301" y="589" name="top"/>
  <anchor x="301" y="-167" name="bottom"/>
  <outline>
    <contour>
      <point x="382" y="0" type="line"/>
      <point x="382" y="336" type="line" smooth="yes"/>
      <point x="382.0" y="417.6654922607398"/>
      <point x="321.1811841466036" y="448.6555527688005"/>
      <point x="258" y="448" type="curve"/>
      <point x="194.1883392779007" y="448.0"/>
      <point x="140.36550449139338" y="417.11551388304815"/>
      <point x="108" y="395" type="curve"/>
      <point x="31" y="531" type="line"/>
      <point x="86.77862852715079" y="574.872370741892"/>
      <point x="165.2387216638665" y="608.9989436561693"/>
      <point x="269" y="609" type="curve" smooth="yes"/>
      <point x="418.3474896865182" y="609.0"/>
      <point x="543.458916097709" y="540.1285332845285"/>
      <point x="544" y="366" type="curve" smooth="yes"/>
      <point x="544" y="0" type="line"/>
    </contour>
    <contour>
      <point x="400" y="310" type="curve"/>
      <point x="400" y="59" type="line"/>
      <point x="368.345612984683" y="18.86432112119263"/>
      <point x="313.0508950918031" y="-11.417568384124735"/>
      <point x="241" y="-11" type="curve" smooth="yes"/>
      <point x="124.10675367837891" y="-11.0"/>
      <point x="50.00529735502511" y="64.2345587411337"/>
      <point x="50" y="171" type="curve" smooth="yes"/>
      <point x="50.0" y="286.569568909"/>
      <point x="149.530664449683" y="354.44594276632563"/>
      <point x="273" y="354" type="curve" smooth="yes"/>
      <point x="338.1649397894188" y="354.0"/>
      <point x="383.5835950147444" y="335.91921994554235"/>
    </contour>
    <contour>
      <point x="310" y="229" type="curve" smooth="yes"/>
      <point x="263.38808443273547" y="229.0"/>
      <point x="226.36407540164132" y="206.5124696379051"/>
      <point x="226" y="169" type="curve" smooth="yes"/>
      <point x="226.0" y="133.91501850703406"/>
      <point x="257.5159411798489" y="112.83520266332525"/>
      <point x="294" y="113" type="curve" smooth="yes"/>
      <point x="345.4728514843972" y="113.0"/>
      <point x="381.5793553316816" y="147.58278635643032"/>
      <point x="382" y="185" type="curve" smooth="yes"/>
      <point x="382.0" y="215.3989810364244"/>
      <point x="344.3784350012395" y="228.35032140784384"/>
    </contour>
    <contour>
      <point x="74" y="698" type="curve" smooth="yes"/>
      <point x="74.0" y="744.5590046569466"/>
      <point x="108.39686288396305" y="772.5245583057896"/>
      <point x="162" y="773" type="curve" smooth="yes"/>
      <point x="215.62408231424172" y="773.0"/>
      <point x="250.0209451982043" y="745.0344463511572"/>
      <point x="250" y="698" type="curve" smooth="yes"/>
      <point x="250.0" y="651.4409953430531"/>
      <point x="215.60948821144552" y="623.4754416942104"/>
      <point x="162" y="624" type="curve" smooth="yes"/>
      <point x="108.37591768575837" y="624.0"/>
      <point x="73.97905480179531" y="651.9655536488427"/>
    </contour>
    <contour>
      <point x="346" y="698" type="curve" smooth="yes"/>
      <point x="346.0" y="744.5590046569466"/>
      <point x="380.3968628839626" y="772.5245583057896"/>
      <point x="434" y="773" type="curve" smooth="yes"/>
      <point x="487.62408231424155" y="773.0"/>
      <point x="522.0209451982048" y="745.0344463511572"/>
      <point x="522" y="698" type="curve" smooth="yes"/>
      <point x="522.0" y="651.4409953430531"/>
      <point x="487.60948821144484" y="623.4754416942104"/>
      <point x="434" y="624" type="curve" smooth="yes"/>
      <point x="380.3759176857583" y="624.0"/>
      <point x="345.97905480179566" y="651.9655536488427"/>
    </contour>
  </outline>
</glyph>
<glyph name="uni00E5" format="2">
  <advance width="589"/>
  <unicode hex="00E5"/>
  <anchor x="294" y="589" name="top"/>
  <anchor x="294" y="-167" name="bottom"/>
  <outline>
    <contour>
      <point x="376" y="0" type="line"/>
      <point x="376" y="336" type="line" smooth="yes"/>
      <point x="376.0" y="417.6654922607398"/>
      <point x="315.1811841466036" y="448.6555527688005"/>
      <point x="252" y="448" type="curve"/>
      <point x="188.1883392779007" y="448.0"/>
      <point x="134.36550449139338" y="417.11551388304815"/>
      <point x="102" y="395" type="curve"/>
      <point x="25" y="531" type="line"/>
      <point x="80.77862852715079" y="574.872370741892"/>
      <point x="159.2387216638665" y="608.9989436561693"/>
      <point x="263" y="609" type="curve" smooth="yes"/>
      <point x="412.3474896865182" y="609.0"/>
      <point x="537.458916097709" y="540.1285332845285"/>
      <point x="538" y="366" type="curve" smooth="yes"/>
      <point x="538" y="0" type="line"/>
    </contour>
    <contour>
      <point x="394" y="310" type="curve"/>
      <point x="394" y="59" type="line"/>
      <point x="362.345612984683" y="18.86432112119263"/>
      <point x="307.0508950918031" y="-11.417568384124735"/>
      <point x="235" y="-11" type="curve" smooth="yes"/>
      <point x="118.10675367837891" y="-11.0"/>
      <point x="44.00529735502511" y="64.2345587411337"/>
      <point x="44" y="171" type="curve" smooth="yes"/>
      <point x="44.0" y="286.569568909"/>
      <point x="143.530664449683" y="354.44594276632563"/>
      <point x="267" y="354" type="curve" smooth="yes"/>
      <point x="332.1649397894188" y="354.0"/>
      <point x="377.5835950147444" y="335.91921994554235"/>
    </contour>
    <contour>
      <point x="304" y="229" type="curve" smooth="yes"/>
      <point x="257.38808443273547" y="229.0"/>
      <point x="220.36407540164132" y="206.5124696379051"/>
      <point x="220" y="169" type="curve" smooth="yes"/>
      <point x="220.0" y="133.91501850703406"/>
      <point x="251.51594117984888" y="112.83520266332525"/>
      <point x="288" y="113" type="curve" smooth="yes"/>
      <point x="339.4728514843972" y="113.0"/>
      <point x="375.5793553316816" y="147.58278635643032"/>
      <point x="376" y="185" type="curve" smooth="yes"/>
      <point x="376.0" y="215.3989810364244"/>
      <point x="338.3784350012395" y="228.35032140784384"/>
    </contour>
    <contour>
      <point x="292" y="576" type="curve" smooth="yes"/>
      <point x="385.08334045460714" y="576.0"/>
      <point x="448.0048550964276" y="620.4238875724197"/>
      <point x="448" y="687" type="curve" smooth="yes"/>
      <point x="448.0" y="753.5580024598331"/>
      <point x="385.0674621174831" y="797.9818900322531"/>
      <point x="292" y="798" type="curve" smooth="yes"/>
      <point x="198.15598729549498" y="798.0"/>
      <point x="134.05106700032684" y="754.127968359599"/>
      <point x="134" y="687" type="curve" smooth="yes"/>
      <point x="134.0" y="619.8901416081477"/>
      <point x="198.1049202951681" y="576.0181099677469"/>
    </contour>
    <contour>
      <point x="292" y="645" type="curve" smooth="yes"/>
      <point x="337.5520294650852" y="645.0"/>
      <point x="370.73679190709186" y="659.1407044971594"/>
      <point x="371" y="687" type="curve" smooth="yes"/>
      <point x="371.0" y="715.0896567691002"/>
      <point x="337.809843134216" y="729.2303612662597"/>
      <point x="292" y="729" type="curve"/>
      <point x="245.57765276871095" y="729.0"/>
      <point x="211.31913018966253" y="715.3993673396022"/>
      <point x="211" y="687" type="curve" smooth="yes"/>
      <point x="211.0" y="658.3702713941382"/>
      <point x="245.25852257904842" y="644.7696387337404"/>
    </contour>
  </outline>
</glyph>
<glyph name="uni00E6" format="2">
  <advance width="1023"/>
  <unicode hex="00E6"/>
  <anchor x="511" y="589" name="top"/>
  <anchor x="511" y="-167" name="bottom"/>
  <outline>
    <contour>
      <point x="397" y="169" type="line"/>
      <point x="397" y="336" type="line" smooth="yes"/>
      <point x="397.0" y="417.6654922607398"/>
      <point x="336.1811841466036" y="448.6555527688005"/>
      <point x="273" y="448" type="curve"/>
      <point x="209.1883392779007" y="448.0"/>
      <point x="155.36550449139338" y="417.11551388304815"/>
      <point x="123" y="395" type="curve"/>
      <point x="46" y="531" type="line"/>
      <point x="101.77862852715079" y="574.872370741892"/>
      <point x="180.2387216638665" y="608.9989436561693"/>
      <point x="284" y="609" type="curve" smooth="yes"/>
      <point x="429.9352870116837" y="609.0"/>
      <point x="547.1861883843042" y="536.1599869214174"/>
      <point x="547" y="366" type="curve" smooth="yes"/>
      <point x="547" y="169" type="line"/>
    </contour>
    <contour>
      <point x="415" y="310" type="curve"/>
      <point x="515" y="113" type="line"/>
      <point x="471.60914582768726" y="31.490699771016097"/>
      <point x="381.7848949473586" y="-14.975241932065103"/>
      <point x="292" y="-15" type="curve"/>
      <point x="146.0818501539828" y="-15.0"/>
      <point x="65.4690510162273" y="62.370285589987276"/>
      <point x="65" y="171" type="curve" smooth="yes"/>
      <point x="65.0" y="286.569568909"/>
      <point x="164.530664449683" y="354.44594276632563"/>
      <point x="288" y="354" type="curve" smooth="yes"/>
      <point x="353.1649397894188" y="354.0"/>
      <point x="398.5835950147444" y="335.91921994554235"/>
    </contour>
    <contour>
      <point x="325" y="229" type="curve" smooth="yes"/>
      <point x="278.38808443273547" y="229.0"/>
      <point x="241.36407540164132" y="206.5124696379051"/>
      <point x="241" y="169" type="curve" smooth="yes"/>
      <point x="241.0" y="133.91501850703406"/>
      <point x="272.5159411798489" y="112.83520266332525"/>
      <point x="309" y="113" type="curve" smooth="yes"/>
      <point x="360.4728514843972" y="113.0"/>
      <point x="396.5793553316816" y="147.58278635643032"/>
      <point x="397" y="185" type="curve" smooth="yes"/>
      <point x="397.0" y="215.3989810364244"/>
      <point x="359.3784350012395" y="228.35032140784384"/>
    </contour>
    <contour>
      <point x="480" y="371" type="line"/>
      <point x="891" y="371" type="line"/>
      <point x="891" y="232" type="line"/>
      <point x="480" y="232" type="line"/>
    </contour>
    <contour>
      <point x="735" y="138" type="curve" smooth="yes"/>
      <point x="781.0926060478927" y="138.0"/>
      <point x="818.9810614207126" y="150.975067512649"/>
      <point x="858" y="172" type="curve"/>
      <point x="910" y="37" type="line"/>
      <point x="885.9546569512693" y="8.936667047528356"/>
      <point x="805.4913311604004" y="-20.63617492307749"/>
      <point x="722" y="-21" type="curve"/>
      <point x="534.0731862201595" y="-21.0"/>
      <point x="408.5839852641411" y="120.77867984719632"/>
      <point x="409" y="295" type="curve" smooth="yes"/>
      <point x="409.0" y="466.3098664211608"/>
      <point x="529.6489310352781" y="610.7890742389767"/>
      <point x="709" y="611" type="curve" smooth="yes"/>
      <point x="867.1924694284487" y="611.0"/>
      <point x="983.1814097319584" y="479.31939726047176"/>
      <point x="983" y="316" type="curve" smooth="yes"/>
      <point x="983.0" y="293.3596674959459"/>
      <point x="979.1193129202782" y="260.65470280037175"/>
      <point x="970" y="232" type="curve"/>
      <point x="813" y="232" type="line"/>
      <point x="813" y="310" type="line" smooth="yes"/>
      <point x="813.0" y="397.5104224986005"/>
      <point x="773.8885277583344" y="462.5058636864736"/>
      <point x="696" y="462" type="curve"/>
      <point x="598.9174306560577" y="462.0"/>
      <point x="554.9546166162411" y="377.19984710488484"/>
      <point x="555" y="306" type="curve" smooth="yes"/>
      <point x="555.0" y="210.76526951839764"/>
      <point x="613.449867499344" y="138.20695177453513"/>
    </contour>
  </outline>
</glyph>
<glyph name="uni00E7" format="2">
  <advance width="605"/>
  <unicode hex="00E7"/>
  <anchor x="302" y="589" name="top"/>
  <anchor x="302" y="-167" name="bottom"/>
  <outline>
    <contour>
      <point x="571" y="538" type="curve"/>
      <point x="497" y="396" type="line"/>
      <point x="457.6852806326837" y="430.57822609415666"/>
      <point x="421.91840163717455" y="443.16244482412674"/>
      <point x="375" y="443" type="curve"/>
      <point x="288.4398948493896" y="443.0"/>
      <point x="221.09869850344742" y="384.35138217934184"/>
      <point x="221" y="293" type="curve" smooth="yes"/>
      <point x="220.99999949381024" y="198.2209789339008"/>
      <point x="302.80347010399885" y="138.16394330023476"/>
      <point x="386" y="138" type="curve" smooth="yes"/>
      <point x="432.69437917326053" y="138.0"/>
      <point x="474.2519853606227" y="155.11388291435375"/>
      <point x="509" y="179" type="curve"/>
      <point x="576" y="38" type="line"/>
      <point x="525.0758196164775" y="-6.294921008529791"/>
      <point x="451.7266656347161" y="-23.531761771228908"/>
      <point x="386" y="-24" type="curve"/>
      <point x="188.425796305731" y="-24.0"/>
      <point x="46.74750383240723" y="103.70722777387836"/>
      <point x="46" y="293" type="curve" smooth="yes"/>
      <point x="46.0" y="469.7132776021423"/>
      <point x="178.5287865943996" y="608.597807365979"/>
      <point x="379" y="609" type="curve" smooth="yes"/>
      <point x="443.00303078363885" y="609.0"/>
      <point x="522.0153964770383" y="587.9649662635475"/>
    </contour>
    <contour>
      <point x="372" y="-132" type="line"/>
      <point x="228" y="-132" type="line"/>
      <point x="314" y="27" type="line"/>
      <point x="470" y="27" type="line"/>
    </contour>
  </outline>
</glyph>
<glyph name="uni00E8" format="2">
  <advance width="663"/>
  <unicode hex="00E8"/>
  <anchor x="331" y="589" name="top"/>
  <anchor x="331" y="-167" name="bottom"/>
  <outline>
    <contour>
      <point x="124" y="371" type="line"/>
      <point x="535" y="371" type="line"/>
      <point x="535" y="232" type="line"/>
      <point x="124" y="232" type="line"/>
    </contour>
    <contour>
      <point x="380" y="138" type="curve" smooth="yes"/>
      <point x="426.0926060478929" y="138.0"/>
      <point x="463.9810614207127" y="150.975067512649"/>
      <point x="503" y="172" type="curve"/>
      <point x="554" y="37" type="line"/>
      <point x="529.8626834969332" y="8.829324778940727"/>
      <point x="449.8084067048312" y="-23.137962377433432"/>
      <point x="366" y="-23" type="curve" smooth="yes"/>
      <point x="172.80572345729982" y="-23.0"/>
      <point x="37.533605888331465" y="116.40811420390881"/>
      <point x="38" y="295" type="curve" smooth="yes"/>
      <point x="38.0" y="469.957811096058"/>
      <point x="168.86072737256805" y="610.0690918105765"/>
      <point x="352" y="610" type="curve" smooth="yes"/>
      <point x="510.2573231343163" y="610.0"/>
      <point x="627.1941901333327" y="479.1061444257989"/>
      <point x="628" y="316" type="curve" smooth="yes"/>
      <point x="628.0" y="293.314281972635"/>
      <point x="623.5398893636568" y="256.01149570163193"/>
      <point x="613" y="232" type="curve"/>
      <point x="458" y="232" type="line"/>
      <point x="458" y="310" type="line" smooth="yes"/>
      <point x="458.0" y="397.5104224986005"/>
      <point x="418.8885277583343" y="462.5058636864736"/>
      <point x="340" y="462" type="curve"/>
      <point x="242.9174306560579" y="462.0"/>
      <point x="198.9546166162412" y="377.19984710488484"/>
      <point x="199" y="306" type="curve" smooth="yes"/>
      <point x="199.0" y="210.76526951839764"/>
      <point x="257.449867499344" y="138.20695177453513"/>
    </contour>
    <contour>
      <point x="146" y="761" type="line"/>
      <point x="321" y="761" type="line"/>
      <point x="438" y="629" type="line"/>
      <point x="293" y="629" type="line"/>
    </contour>
  </outline>
</glyph>
<glyph name="uni00E9" format="2">
  <advance width="667"/>
  <unicode hex="00E9"/>
  <anchor x="333" y="589" name="top"/>
  <anchor x="333" y="-167" name="bottom"/>
  <outline>
    <contour>
      <point x="128" y="371" type="line"/>
      <point x="539" y="371" type="line"/>
      <point x="539" y="232" type="line"/>
      <point x="128" y="232" type="line"/>
    </contour>
    <contour>
      <point x="383" y="138" type="curve" smooth="yes"/>
      <point x="429.0926060478929" y="138.0"/>
      <point x="466.9810614207127" y="150.975067512649"/>
      <point x="506" y="172" type="curve"/>
      <point x="557" y="37" type="line"/>
      <point x="532.8626834969332" y="8.829324778940727"/>
      <point x="452.8084067048312" y="-23.137962377433432"/>
      <point x="370" y="-23" type="curve" smooth="yes"/>
      <point x="176.80572345729982" y="-23.0"/>
      <point x="41.533605888331465" y="116.40811420390881"/>
      <point x="41" y="295" type="curve" smooth="yes"/>
      <point x="41.0" y="469.957811096058"/>
      <point x="171.86072737256805" y="610.0690918105765"/>
      <point x="356" y="610" type="curve" smooth="yes"/>
      <point x="514.2573231343163" y="610.0"/>
      <point x="631.1941901333327" y="479.1061444257989"/>
      <point x="631" y="316" type="curve" smooth="yes"/>
      <point x="631.0" y="293.314281972635"/>
      <point x="626.5398893636568" y="256.01149570163193"/>
      <point x="617" y="232" type="curve"/>
      <point x="461" y="232" type="line"/>
      <point x="461" y="310" type="line" smooth="yes"/>
      <point x="461.0" y="397.5104224986005"/>
      <point x="421.8885277583343" y="462.5058636864736"/>
      <point x="344" y="462" type="curve"/>
      <point x="246.9174306560579" y="462.0"/>
      <point x="202.9546166162412" y="377.19984710488484"/>
      <point x="203" y="306" type="curve" smooth="yes"/>
      <point x="203.0" y="210.76526951839764"/>
      <point x="261.449867499344" y="138.20695177453513"/>
    </contour>
    <contour>
      <point x="553" y="761" type="line"/>
      <point x="378" y="761" type="line"/>
      <point x="261" y="629" type="line"/>
      <point x="406" y="629" type="line"/>
    </contour>
  </outline>
</glyph>
<glyph name="uni00EB" format="2">
  <advance width="666"/>
  <unicode hex="00EB"/>
  <anchor x="333" y="589" name="top"/>
  <anchor x="333" y="-167" name="bottom"/>
  <outline>
    <contour>
      <point x="124" y="371" type="line"/>
      <point x="535" y="371" type="line"/>
      <point x="535" y="232" type="line"/>
      <point x="124" y="232" type="line"/>
    </contour>
    <contour>
      <point x="379" y="138" type="curve" smooth="yes"/>
      <point x="425.0926060478929" y="138.0"/>
      <point x="462.9810614207127" y="150.975067512649"/>
      <point x="502" y="172" type="curve"/>
      <point x="554" y="37" type="line"/>
      <point x="529.8626834969332" y="8.829324778940727"/>
      <point x="449.8084067048312" y="-23.137962377433432"/>
      <point x="366" y="-23" type="curve" smooth="yes"/>
      <point x="172.80572345729982" y="-23.0"/>
      <point x="37.533605888331465" y="116.40811420390881"/>
      <point x="38" y="295" type="curve" smooth="yes"/>
      <point x="38.0" y="469.957811096058"/>
      <point x="168.86072737256805" y="610.0690918105765"/>
      <point x="352" y="610" type="curve" smooth="yes"/>
      <point x="510.2573231343163" y="610.0"/>
      <point x="627.1941901333327" y="479.1061444257989"/>
      <point x="627" y="316" type="curve" smooth="yes"/>
      <point x="627.0" y="293.314281972635"/>
      <point x="623.4181784648135" y="250.44899806097288"/>
      <point x="616" y="232" type="curve"/>
      <point x="457" y="232" type="line"/>
      <point x="457" y="310" type="line" smooth="yes"/>
      <point x="457.0" y="397.5104224986005"/>
      <point x="417.8885277583343" y="462.5058636864736"/>
      <point x="340" y="462" type="curve"/>
      <point x="242.9174306560579" y="462.0"/>
      <point x="198.9546166162412" y="377.19984710488484"/>
      <point x="199" y="306" type="curve" smooth="yes"/>
      <point x="199.0" y="210.76526951839764"/>
      <point x="257.449867499344" y="138.20695177453513"/>
    </contour>
    <contour>
      <point x="120" y="698" type="curve" smooth="yes"/>
      <point x="120.0" y="744.5590046569466"/>
      <point x="154.39686288396297" y="772.5245583057896"/>
      <point x="208" y="773" type="curve" smooth="yes"/>
      <point x="261.6240823142417" y="773.0"/>
      <point x="296.0209451982043" y="745.0344463511572"/>
      <point x="296" y="698" type="curve" smooth="yes"/>
      <point x="296.0" y="651.4409953430531"/>
      <point x="261.6094882114455" y="623.4754416942104"/>
      <point x="208" y="623" type="curve"/>
      <point x="154.37591768575837" y="623.0"/>
      <point x="119.9790548017954" y="650.9655536488427"/>
    </contour>
    <contour>
      <point x="392" y="698" type="curve" smooth="yes"/>
      <point x="392.0" y="744.5590046569466"/>
      <point x="426.39686288396274" y="772.5245583057896"/>
      <point x="480" y="773" type="curve" smooth="yes"/>
      <point x="533.6240823142416" y="773.0"/>
      <point x="568.020945198205" y="745.0344463511572"/>
      <point x="568" y="698" type="curve" smooth="yes"/>
      <point x="568.0" y="651.4409953430531"/>
      <point x="533.6094882114447" y="623.4754416942104"/>
      <point x="480" y="623" type="curve"/>
      <point x="426.37591768575845" y="623.0"/>
      <point x="391.9790548017957" y="650.9655536488427"/>
    </contour>
  </outline>
</glyph>
